%FSTAX44Y44*%
%MOMM*%
%SFA1B1*%

%IPPOS*%
%AMD18*
4,1,8,-1.000760,0.459740,-1.000760,-0.459740,-0.784860,-0.675640,0.784860,-0.675640,1.000760,-0.459740,1.000760,0.459740,0.784860,0.675640,-0.784860,0.675640,-1.000760,0.459740,0.0*
1,1,0.430000,-0.784860,0.459740*
1,1,0.430000,-0.784860,-0.459740*
1,1,0.430000,0.784860,-0.459740*
1,1,0.430000,0.784860,0.459740*
%
%AMD19*
4,1,8,0.299720,0.551180,-0.299720,0.551180,-0.500380,0.350520,-0.500380,-0.350520,-0.299720,-0.551180,0.299720,-0.551180,0.500380,-0.350520,0.500380,0.350520,0.299720,0.551180,0.0*
1,1,0.403200,0.299720,0.350520*
1,1,0.403200,-0.299720,0.350520*
1,1,0.403200,-0.299720,-0.350520*
1,1,0.403200,0.299720,-0.350520*
%
%AMD20*
4,1,8,-0.551180,0.299720,-0.551180,-0.299720,-0.350520,-0.500380,0.350520,-0.500380,0.551180,-0.299720,0.551180,0.299720,0.350520,0.500380,-0.350520,0.500380,-0.551180,0.299720,0.0*
1,1,0.403200,-0.350520,0.299720*
1,1,0.403200,-0.350520,-0.299720*
1,1,0.403200,0.350520,-0.299720*
1,1,0.403200,0.350520,0.299720*
%
%AMD21*
4,1,8,0.459740,1.000760,-0.459740,1.000760,-0.675640,0.784860,-0.675640,-0.784860,-0.459740,-1.000760,0.459740,-1.000760,0.675640,-0.784860,0.675640,0.784860,0.459740,1.000760,0.0*
1,1,0.430000,0.459740,0.784860*
1,1,0.430000,-0.459740,0.784860*
1,1,0.430000,-0.459740,-0.784860*
1,1,0.430000,0.459740,-0.784860*
%
%ADD17C,4.099992*%
G04~CAMADD=18~8~0.0~0.0~531.5~787.4~84.6~0.0~15~0.0~0.0~0.0~0.0~0~0.0~0.0~0.0~0.0~0~0.0~0.0~0.0~90.0~788.0~532.0*
%ADD18D18*%
G04~CAMADD=19~8~0.0~0.0~395.0~434.3~79.4~0.0~15~0.0~0.0~0.0~0.0~0~0.0~0.0~0.0~0.0~0~0.0~0.0~0.0~0.0~395.0~434.3*
%ADD19D19*%
G04~CAMADD=20~8~0.0~0.0~395.0~434.3~79.4~0.0~15~0.0~0.0~0.0~0.0~0~0.0~0.0~0.0~0.0~0~0.0~0.0~0.0~90.0~434.0~394.0*
%ADD20D20*%
G04~CAMADD=21~8~0.0~0.0~531.5~787.4~84.6~0.0~15~0.0~0.0~0.0~0.0~0~0.0~0.0~0.0~0.0~0~0.0~0.0~0.0~0.0~531.5~787.4*
%ADD21D21*%
%ADD22O,1.113198X3.153194*%
%ADD23C,1.403197*%
%ADD24C,4.703191*%
%LNled_pd_lkw_wh_3000030_(4f00221l_7p00491a)-1*%
%LPD*%
G36*
X03004436Y0162677D02*
X02978436D01*
Y0164277*
X03004436*
Y0162677*
G37*
G36*
X02906565D02*
X02880564D01*
Y0164277*
X02906565*
Y0162677*
G37*
G36*
X01936043D02*
X01910043D01*
Y0164277*
X01936043*
Y0162677*
G37*
G36*
X03671064Y0160727D02*
X03655064D01*
Y0163327*
X03671064*
Y0160727*
G37*
G36*
X03642064D02*
X03626064D01*
Y0163327*
X03642064*
Y0160727*
G37*
G36*
X02258936D02*
X02242936D01*
Y0163327*
X02258936*
Y0160727*
G37*
G36*
X02229936D02*
X02213936D01*
Y0163327*
X02229936*
Y0160727*
G37*
G36*
X01192499Y01602271D02*
X01176499D01*
Y01628271*
X01192499*
Y01602271*
G37*
G36*
X01163499D02*
X01147499D01*
Y01628271*
X01163499*
Y01602271*
G37*
G36*
X03004436Y0159777D02*
X02978436D01*
Y0161377*
X03004436*
Y0159777*
G37*
G36*
X02906565D02*
X02880564D01*
Y0161377*
X02906565*
Y0159777*
G37*
G36*
X01936043D02*
X01910043D01*
Y0161377*
X01936043*
Y0159777*
G37*
G36*
X002175Y01592271D02*
X002015D01*
Y01618271*
X002175*
Y01592271*
G37*
G36*
X001885D02*
X001725D01*
Y01618271*
X001885*
Y01592271*
G37*
G36*
X01868797Y0154677D02*
X01842797D01*
Y0156277*
X01868797*
Y0154677*
G37*
G36*
Y0151777D02*
X01842797D01*
Y0153377*
X01868797*
Y0151777*
G37*
G36*
X03027306Y0151677D02*
X03001306D01*
Y0153277*
X03027306*
Y0151677*
G37*
G36*
X02883001D02*
X02857001D01*
Y0153277*
X02883001*
Y0151677*
G37*
G36*
X03647501Y0149727D02*
X036315D01*
Y0152327*
X03647501*
Y0149727*
G37*
G36*
X03618501D02*
X03602501D01*
Y0152327*
X03618501*
Y0149727*
G37*
G36*
X02281806D02*
X02265807D01*
Y0152327*
X02281806*
Y0149727*
G37*
G36*
X02252806D02*
X02236806D01*
Y0152327*
X02252806*
Y0149727*
G37*
G36*
X01192502D02*
X01176502D01*
Y0152327*
X01192502*
Y0149727*
G37*
G36*
X01163502D02*
X01147502D01*
Y0152327*
X01163502*
Y0149727*
G37*
G36*
X002175Y01492271D02*
X002015D01*
Y01518272*
X002175*
Y01492271*
G37*
G36*
X001885D02*
X001725D01*
Y01518272*
X001885*
Y01492271*
G37*
G36*
X03027306Y0148777D02*
X03001306D01*
Y0150377*
X03027306*
Y0148777*
G37*
G36*
X02883001D02*
X02857001D01*
Y0150377*
X02883001*
Y0148777*
G37*
G36*
X01801499Y01469999D02*
X01775499D01*
Y01485999*
X01801499*
Y01469999*
G37*
G36*
Y01440999D02*
X01775499D01*
Y01456999*
X01801499*
Y01440999*
G37*
G36*
X03048Y01411772D02*
X03021999D01*
Y01427772*
X03048*
Y01411772*
G37*
G36*
X02861863D02*
X02835863D01*
Y01427772*
X02861863*
Y01411772*
G37*
G36*
X0362636Y01392272D02*
X0361036D01*
Y01418272*
X0362636*
Y01392272*
G37*
G36*
X0359736D02*
X0358136D01*
Y01418272*
X0359736*
Y01392272*
G37*
G36*
X0230364D02*
X0228764D01*
Y01418272*
X0230364*
Y01392272*
G37*
G36*
X0227464D02*
X0225864D01*
Y01418272*
X0227464*
Y01392272*
G37*
G36*
X01192499D02*
X01176499D01*
Y01418272*
X01192499*
Y01392272*
G37*
G36*
X01163499D02*
X01147499D01*
Y01418272*
X01163499*
Y01392272*
G37*
G36*
X002175D02*
X002015D01*
Y01418272*
X002175*
Y01392272*
G37*
G36*
X001885D02*
X001725D01*
Y01418272*
X001885*
Y01392272*
G37*
G36*
X01737999Y01391167D02*
X01711999D01*
Y01407167*
X01737999*
Y01391167*
G37*
G36*
X03048Y01382772D02*
X03021999D01*
Y01398772*
X03048*
Y01382772*
G37*
G36*
X02861863D02*
X02835863D01*
Y01398772*
X02861863*
Y01382772*
G37*
G36*
X01737999Y01362167D02*
X01711999D01*
Y01378167*
X01737999*
Y01362167*
G37*
G36*
X01671261Y01311769D02*
X01645261D01*
Y01327769*
X01671261*
Y01311769*
G37*
G36*
X03604529Y01287272D02*
X03588529D01*
Y01313271*
X03604529*
Y01287272*
G37*
G36*
X03575529D02*
X03559529D01*
Y01313271*
X03575529*
Y01287272*
G37*
G36*
X03080471D02*
X03064471D01*
Y01313271*
X03080471*
Y01287272*
G37*
G36*
X03051471D02*
X03035471D01*
Y01313271*
X03051471*
Y01287272*
G37*
G36*
X02849529D02*
X02833529D01*
Y01313271*
X02849529*
Y01287272*
G37*
G36*
X02820529D02*
X02804529D01*
Y01313271*
X02820529*
Y01287272*
G37*
G36*
X02325471D02*
X02309471D01*
Y01313271*
X02325471*
Y01287272*
G37*
G36*
X02296471D02*
X02280471D01*
Y01313271*
X02296471*
Y01287272*
G37*
G36*
X01192499D02*
X01176499D01*
Y01313271*
X01192499*
Y01287272*
G37*
G36*
X01163499D02*
X01147499D01*
Y01313271*
X01163499*
Y01287272*
G37*
G36*
X002175D02*
X002015D01*
Y01313271*
X002175*
Y01287272*
G37*
G36*
X001885D02*
X001725D01*
Y01313271*
X001885*
Y01287272*
G37*
G36*
X01671261Y01282769D02*
X01645261D01*
Y01298769*
X01671261*
Y01282769*
G37*
G36*
X01604014Y0123177D02*
X01578014D01*
Y0124777*
X01604014*
Y0123177*
G37*
G36*
Y0120277D02*
X01578014D01*
Y0121877*
X01604014*
Y0120277*
G37*
G36*
X03582698Y0118227D02*
X03566698D01*
Y0120827*
X03582698*
Y0118227*
G37*
G36*
X03553698D02*
X03537698D01*
Y0120827*
X03553698*
Y0118227*
G37*
G36*
X03102302D02*
X03086302D01*
Y0120827*
X03102302*
Y0118227*
G37*
G36*
X03073302D02*
X03057302D01*
Y0120827*
X03073302*
Y0118227*
G37*
G36*
X028275D02*
X028115D01*
Y0120827*
X028275*
Y0118227*
G37*
G36*
X027985D02*
X027825D01*
Y0120827*
X027985*
Y0118227*
G37*
G36*
X02347303D02*
X02331303D01*
Y0120827*
X02347303*
Y0118227*
G37*
G36*
X02318303D02*
X02302303D01*
Y0120827*
X02318303*
Y0118227*
G37*
G36*
X01192499D02*
X01176499D01*
Y0120827*
X01192499*
Y0118227*
G37*
G36*
X01163499D02*
X01147499D01*
Y0120827*
X01163499*
Y0118227*
G37*
G36*
X002175D02*
X002015D01*
Y0120827*
X002175*
Y0118227*
G37*
G36*
X001885D02*
X001725D01*
Y0120827*
X001885*
Y0118227*
G37*
G36*
X01538Y01153235D02*
X01512D01*
Y01169235*
X01538*
Y01153235*
G37*
G36*
Y01124235D02*
X01512D01*
Y01140235*
X01538*
Y01124235*
G37*
G36*
X03560866Y01077271D02*
X03544866D01*
Y01103271*
X03560866*
Y01077271*
G37*
G36*
X03531866D02*
X03515866D01*
Y01103271*
X03531866*
Y01077271*
G37*
G36*
X03124134D02*
X03108133D01*
Y01103271*
X03124134*
Y01077271*
G37*
G36*
X03095134D02*
X03079134D01*
Y01103271*
X03095134*
Y01077271*
G37*
G36*
X02805867D02*
X02789867D01*
Y01103271*
X02805867*
Y01077271*
G37*
G36*
X02776867D02*
X02760867D01*
Y01103271*
X02776867*
Y01077271*
G37*
G36*
X02369134D02*
X02353134D01*
Y01103271*
X02369134*
Y01077271*
G37*
G36*
X02340134D02*
X02324134D01*
Y01103271*
X02340134*
Y01077271*
G37*
G36*
X01192499D02*
X01176499D01*
Y01103271*
X01192499*
Y01077271*
G37*
G36*
X01163499D02*
X01147499D01*
Y01103271*
X01163499*
Y01077271*
G37*
G36*
X002175D02*
X002015D01*
Y01103271*
X002175*
Y01077271*
G37*
G36*
X001885D02*
X001725D01*
Y01103271*
X001885*
Y01077271*
G37*
G36*
X01473001Y01075908D02*
X01447001D01*
Y01091907*
X01473001*
Y01075908*
G37*
G36*
Y01046907D02*
X01447001D01*
Y01062907*
X01473001*
Y01046907*
G37*
G36*
X01415979Y00977271D02*
X01399979D01*
Y01003271*
X01415979*
Y00977271*
G37*
G36*
X01386979D02*
X01370979D01*
Y01003271*
X01386979*
Y00977271*
G37*
G36*
X03539035Y0097227D02*
X03523035D01*
Y0099827*
X03539035*
Y0097227*
G37*
G36*
X03510035D02*
X03494035D01*
Y0099827*
X03510035*
Y0097227*
G37*
G36*
X03145965D02*
X03129965D01*
Y0099827*
X03145965*
Y0097227*
G37*
G36*
X03116965D02*
X03100965D01*
Y0099827*
X03116965*
Y0097227*
G37*
G36*
X02784035D02*
X02768035D01*
Y0099827*
X02784035*
Y0097227*
G37*
G36*
X02755035D02*
X02739035D01*
Y0099827*
X02755035*
Y0097227*
G37*
G36*
X02390965D02*
X02374965D01*
Y0099827*
X02390965*
Y0097227*
G37*
G36*
X02361965D02*
X02345965D01*
Y0099827*
X02361965*
Y0097227*
G37*
G36*
X01192499D02*
X01176499D01*
Y0099827*
X01192499*
Y0097227*
G37*
G36*
X01163499D02*
X01147499D01*
Y0099827*
X01163499*
Y0097227*
G37*
G36*
X002175D02*
X002015D01*
Y0099827*
X002175*
Y0097227*
G37*
G36*
X001885D02*
X001725D01*
Y0099827*
X001885*
Y0097227*
G37*
G36*
X01532501Y00967271D02*
X01516501D01*
Y00993271*
X01532501*
Y00967271*
G37*
G36*
X01503501D02*
X01487501D01*
Y00993271*
X01503501*
Y00967271*
G37*
G36*
X01348732Y00897271D02*
X01332732D01*
Y00923271*
X01348732*
Y00897271*
G37*
G36*
X01319732D02*
X01303732D01*
Y00923271*
X01319732*
Y00897271*
G37*
G36*
X015875Y00876022D02*
X015715D01*
Y00902022*
X015875*
Y00876022*
G37*
G36*
X015585D02*
X015425D01*
Y00902022*
X015585*
Y00876022*
G37*
G36*
X03517204Y00867271D02*
X03501204D01*
Y00893271*
X03517204*
Y00867271*
G37*
G36*
X03488204D02*
X03472204D01*
Y00893271*
X03488204*
Y00867271*
G37*
G36*
X03167796D02*
X03151796D01*
Y00893271*
X03167796*
Y00867271*
G37*
G36*
X03138796D02*
X03122796D01*
Y00893271*
X03138796*
Y00867271*
G37*
G36*
X02762204D02*
X02746204D01*
Y00893271*
X02762204*
Y00867271*
G37*
G36*
X02733204D02*
X02717204D01*
Y00893271*
X02733204*
Y00867271*
G37*
G36*
X02412502D02*
X02396502D01*
Y00893271*
X02412502*
Y00867271*
G37*
G36*
X02383502D02*
X02367502D01*
Y00893271*
X02383502*
Y00867271*
G37*
G36*
X01192502D02*
X01176502D01*
Y00893271*
X01192502*
Y00867271*
G37*
G36*
X01163502D02*
X01147502D01*
Y00893271*
X01163502*
Y00867271*
G37*
G36*
X002175D02*
X002015D01*
Y00893271*
X002175*
Y00867271*
G37*
G36*
X001885D02*
X001725D01*
Y00893271*
X001885*
Y00867271*
G37*
G36*
X01272999Y00836769D02*
X01246999D01*
Y00852769*
X01272999*
Y00836769*
G37*
G36*
Y00807769D02*
X01246999D01*
Y00823769*
X01272999*
Y00807769*
G37*
G36*
X01642501Y0078477D02*
X01626501D01*
Y0081077*
X01642501*
Y0078477*
G37*
G36*
X01613501D02*
X01597501D01*
Y0081077*
X01613501*
Y0078477*
G37*
G36*
X03495373Y0076227D02*
X03479372D01*
Y0078827*
X03495373*
Y0076227*
G37*
G36*
X03466372D02*
X03450373D01*
Y0078827*
X03466372*
Y0076227*
G37*
G36*
X0318963D02*
X0317363D01*
Y0078827*
X0318963*
Y0076227*
G37*
G36*
X0316063D02*
X0314463D01*
Y0078827*
X0316063*
Y0076227*
G37*
G36*
X02740373D02*
X02724373D01*
Y0078827*
X02740373*
Y0076227*
G37*
G36*
X02711373D02*
X02695373D01*
Y0078827*
X02711373*
Y0076227*
G37*
G36*
X02434628D02*
X02418628D01*
Y0078827*
X02434628*
Y0076227*
G37*
G36*
X02405628D02*
X02389628D01*
Y0078827*
X02405628*
Y0076227*
G37*
G36*
X01192499D02*
X01176499D01*
Y0078827*
X01192499*
Y0076227*
G37*
G36*
X01163499D02*
X01147499D01*
Y0078827*
X01163499*
Y0076227*
G37*
G36*
X002175D02*
X002015D01*
Y0078827*
X002175*
Y0076227*
G37*
G36*
X001885D02*
X001725D01*
Y0078827*
X001885*
Y0076227*
G37*
G36*
X01697499Y0069352D02*
X016815D01*
Y0071952*
X01697499*
Y0069352*
G37*
G36*
X016685D02*
X01652499D01*
Y0071952*
X016685*
Y0069352*
G37*
G36*
X034725Y00657269D02*
X034565D01*
Y00683269*
X034725*
Y00657269*
G37*
G36*
X034435D02*
X034275D01*
Y00683269*
X034435*
Y00657269*
G37*
G36*
X03211461D02*
X03195461D01*
Y00683269*
X03211461*
Y00657269*
G37*
G36*
X03182461D02*
X03166461D01*
Y00683269*
X03182461*
Y00657269*
G37*
G36*
X027175D02*
X027015D01*
Y00683269*
X027175*
Y00657269*
G37*
G36*
X026885D02*
X026725D01*
Y00683269*
X026885*
Y00657269*
G37*
G36*
X02456459D02*
X02440459D01*
Y00683269*
X02456459*
Y00657269*
G37*
G36*
X02427459D02*
X02411459D01*
Y00683269*
X02427459*
Y00657269*
G37*
G36*
X01192499D02*
X01176499D01*
Y00683269*
X01192499*
Y00657269*
G37*
G36*
X01163499D02*
X01147499D01*
Y00683269*
X01163499*
Y00657269*
G37*
G36*
X002175D02*
X002015D01*
Y00683269*
X002175*
Y00657269*
G37*
G36*
X001885D02*
X001725D01*
Y00683269*
X001885*
Y00657269*
G37*
G36*
X01752501Y00602271D02*
X01736501D01*
Y00628271*
X01752501*
Y00602271*
G37*
G36*
X01723501D02*
X01707501D01*
Y00628271*
X01723501*
Y00602271*
G37*
G36*
X034525Y00552271D02*
X034365D01*
Y00578271*
X034525*
Y00552271*
G37*
G36*
X034235D02*
X034075D01*
Y00578271*
X034235*
Y00552271*
G37*
G36*
X03233293D02*
X03217293D01*
Y00578271*
X03233293*
Y00552271*
G37*
G36*
X03204293D02*
X03188293D01*
Y00578271*
X03204293*
Y00552271*
G37*
G36*
X02696707D02*
X02680708D01*
Y00578271*
X02696707*
Y00552271*
G37*
G36*
X02667707D02*
X02651707D01*
Y00578271*
X02667707*
Y00552271*
G37*
G36*
X024775D02*
X024615D01*
Y00578271*
X024775*
Y00552271*
G37*
G36*
X024485D02*
X024325D01*
Y00578271*
X024485*
Y00552271*
G37*
G36*
X01192499D02*
X01176499D01*
Y00578271*
X01192499*
Y00552271*
G37*
G36*
X01163499D02*
X01147499D01*
Y00578271*
X01163499*
Y00552271*
G37*
G36*
X002175D02*
X002015D01*
Y00578271*
X002175*
Y00552271*
G37*
G36*
X001885D02*
X001725D01*
Y00578271*
X001885*
Y00552271*
G37*
G36*
X01807499Y00511021D02*
X01791499D01*
Y00537021*
X01807499*
Y00511021*
G37*
G36*
X01778499D02*
X01762499D01*
Y00537021*
X01778499*
Y00511021*
G37*
G36*
X03420376Y0046677D02*
X03394376D01*
Y0048277*
X03420376*
Y0046677*
G37*
G36*
X03245624D02*
X03219624D01*
Y0048277*
X03245624*
Y0046677*
G37*
G36*
X02665376D02*
X02639376D01*
Y0048277*
X02665376*
Y0046677*
G37*
G36*
X02490624D02*
X02464624D01*
Y0048277*
X02490624*
Y0046677*
G37*
G36*
X01192499Y0044727D02*
X01176499D01*
Y0047327*
X01192499*
Y0044727*
G37*
G36*
X01163499D02*
X01147499D01*
Y0047327*
X01163499*
Y0044727*
G37*
G36*
X002175D02*
X002015D01*
Y0047327*
X002175*
Y0044727*
G37*
G36*
X001885D02*
X001725D01*
Y0047327*
X001885*
Y0044727*
G37*
G36*
X03420376Y0043777D02*
X03394376D01*
Y00453771*
X03420376*
Y0043777*
G37*
G36*
X03245624D02*
X03219624D01*
Y00453771*
X03245624*
Y0043777*
G37*
G36*
X02665376D02*
X02639376D01*
Y00453771*
X02665376*
Y0043777*
G37*
G36*
X02490624D02*
X02464624D01*
Y00453771*
X02490624*
Y0043777*
G37*
G36*
X018625Y00419769D02*
X018465D01*
Y0044577*
X018625*
Y00419769*
G37*
G36*
X018335D02*
X018175D01*
Y0044577*
X018335*
Y00419769*
G37*
G36*
X03398545Y00361771D02*
X03372545D01*
Y00377771*
X03398545*
Y00361771*
G37*
G36*
X03267456D02*
X03241455D01*
Y00377771*
X03267456*
Y00361771*
G37*
G36*
X02643545D02*
X02617545D01*
Y00377771*
X02643545*
Y00361771*
G37*
G36*
X02512456D02*
X02486455D01*
Y00377771*
X02512456*
Y00361771*
G37*
G36*
X01192499Y00342271D02*
X01176499D01*
Y00368271*
X01192499*
Y00342271*
G37*
G36*
X01163499D02*
X01147499D01*
Y00368271*
X01163499*
Y00342271*
G37*
G36*
X002175D02*
X002015D01*
Y00368271*
X002175*
Y00342271*
G37*
G36*
X001885D02*
X001725D01*
Y00368271*
X001885*
Y00342271*
G37*
G36*
X03398545Y00332771D02*
X03372545D01*
Y00348771*
X03398545*
Y00332771*
G37*
G36*
X03267456D02*
X03241455D01*
Y00348771*
X03267456*
Y00332771*
G37*
G36*
X02643545D02*
X02617545D01*
Y00348771*
X02643545*
Y00332771*
G37*
G36*
X02512456D02*
X02486455D01*
Y00348771*
X02512456*
Y00332771*
G37*
G36*
X01917499Y0032852D02*
X01901499D01*
Y0035452*
X01917499*
Y0032852*
G37*
G36*
X01888499D02*
X01872499D01*
Y0035452*
X01888499*
Y0032852*
G37*
G36*
X03376713Y0025677D02*
X03350713D01*
Y0027277*
X03376713*
Y0025677*
G37*
G36*
X03289287D02*
X03263287D01*
Y0027277*
X03289287*
Y0025677*
G37*
G36*
X02621713D02*
X02595714D01*
Y0027277*
X02621713*
Y0025677*
G37*
G36*
X02533002D02*
X02507002D01*
Y0027277*
X02533002*
Y0025677*
G37*
G36*
X00838001D02*
X00812001D01*
Y0027277*
X00838001*
Y0025677*
G37*
G36*
X00733D02*
X00707D01*
Y0027277*
X00733*
Y0025677*
G37*
G36*
X00627999D02*
X00601999D01*
Y0027277*
X00627999*
Y0025677*
G37*
G36*
X00523001D02*
X00497D01*
Y0027277*
X00523001*
Y0025677*
G37*
G36*
X00417999D02*
X00392D01*
Y0027277*
X00417999*
Y0025677*
G37*
G36*
X00313001D02*
X00287001D01*
Y0027277*
X00313001*
Y0025677*
G37*
G36*
X00208D02*
X00182D01*
Y0027277*
X00208*
Y0025677*
G37*
G36*
X019725Y0023727D02*
X019565D01*
Y00263271*
X019725*
Y0023727*
G37*
G36*
X019435D02*
X019275D01*
Y00263271*
X019435*
Y0023727*
G37*
G36*
X01192499D02*
X01176499D01*
Y00263271*
X01192499*
Y0023727*
G37*
G36*
X01163499D02*
X01147499D01*
Y00263271*
X01163499*
Y0023727*
G37*
G36*
X03376713Y0022777D02*
X03350713D01*
Y0024377*
X03376713*
Y0022777*
G37*
G36*
X03289287D02*
X03263287D01*
Y0024377*
X03289287*
Y0022777*
G37*
G36*
X02621713D02*
X02595714D01*
Y0024377*
X02621713*
Y0022777*
G37*
G36*
X02533002D02*
X02507002D01*
Y0024377*
X02533002*
Y0022777*
G37*
G36*
X00838001D02*
X00812001D01*
Y0024377*
X00838001*
Y0022777*
G37*
G36*
X00733D02*
X00707D01*
Y0024377*
X00733*
Y0022777*
G37*
G36*
X00627999D02*
X00601999D01*
Y0024377*
X00627999*
Y0022777*
G37*
G36*
X00523001D02*
X00497D01*
Y0024377*
X00523001*
Y0022777*
G37*
G36*
X00417999D02*
X00392D01*
Y0024377*
X00417999*
Y0022777*
G37*
G36*
X00313001D02*
X00287001D01*
Y0024377*
X00313001*
Y0022777*
G37*
G36*
X00208D02*
X00182D01*
Y0024377*
X00208*
Y0022777*
G37*
G54D17*
X00055749Y01724999D03*
X03814499Y00184999D03*
X00087249Y00077999D03*
G54D18*
X03468113Y01421959D03*
Y01391958D03*
X03391499Y01111499D03*
Y01081499D03*
X03357598Y00503249D03*
Y00473249D03*
X03373337Y00901522D03*
Y00871522D03*
X03266502Y00901522D03*
Y00871522D03*
X03225121Y01216499D03*
Y01186499D03*
X03132193Y0153152D03*
Y01501521D03*
X02753145Y01501499D03*
Y01531499D03*
X02665249Y01216499D03*
Y01186499D03*
X02596999Y00871499D03*
Y00901499D03*
X03320551Y00389249D03*
Y00419249D03*
X03284249Y00503249D03*
Y00473249D03*
X02595249D03*
Y00503249D03*
X02567499Y00389249D03*
Y00419249D03*
X02538128Y0047352D03*
Y0050352D03*
X02532948Y00767499D03*
Y00797499D03*
X02493455Y01081521D03*
Y01111521D03*
X02427499Y01396499D03*
Y01426499D03*
G54D19*
X03224475Y00890272D03*
X03233975Y00870272D03*
X03214975D03*
X01724999Y01501742D03*
X01734499Y01481742D03*
X01715499D03*
X01327283Y00851553D03*
X01317783Y00871553D03*
X01336783D03*
X01326233Y00789519D03*
X01316733Y00809519D03*
X01335733D03*
X00119998Y01623499D03*
X00129498Y01603499D03*
X00110498D03*
X02613748Y00680249D03*
X02623248Y00660249D03*
X02604248D03*
X01524999Y01261031D03*
X01534499Y01241031D03*
X01515499D03*
X01920847Y00422769D03*
X01939847D03*
X01930347Y00442769D03*
X01757435Y0069652D03*
X01776435D03*
X01766935Y0071652D03*
X01595485Y00971756D03*
X01614485D03*
X01604985Y00991756D03*
X00756668Y00167499D03*
X00737669D03*
X00747168Y00147499D03*
X004145Y00167499D03*
X003955D03*
X00405Y00147499D03*
X01978376Y0033152D03*
X01997376D03*
X01987876Y0035152D03*
X01813135Y00605271D03*
X01832135D03*
X01822635Y00625271D03*
X01652906Y00879022D03*
X01671906D03*
X01662406Y00899022D03*
X01778998Y01556539D03*
X01797998D03*
X01788498Y01576539D03*
X01581513Y01321292D03*
X01600514D03*
X01591014Y01341292D03*
X01515499Y01048181D03*
X01534499D03*
X01524999Y01068181D03*
X00834502Y00167499D03*
X00815502D03*
X00825002Y00147499D03*
X00519501Y00167499D03*
X00500501D03*
X00510001Y00147499D03*
X01943768Y00176811D03*
X01962768D03*
X01953268Y00196811D03*
X01867047Y00514021D03*
X01886048D03*
X01876547Y00534021D03*
X01709248Y0078777D03*
X01728248D03*
X01718748Y0080777D03*
X01846296Y01635017D03*
X01865296D03*
X01855796Y01655017D03*
X0164876Y01401307D03*
X0166776D03*
X0165826Y01421307D03*
X01450498Y01162249D03*
X01469498D03*
X01459998Y01182249D03*
X01183Y00187249D03*
X01164D03*
X011735Y00167249D03*
X006245Y00167499D03*
X006055D03*
X00615Y00147499D03*
X002385Y00167499D03*
X002195D03*
X00229Y00147499D03*
X03521246Y0150027D03*
X03540246D03*
X03530746Y0152027D03*
X03454998Y01185249D03*
X03473998D03*
X03464498Y01205249D03*
X03406998Y00871249D03*
X03425998D03*
X03416498Y00891249D03*
X03349119Y00555271D03*
X03368119D03*
X0335862Y00575271D03*
X03423174Y0024027D03*
X03442175D03*
X03432674Y0026027D03*
X03155248Y00450249D03*
X03174248D03*
X03164748Y00470249D03*
X03272089Y00765271D03*
X03291088D03*
X03281588Y00785271D03*
X0319829Y01080271D03*
X03217291D03*
X0320779Y01100271D03*
X03103196Y01395272D03*
X03122196D03*
X03112696Y01415272D03*
X02830091Y0163027D03*
X02811092D03*
X02820591Y0161027D03*
X02719954Y01290271D03*
X02738953D03*
X02729454Y01310271D03*
X02652745Y0097527D03*
X02671745D03*
X02662245Y0099527D03*
X0270013Y00365271D03*
X0268113D03*
X0269063Y00345271D03*
X02429534D03*
X02448534D03*
X02439035Y00365271D03*
X02506748Y00660249D03*
X02525748D03*
X02516248Y00680249D03*
X02459901Y0097527D03*
X02478901D03*
X02469401Y0099527D03*
X02396678Y01290271D03*
X02415678D03*
X02406178Y01310271D03*
X02333693Y0161027D03*
X02352693D03*
X02343193Y0163027D03*
X03543808Y0161027D03*
X03562807D03*
X03553306Y0163027D03*
X03474954Y01290271D03*
X03493954D03*
X03484454Y01310271D03*
X03400806Y0097527D03*
X03419806D03*
X03410305Y0099527D03*
X03353292Y00660269D03*
X03372291D03*
X03362792Y00680269D03*
X03467239Y00365271D03*
X03448239D03*
X03457739Y00345271D03*
X03178498Y00343499D03*
X03197498D03*
X03187998Y00363499D03*
X03272089Y00660269D03*
X03291088D03*
X03281588Y00680269D03*
X03226203Y0097527D03*
X03245203D03*
X03235703Y0099527D03*
X03144633Y01290271D03*
X03163633D03*
X03154133Y01310271D03*
X03053855Y0161027D03*
X03072855D03*
X03063355Y0163027D03*
X0277895Y01415272D03*
X0275995D03*
X0276945Y01395272D03*
X02676248Y01080249D03*
X02695248D03*
X02685748Y01100249D03*
X02634658Y00766249D03*
X02653657D03*
X02644158Y00786249D03*
X02721176Y0047027D03*
X02702176D03*
X02711677Y0045027D03*
X02447412Y0024027D03*
X02466412D03*
X02456912Y0026027D03*
X02517248Y00555249D03*
X02536248D03*
X02526748Y00575249D03*
X02480362Y00870272D03*
X02499362D03*
X02489862Y00890272D03*
X02417179Y0118527D03*
X02436179D03*
X02426679Y0120527D03*
X02354784Y0150027D03*
X02373784D03*
X02364284Y0152027D03*
X03501068Y01390708D03*
X03520068D03*
X03510568Y01410708D03*
X03424686Y01080271D03*
X03443686D03*
X03434186Y01100271D03*
X03353292Y00765271D03*
X03372291D03*
X03362792Y00785271D03*
X03492928Y0047027D03*
X03473928D03*
X03483428Y0045027D03*
X03193954Y0024027D03*
X03212954D03*
X03203454Y0026027D03*
X03271998Y00555249D03*
X03290998D03*
X03281498Y00575249D03*
X03171452Y0118527D03*
X03190452D03*
X03180952Y0120527D03*
X03079777Y0150027D03*
X03098777D03*
X03089277Y0152027D03*
X0280275Y01520249D03*
X0278375D03*
X0279325Y01500249D03*
X02698686Y0118527D03*
X02717686D03*
X02708186Y0120527D03*
X02649206Y00890272D03*
X02630205D03*
X02639705Y00870272D03*
X02593248Y00555249D03*
X02612248D03*
X02602748Y00575249D03*
X02682524Y0026027D03*
X02663524D03*
X02673024Y0024027D03*
X02403931Y0045027D03*
X02422931D03*
X02413431Y0047027D03*
X02480362Y00765249D03*
X02499362D03*
X02489862Y00785249D03*
X02440354Y01080271D03*
X02459355D03*
X02449854Y01100271D03*
X02375285Y01395272D03*
X02394285D03*
X02384785Y01415272D03*
G54D20*
X01071018Y0035527D03*
X01091018Y0036477D03*
Y0034577D03*
X01385249Y01075749D03*
Y01056749D03*
X01405249Y01066249D03*
X01090811Y01395771D03*
Y01414771D03*
X01070811Y01405271D03*
X01090811Y0108077D03*
Y0109977D03*
X01070811Y0109027D03*
X01090811Y00870771D03*
Y00889771D03*
X01070811Y00880271D03*
X01090811Y00663295D03*
Y00682295D03*
X01070811Y00672795D03*
X00130328Y00397561D03*
Y00416561D03*
X00110328Y00407061D03*
X00130328Y0071624D03*
Y0073524D03*
X00110328Y0072574D03*
X00130328Y01028608D03*
Y01047608D03*
X00110328Y01038109D03*
X00130328Y01340211D03*
Y01359211D03*
X00110328Y01349711D03*
X01090811Y0150077D03*
Y0151977D03*
X01070811Y0151027D03*
X01090811Y01185769D03*
Y01204769D03*
X01070811Y01195269D03*
X01090811Y00975769D03*
Y00994769D03*
X01070811Y00985269D03*
X01090811Y0076577D03*
Y0078477D03*
X01070811Y0077527D03*
X01091018Y00450769D03*
Y00469769D03*
X01071018Y00460269D03*
X00130328Y00240769D03*
Y00259769D03*
X00110328Y00250269D03*
X00130328Y00610389D03*
Y00629389D03*
X00110328Y00619889D03*
X00130328Y00922759D03*
Y00941759D03*
X00110328Y00932259D03*
X00130328Y01236996D03*
Y01255996D03*
X00110328Y01246496D03*
X00130328Y01546694D03*
Y01565694D03*
X00110328Y01556194D03*
X01090811Y0160577D03*
Y01624771D03*
X01070811Y0161527D03*
X01090811Y0129077D03*
Y0130977D03*
X01070811Y0130027D03*
X01091018Y0055577D03*
Y0057477D03*
X01071018Y0056527D03*
X00130328Y00503342D03*
Y00522342D03*
X00110328Y00512842D03*
X00130328Y00817475D03*
Y00836476D03*
X00110328Y00826975D03*
X00130328Y01133326D03*
Y01152326D03*
X00110328Y01142826D03*
X00130328Y01449157D03*
Y01468157D03*
X00110328Y01458657D03*
G54D21*
X00315001Y00156486D03*
X00285001D03*
X00695665Y00157499D03*
X00665665D03*
X01869999Y00250249D03*
X01839999D03*
X01707823Y00524021D03*
X01677823D03*
X0154472Y00799519D03*
X0151472D03*
X01800749Y01635499D03*
X01770749D03*
X01597999Y01401499D03*
X01567999D03*
X01402749Y01161999D03*
X01372749D03*
X01256665Y01615271D03*
X01286665D03*
X01254261Y01300271D03*
X01284261D03*
X01395749Y00847792D03*
X01425749D03*
X01395749Y00786999D03*
X01425749D03*
X0124642Y00565271D03*
X0127642D03*
X01246419Y0025027D03*
X01276419D03*
X00113789Y0046027D03*
X00083789D03*
X00113789Y00775271D03*
X00083789D03*
X00113789Y01094719D03*
X00083789D03*
X00113785Y01405272D03*
X00083785D03*
X03517749Y0161027D03*
X03487749D03*
X03457894D03*
X03427894D03*
G54D22*
X00594349Y01257199D03*
X00607049D03*
X00632449D03*
X00619749D03*
G54D23*
X00594349Y01325499D03*
X00632449D03*
X00619749D03*
X00607049D03*
G54D24*
X03299999Y00049999D03*
X02299999D03*
X01299999D03*
X00299999D03*
X03799999Y01849999D03*
X02799999D03*
X01799999D03*
X00799999D03*
X00049999D03*
M02*