%FSTAX44Y44*%
%MOMM*%
%SFA1B1*%

%IPPOS*%
%AMD28*
4,1,8,-0.599440,-1.300480,0.599440,-1.300480,0.749300,-1.150620,0.749300,1.150620,0.599440,1.300480,-0.599440,1.300480,-0.749300,1.150620,-0.749300,-1.150620,-0.599440,-1.300480,0.0*
1,1,0.300000,-0.599440,-1.150620*
1,1,0.300000,0.599440,-1.150620*
1,1,0.300000,0.599440,1.150620*
1,1,0.300000,-0.599440,1.150620*
%
%AMD29*
4,1,8,-0.899160,0.459740,-0.899160,-0.459740,-0.784860,-0.574040,0.784860,-0.574040,0.899160,-0.459740,0.899160,0.459740,0.784860,0.574040,-0.784860,0.574040,-0.899160,0.459740,0.0*
1,1,0.230000,-0.784860,0.459740*
1,1,0.230000,-0.784860,-0.459740*
1,1,0.230000,0.784860,-0.459740*
1,1,0.230000,0.784860,0.459740*
%
%AMD30*
4,1,8,-1.300480,0.599440,-1.300480,-0.599440,-1.150620,-0.749300,1.150620,-0.749300,1.300480,-0.599440,1.300480,0.599440,1.150620,0.749300,-1.150620,0.749300,-1.300480,0.599440,0.0*
1,1,0.300000,-1.150620,0.599440*
1,1,0.300000,-1.150620,-0.599440*
1,1,0.300000,1.150620,-0.599440*
1,1,0.300000,1.150620,0.599440*
%
%AMD31*
4,1,8,0.299720,0.449580,-0.299720,0.449580,-0.398780,0.350520,-0.398780,-0.350520,-0.299720,-0.449580,0.299720,-0.449580,0.398780,-0.350520,0.398780,0.350520,0.299720,0.449580,0.0*
1,1,0.200000,0.299720,0.350520*
1,1,0.200000,-0.299720,0.350520*
1,1,0.200000,-0.299720,-0.350520*
1,1,0.200000,0.299720,-0.350520*
%
%AMD32*
4,1,8,-0.449580,0.299720,-0.449580,-0.299720,-0.350520,-0.398780,0.350520,-0.398780,0.449580,-0.299720,0.449580,0.299720,0.350520,0.398780,-0.350520,0.398780,-0.449580,0.299720,0.0*
1,1,0.200000,-0.350520,0.299720*
1,1,0.200000,-0.350520,-0.299720*
1,1,0.200000,0.350520,-0.299720*
1,1,0.200000,0.350520,0.299720*
%
%AMD33*
4,1,8,0.459740,0.899160,-0.459740,0.899160,-0.574040,0.784860,-0.574040,-0.784860,-0.459740,-0.899160,0.459740,-0.899160,0.574040,-0.784860,0.574040,0.784860,0.459740,0.899160,0.0*
1,1,0.230000,0.459740,0.784860*
1,1,0.230000,-0.459740,0.784860*
1,1,0.230000,-0.459740,-0.784860*
1,1,0.230000,0.459740,-0.784860*
%
%ADD25C,0.649999*%
%ADD26C,0.050000*%
%ADD27C,1.499997*%
G04~CAMADD=28~8~0.0~0.0~590.6~1023.6~59.1~0.0~15~0.0~0.0~0.0~0.0~0~0.0~0.0~0.0~0.0~0~0.0~0.0~0.0~180.0~590.0~1024.0*
%ADD28D28*%
G04~CAMADD=29~8~0.0~0.0~452.8~708.7~45.3~0.0~15~0.0~0.0~0.0~0.0~0~0.0~0.0~0.0~0.0~0~0.0~0.0~0.0~90.0~708.0~452.0*
%ADD29D29*%
G04~CAMADD=30~8~0.0~0.0~590.6~1023.6~59.1~0.0~15~0.0~0.0~0.0~0.0~0~0.0~0.0~0.0~0.0~0~0.0~0.0~0.0~90.0~1024.0~590.0*
%ADD30D30*%
G04~CAMADD=31~8~0.0~0.0~315.0~354.3~39.4~0.0~15~0.0~0.0~0.0~0.0~0~0.0~0.0~0.0~0.0~0~0.0~0.0~0.0~0.0~315.0~354.3*
%ADD31D31*%
G04~CAMADD=32~8~0.0~0.0~315.0~354.3~39.4~0.0~15~0.0~0.0~0.0~0.0~0~0.0~0.0~0.0~0.0~0~0.0~0.0~0.0~90.0~354.0~314.0*
%ADD32D32*%
G04~CAMADD=33~8~0.0~0.0~452.8~708.7~45.3~0.0~15~0.0~0.0~0.0~0.0~0~0.0~0.0~0.0~0.0~0~0.0~0.0~0.0~0.0~452.8~708.7*
%ADD33D33*%
%ADD34O,0.909998X2.949994*%
%ADD35C,0.100000*%
%ADD36C,1.799996*%
%ADD37C,0.499999*%
%ADD38C,0.699999*%
%ADD39C,1.599997*%
%ADD40C,0.799998*%
%ADD41C,1.199998*%
%ADD42C,0.599999*%
%ADD43C,0.250000*%
%ADD44C,0.253999*%
%ADD45C,1.199998*%
%ADD46C,4.499991*%
%LNled_pd_lkw_wh_3000030_(4f00221l_7p00491a)-1*%
%LPD*%
G36*
X01948043Y0166527D02*
Y0163027D01*
X01945543Y0162777*
X01900543*
X01898043Y0163027*
Y0166527*
X01900543Y0166777*
X01945543*
X01948043Y0166527*
G37*
G36*
X01217499Y01637771D02*
Y01592771D01*
X01214999Y01590271*
X01179999*
X01177499Y01592771*
Y01637771*
X01179999Y01640271*
X01214999*
X01217499Y01637771*
G37*
G36*
X01162499D02*
Y01592771D01*
X01159999Y01590271*
X01124999*
X01122499Y01592771*
Y01637771*
X01124999Y01640271*
X01159999*
X01162499Y01637771*
G37*
G36*
X002425Y01627771D02*
Y01582771D01*
X0024Y01580271*
X00205*
X002025Y01582771*
Y01627771*
X00205Y01630271*
X0024*
X002425Y01627771*
G37*
G36*
X001875D02*
Y01582771D01*
X00185Y01580271*
X0015*
X001475Y01582771*
Y01627771*
X0015Y01630271*
X00185*
X001875Y01627771*
G37*
G36*
X01948043Y0161027D02*
Y0157527D01*
X01945543Y0157277*
X01900543*
X01898043Y0157527*
Y0161027*
X01900543Y0161277*
X01945543*
X01948043Y0161027*
G37*
G36*
X01880797Y0158527D02*
Y0155027D01*
X01878297Y0154777*
X01833297*
X01830797Y0155027*
Y0158527*
X01833297Y0158777*
X01878297*
X01880797Y0158527*
G37*
G36*
Y0153027D02*
Y0149527D01*
X01878297Y0149277*
X01833297*
X01830797Y0149527*
Y0153027*
X01833297Y0153277*
X01878297*
X01880797Y0153027*
G37*
G36*
X01217502Y0153277D02*
Y0148777D01*
X01215002Y0148527*
X01180002*
X01177502Y0148777*
Y0153277*
X01180002Y0153527*
X01215002*
X01217502Y0153277*
G37*
G36*
X01162502D02*
Y0148777D01*
X01160002Y0148527*
X01125002*
X01122502Y0148777*
Y0153277*
X01125002Y0153527*
X01160002*
X01162502Y0153277*
G37*
G36*
X002425Y01527772D02*
Y01482772D01*
X0024Y01480272*
X00205*
X002025Y01482772*
Y01527772*
X00205Y01530272*
X0024*
X002425Y01527772*
G37*
G36*
X001875D02*
Y01482772D01*
X00185Y01480272*
X0015*
X001475Y01482772*
Y01527772*
X0015Y01530272*
X00185*
X001875Y01527772*
G37*
G36*
X01813499Y01508499D02*
Y01473499D01*
X01810999Y01470999*
X01765999*
X01763499Y01473499*
Y01508499*
X01765999Y01510999*
X01810999*
X01813499Y01508499*
G37*
G36*
Y01453499D02*
Y01418499D01*
X01810999Y01415999*
X01765999*
X01763499Y01418499*
Y01453499*
X01765999Y01455999*
X01810999*
X01813499Y01453499*
G37*
G36*
X01749999Y01429667D02*
Y01394667D01*
X01747499Y01392167*
X01702499*
X01699999Y01394667*
Y01429667*
X01702499Y01432167*
X01747499*
X01749999Y01429667*
G37*
G36*
X01217499Y01427772D02*
Y01382772D01*
X01214999Y01380272*
X01179999*
X01177499Y01382772*
Y01427772*
X01179999Y01430272*
X01214999*
X01217499Y01427772*
G37*
G36*
X01162499D02*
Y01382772D01*
X01159999Y01380272*
X01124999*
X01122499Y01382772*
Y01427772*
X01124999Y01430272*
X01159999*
X01162499Y01427772*
G37*
G36*
X002425D02*
Y01382772D01*
X0024Y01380272*
X00205*
X002025Y01382772*
Y01427772*
X00205Y01430272*
X0024*
X002425Y01427772*
G37*
G36*
X001875D02*
Y01382772D01*
X00185Y01380272*
X0015*
X001475Y01382772*
Y01427772*
X0015Y01430272*
X00185*
X001875Y01427772*
G37*
G36*
X01749999Y01374667D02*
Y01339667D01*
X01747499Y01337167*
X01702499*
X01699999Y01339667*
Y01374667*
X01702499Y01377167*
X01747499*
X01749999Y01374667*
G37*
G36*
X01683261Y01350269D02*
Y01315269D01*
X01680761Y01312769*
X01635761*
X01633261Y01315269*
Y01350269*
X01635761Y01352769*
X01680761*
X01683261Y01350269*
G37*
G36*
X01217499Y01322771D02*
Y01277771D01*
X01214999Y01275271*
X01179999*
X01177499Y01277771*
Y01322771*
X01179999Y01325271*
X01214999*
X01217499Y01322771*
G37*
G36*
X01162499D02*
Y01277771D01*
X01159999Y01275271*
X01124999*
X01122499Y01277771*
Y01322771*
X01124999Y01325271*
X01159999*
X01162499Y01322771*
G37*
G36*
X002425D02*
Y01277771D01*
X0024Y01275271*
X00205*
X002025Y01277771*
Y01322771*
X00205Y01325271*
X0024*
X002425Y01322771*
G37*
G36*
X001875D02*
Y01277771D01*
X00185Y01275271*
X0015*
X001475Y01277771*
Y01322771*
X0015Y01325271*
X00185*
X001875Y01322771*
G37*
G36*
X01683261Y01295269D02*
Y01260269D01*
X01680761Y01257769*
X01635761*
X01633261Y01260269*
Y01295269*
X01635761Y01297769*
X01680761*
X01683261Y01295269*
G37*
G36*
X01616014Y0127027D02*
Y0123527D01*
X01613514Y0123277*
X01568514*
X01566014Y0123527*
Y0127027*
X01568514Y0127277*
X01613514*
X01616014Y0127027*
G37*
G36*
Y0121527D02*
Y0118027D01*
X01613514Y0117777*
X01568514*
X01566014Y0118027*
Y0121527*
X01568514Y0121777*
X01613514*
X01616014Y0121527*
G37*
G36*
X01217499Y0121777D02*
Y0117277D01*
X01214999Y0117027*
X01179999*
X01177499Y0117277*
Y0121777*
X01179999Y0122027*
X01214999*
X01217499Y0121777*
G37*
G36*
X01162499D02*
Y0117277D01*
X01159999Y0117027*
X01124999*
X01122499Y0117277*
Y0121777*
X01124999Y0122027*
X01159999*
X01162499Y0121777*
G37*
G36*
X002425D02*
Y0117277D01*
X0024Y0117027*
X00205*
X002025Y0117277*
Y0121777*
X00205Y0122027*
X0024*
X002425Y0121777*
G37*
G36*
X001875D02*
Y0117277D01*
X00185Y0117027*
X0015*
X001475Y0117277*
Y0121777*
X0015Y0122027*
X00185*
X001875Y0121777*
G37*
G36*
X0155Y01191735D02*
Y01156735D01*
X015475Y01154235*
X015025*
X015Y01156735*
Y01191735*
X015025Y01194235*
X015475*
X0155Y01191735*
G37*
G36*
X00473102Y01137664D02*
X00470087D01*
Y01132866*
X00473663*
Y0112658*
X00470087*
Y01119082*
X00463444*
Y01144226*
X00473102*
Y01137664*
G37*
G36*
X0155Y01136735D02*
Y01101735D01*
X015475Y01099235*
X015025*
X015Y01101735*
Y01136735*
X015025Y01139235*
X015475*
X0155Y01136735*
G37*
G36*
X01485001Y01114407D02*
Y01079407D01*
X01482501Y01076907*
X01437501*
X01435001Y01079407*
Y01114407*
X01437501Y01116907*
X01482501*
X01485001Y01114407*
G37*
G36*
X01217499Y01112771D02*
Y01067771D01*
X01214999Y01065271*
X01179999*
X01177499Y01067771*
Y01112771*
X01179999Y01115271*
X01214999*
X01217499Y01112771*
G37*
G36*
X01162499D02*
Y01067771D01*
X01159999Y01065271*
X01124999*
X01122499Y01067771*
Y01112771*
X01124999Y01115271*
X01159999*
X01162499Y01112771*
G37*
G36*
X002425D02*
Y01067771D01*
X0024Y01065271*
X00205*
X002025Y01067771*
Y01112771*
X00205Y01115271*
X0024*
X002425Y01112771*
G37*
G36*
X001875D02*
Y01067771D01*
X00185Y01065271*
X0015*
X001475Y01067771*
Y01112771*
X0015Y01115271*
X00185*
X001875Y01112771*
G37*
G36*
X01485001Y01059407D02*
Y01024407D01*
X01482501Y01021907*
X01437501*
X01435001Y01024407*
Y01059407*
X01437501Y01061907*
X01482501*
X01485001Y01059407*
G37*
G36*
X01451479Y01007771D02*
Y00972771D01*
X01448979Y00970271*
X01403479*
X01400979Y00972771*
Y01007771*
X01403479Y01010271*
X01448979*
X01451479Y01007771*
G37*
G36*
X01385979D02*
Y00972771D01*
X01383479Y00970271*
X01337979*
X01335479Y00972771*
Y01007771*
X01337979Y01010271*
X01383479*
X01385979Y01007771*
G37*
G36*
X01217499Y0100777D02*
Y0096277D01*
X01214999Y0096027*
X01179999*
X01177499Y0096277*
Y0100777*
X01179999Y0101027*
X01214999*
X01217499Y0100777*
G37*
G36*
X01162499D02*
Y0096277D01*
X01159999Y0096027*
X01124999*
X01122499Y0096277*
Y0100777*
X01124999Y0101027*
X01159999*
X01162499Y0100777*
G37*
G36*
X002425D02*
Y0096277D01*
X0024Y0096027*
X00205*
X002025Y0096277*
Y0100777*
X00205Y0101027*
X0024*
X002425Y0100777*
G37*
G36*
X001875D02*
Y0096277D01*
X00185Y0096027*
X0015*
X001475Y0096277*
Y0100777*
X0015Y0101027*
X00185*
X001875Y0100777*
G37*
G36*
X01557501Y01002771D02*
Y00957771D01*
X01555001Y00955271*
X01520001*
X01517501Y00957771*
Y01002771*
X01520001Y01005271*
X01555001*
X01557501Y01002771*
G37*
G36*
X01502501D02*
Y00957771D01*
X01500001Y00955271*
X01465001*
X01462501Y00957771*
Y01002771*
X01465001Y01005271*
X01500001*
X01502501Y01002771*
G37*
G36*
X01384232Y00927772D02*
Y00892772D01*
X01381732Y00890272*
X01336232*
X01333732Y00892772*
Y00927772*
X01336232Y00930272*
X01381732*
X01384232Y00927772*
G37*
G36*
X01318732D02*
Y00892772D01*
X01316232Y00890272*
X01270732*
X01268232Y00892772*
Y00927772*
X01270732Y00930272*
X01316232*
X01318732Y00927772*
G37*
G36*
X016125Y00911522D02*
Y00866522D01*
X0161Y00864022*
X01575*
X015725Y00866522*
Y00911522*
X01575Y00914022*
X0161*
X016125Y00911522*
G37*
G36*
X015575D02*
Y00866522D01*
X01555Y00864022*
X0152*
X015175Y00866522*
Y00911522*
X0152Y00914022*
X01555*
X015575Y00911522*
G37*
G36*
X01217502Y00902772D02*
Y00857772D01*
X01215002Y00855272*
X01180002*
X01177502Y00857772*
Y00902772*
X01180002Y00905272*
X01215002*
X01217502Y00902772*
G37*
G36*
X01162502D02*
Y00857772D01*
X01160002Y00855272*
X01125002*
X01122502Y00857772*
Y00902772*
X01125002Y00905272*
X01160002*
X01162502Y00902772*
G37*
G36*
X002425D02*
Y00857772D01*
X0024Y00855272*
X00205*
X002025Y00857772*
Y00902772*
X00205Y00905272*
X0024*
X002425Y00902772*
G37*
G36*
X001875D02*
Y00857772D01*
X00185Y00855272*
X0015*
X001475Y00857772*
Y00902772*
X0015Y00905272*
X00185*
X001875Y00902772*
G37*
G36*
X01284999Y00875269D02*
Y00840269D01*
X01282499Y00837769*
X01237499*
X01234999Y00840269*
Y00875269*
X01237499Y00877769*
X01282499*
X01284999Y00875269*
G37*
G36*
Y00820269D02*
Y00785269D01*
X01282499Y00782769*
X01237499*
X01234999Y00785269*
Y00820269*
X01237499Y00822769*
X01282499*
X01284999Y00820269*
G37*
G36*
X01667501Y0082027D02*
Y0077527D01*
X01665001Y0077277*
X01630001*
X01627501Y0077527*
Y0082027*
X01630001Y0082277*
X01665001*
X01667501Y0082027*
G37*
G36*
X01612501D02*
Y0077527D01*
X01610001Y0077277*
X01575001*
X01572501Y0077527*
Y0082027*
X01575001Y0082277*
X01610001*
X01612501Y0082027*
G37*
G36*
X01217499Y00797771D02*
Y00752771D01*
X01214999Y00750271*
X01179999*
X01177499Y00752771*
Y00797771*
X01179999Y00800271*
X01214999*
X01217499Y00797771*
G37*
G36*
X01162499D02*
Y00752771D01*
X01159999Y00750271*
X01124999*
X01122499Y00752771*
Y00797771*
X01124999Y00800271*
X01159999*
X01162499Y00797771*
G37*
G36*
X002425D02*
Y00752771D01*
X0024Y00750271*
X00205*
X002025Y00752771*
Y00797771*
X00205Y00800271*
X0024*
X002425Y00797771*
G37*
G36*
X001875D02*
Y00752771D01*
X00185Y00750271*
X0015*
X001475Y00752771*
Y00797771*
X0015Y00800271*
X00185*
X001875Y00797771*
G37*
G36*
X01722499Y0072902D02*
Y0068402D01*
X01719999Y0068152*
X01684999*
X01682499Y0068402*
Y0072902*
X01684999Y0073152*
X01719999*
X01722499Y0072902*
G37*
G36*
X01667499D02*
Y0068402D01*
X01664999Y0068152*
X01629999*
X01627499Y0068402*
Y0072902*
X01629999Y0073152*
X01664999*
X01667499Y0072902*
G37*
G36*
X01217499Y00692769D02*
Y00647769D01*
X01214999Y00645269*
X01179999*
X01177499Y00647769*
Y00692769*
X01179999Y00695269*
X01214999*
X01217499Y00692769*
G37*
G36*
X01162499D02*
Y00647769D01*
X01159999Y00645269*
X01124999*
X01122499Y00647769*
Y00692769*
X01124999Y00695269*
X01159999*
X01162499Y00692769*
G37*
G36*
X002425D02*
Y00647769D01*
X0024Y00645269*
X00205*
X002025Y00647769*
Y00692769*
X00205Y00695269*
X0024*
X002425Y00692769*
G37*
G36*
X001875D02*
Y00647769D01*
X00185Y00645269*
X0015*
X001475Y00647769*
Y00692769*
X0015Y00695269*
X00185*
X001875Y00692769*
G37*
G36*
X01777501Y00637771D02*
Y00592771D01*
X01775001Y00590271*
X01740001*
X01737501Y00592771*
Y00637771*
X01740001Y00640271*
X01775001*
X01777501Y00637771*
G37*
G36*
X01722501D02*
Y00592771D01*
X01720001Y00590271*
X01685001*
X01682501Y00592771*
Y00637771*
X01685001Y00640271*
X01720001*
X01722501Y00637771*
G37*
G36*
X01217499Y00587771D02*
Y00542771D01*
X01214999Y00540271*
X01179999*
X01177499Y00542771*
Y00587771*
X01179999Y00590271*
X01214999*
X01217499Y00587771*
G37*
G36*
X01162499D02*
Y00542771D01*
X01159999Y00540271*
X01124999*
X01122499Y00542771*
Y00587771*
X01124999Y00590271*
X01159999*
X01162499Y00587771*
G37*
G36*
X002425D02*
Y00542771D01*
X0024Y00540271*
X00205*
X002025Y00542771*
Y00587771*
X00205Y00590271*
X0024*
X002425Y00587771*
G37*
G36*
X001875D02*
Y00542771D01*
X00185Y00540271*
X0015*
X001475Y00542771*
Y00587771*
X0015Y00590271*
X00185*
X001875Y00587771*
G37*
G36*
X01832499Y00546521D02*
Y00501521D01*
X01829999Y00499021*
X01794999*
X01792499Y00501521*
Y00546521*
X01794999Y00549021*
X01829999*
X01832499Y00546521*
G37*
G36*
X01777499D02*
Y00501521D01*
X01774999Y00499021*
X01739999*
X01737499Y00501521*
Y00546521*
X01739999Y00549021*
X01774999*
X01777499Y00546521*
G37*
G36*
X01217499Y0048277D02*
Y0043777D01*
X01214999Y0043527*
X01179999*
X01177499Y0043777*
Y0048277*
X01179999Y0048527*
X01214999*
X01217499Y0048277*
G37*
G36*
X01162499D02*
Y0043777D01*
X01159999Y0043527*
X01124999*
X01122499Y0043777*
Y0048277*
X01124999Y0048527*
X01159999*
X01162499Y0048277*
G37*
G36*
X002425D02*
Y0043777D01*
X0024Y0043527*
X00205*
X002025Y0043777*
Y0048277*
X00205Y0048527*
X0024*
X002425Y0048277*
G37*
G36*
X001875D02*
Y0043777D01*
X00185Y0043527*
X0015*
X001475Y0043777*
Y0048277*
X0015Y0048527*
X00185*
X001875Y0048277*
G37*
G36*
X018875Y00455269D02*
Y00410269D01*
X01885Y00407769*
X0185*
X018475Y00410269*
Y00455269*
X0185Y00457769*
X01885*
X018875Y00455269*
G37*
G36*
X018325D02*
Y00410269D01*
X0183Y00407769*
X01795*
X017925Y00410269*
Y00455269*
X01795Y00457769*
X0183*
X018325Y00455269*
G37*
G36*
X01217499Y00377771D02*
Y00332771D01*
X01214999Y00330271*
X01179999*
X01177499Y00332771*
Y00377771*
X01179999Y00380271*
X01214999*
X01217499Y00377771*
G37*
G36*
X01162499D02*
Y00332771D01*
X01159999Y00330271*
X01124999*
X01122499Y00332771*
Y00377771*
X01124999Y00380271*
X01159999*
X01162499Y00377771*
G37*
G36*
X002425D02*
Y00332771D01*
X0024Y00330271*
X00205*
X002025Y00332771*
Y00377771*
X00205Y00380271*
X0024*
X002425Y00377771*
G37*
G36*
X001875D02*
Y00332771D01*
X00185Y00330271*
X0015*
X001475Y00332771*
Y00377771*
X0015Y00380271*
X00185*
X001875Y00377771*
G37*
G36*
X01942499Y0036402D02*
Y0031902D01*
X01939999Y0031652*
X01905*
X01902499Y0031902*
Y0036402*
X01905Y0036652*
X01939999*
X01942499Y0036402*
G37*
G36*
X01887499D02*
Y0031902D01*
X01884999Y0031652*
X01849999*
X01847499Y0031902*
Y0036402*
X01849999Y0036652*
X01884999*
X01887499Y0036402*
G37*
G36*
X00850001Y0029527D02*
Y0026027D01*
X00847501Y0025777*
X00802501*
X00800001Y0026027*
Y0029527*
X00802501Y0029777*
X00847501*
X00850001Y0029527*
G37*
G36*
X00745D02*
Y0026027D01*
X007425Y0025777*
X006975*
X00695Y0026027*
Y0029527*
X006975Y0029777*
X007425*
X00745Y0029527*
G37*
G36*
X00639999D02*
Y0026027D01*
X00637499Y0025777*
X00592499*
X00589999Y0026027*
Y0029527*
X00592499Y0029777*
X00637499*
X00639999Y0029527*
G37*
G36*
X00535D02*
Y0026027D01*
X005325Y0025777*
X004875*
X00485Y0026027*
Y0029527*
X004875Y0029777*
X005325*
X00535Y0029527*
G37*
G36*
X00429999D02*
Y0026027D01*
X00427499Y0025777*
X00382499*
X00379999Y0026027*
Y0029527*
X00382499Y0029777*
X00427499*
X00429999Y0029527*
G37*
G36*
X00325001D02*
Y0026027D01*
X00322501Y0025777*
X00277501*
X00275001Y0026027*
Y0029527*
X00277501Y0029777*
X00322501*
X00325001Y0029527*
G37*
G36*
X0022D02*
Y0026027D01*
X002175Y0025777*
X001725*
X0017Y0026027*
Y0029527*
X001725Y0029777*
X002175*
X0022Y0029527*
G37*
G36*
X019975Y0027277D02*
Y0022777D01*
X01995Y0022527*
X0196*
X019575Y0022777*
Y0027277*
X0196Y0027527*
X01995*
X019975Y0027277*
G37*
G36*
X019425D02*
Y0022777D01*
X0194Y0022527*
X01905*
X019025Y0022777*
Y0027277*
X01905Y0027527*
X0194*
X019425Y0027277*
G37*
G36*
X01217499D02*
Y0022777D01*
X01214999Y0022527*
X01179999*
X01177499Y0022777*
Y0027277*
X01179999Y0027527*
X01214999*
X01217499Y0027277*
G37*
G36*
X01162499D02*
Y0022777D01*
X01159999Y0022527*
X01124999*
X01122499Y0022777*
Y0027277*
X01124999Y0027527*
X01159999*
X01162499Y0027277*
G37*
G36*
X00850001Y0024027D02*
Y0020527D01*
X00847501Y0020277*
X00802501*
X00800001Y0020527*
Y0024027*
X00802501Y0024277*
X00847501*
X00850001Y0024027*
G37*
G36*
X00745D02*
Y0020527D01*
X007425Y0020277*
X006975*
X00695Y0020527*
Y0024027*
X006975Y0024277*
X007425*
X00745Y0024027*
G37*
G36*
X00639999D02*
Y0020527D01*
X00637499Y0020277*
X00592499*
X00589999Y0020527*
Y0024027*
X00592499Y0024277*
X00637499*
X00639999Y0024027*
G37*
G36*
X00535D02*
Y0020527D01*
X005325Y0020277*
X004875*
X00485Y0020527*
Y0024027*
X004875Y0024277*
X005325*
X00535Y0024027*
G37*
G36*
X00429999D02*
Y0020527D01*
X00427499Y0020277*
X00382499*
X00379999Y0020527*
Y0024027*
X00382499Y0024277*
X00427499*
X00429999Y0024027*
G37*
G36*
X00325001D02*
Y0020527D01*
X00322501Y0020277*
X00277501*
X00275001Y0020527*
Y0024027*
X00277501Y0024277*
X00322501*
X00325001Y0024027*
G37*
G36*
X0022D02*
Y0020527D01*
X002175Y0020277*
X001725*
X0017Y0020527*
Y0024027*
X001725Y0024277*
X002175*
X0022Y0024027*
G37*
G36*
X02787204Y00902772D02*
Y00857772D01*
X02784704Y00855272*
X02749704*
X02747204Y00857772*
Y00902772*
X02749704Y00905272*
X02784704*
X02787204Y00902772*
G37*
G36*
X02732204D02*
Y00857772D01*
X02729704Y00855272*
X02694704*
X02692204Y00857772*
Y00902772*
X02694704Y00905272*
X02729704*
X02732204Y00902772*
G37*
G36*
X02437502D02*
Y00857772D01*
X02435002Y00855272*
X02400002*
X02397502Y00857772*
Y00902772*
X02400002Y00905272*
X02435002*
X02437502Y00902772*
G37*
G36*
X02382502D02*
Y00857772D01*
X02380002Y00855272*
X02345002*
X02342502Y00857772*
Y00902772*
X02345002Y00905272*
X02380002*
X02382502Y00902772*
G37*
G36*
X02765373Y00797771D02*
Y00752771D01*
X02762873Y00750271*
X02727873*
X02725373Y00752771*
Y00797771*
X02727873Y00800271*
X02762873*
X02765373Y00797771*
G37*
G36*
X02710373D02*
Y00752771D01*
X02707873Y00750271*
X02672873*
X02670373Y00752771*
Y00797771*
X02672873Y00800271*
X02707873*
X02710373Y00797771*
G37*
G36*
X02459628D02*
Y00752771D01*
X02457128Y00750271*
X02422128*
X02419628Y00752771*
Y00797771*
X02422128Y00800271*
X02457128*
X02459628Y00797771*
G37*
G36*
X02404628D02*
Y00752771D01*
X02402128Y00750271*
X02367128*
X02364628Y00752771*
Y00797771*
X02367128Y00800271*
X02402128*
X02404628Y00797771*
G37*
G36*
X027425Y00692769D02*
Y00647769D01*
X0274Y00645269*
X02705*
X027025Y00647769*
Y00692769*
X02705Y00695269*
X0274*
X027425Y00692769*
G37*
G36*
X026875D02*
Y00647769D01*
X02685Y00645269*
X0265*
X026475Y00647769*
Y00692769*
X0265Y00695269*
X02685*
X026875Y00692769*
G37*
G36*
X02481459D02*
Y00647769D01*
X02478959Y00645269*
X02443959*
X02441459Y00647769*
Y00692769*
X02443959Y00695269*
X02478959*
X02481459Y00692769*
G37*
G36*
X02426459D02*
Y00647769D01*
X02423959Y00645269*
X02388959*
X02386459Y00647769*
Y00692769*
X02388959Y00695269*
X02423959*
X02426459Y00692769*
G37*
G36*
X02721707Y00587771D02*
Y00542771D01*
X02719207Y00540271*
X02684207*
X02681707Y00542771*
Y00587771*
X02684207Y00590271*
X02719207*
X02721707Y00587771*
G37*
G36*
X02666707D02*
Y00542771D01*
X02664207Y00540271*
X02629207*
X02626707Y00542771*
Y00587771*
X02629207Y00590271*
X02664207*
X02666707Y00587771*
G37*
G36*
X025025D02*
Y00542771D01*
X025Y00540271*
X02465*
X024625Y00542771*
Y00587771*
X02465Y00590271*
X025*
X025025Y00587771*
G37*
G36*
X024475D02*
Y00542771D01*
X02445Y00540271*
X0241*
X024075Y00542771*
Y00587771*
X0241Y00590271*
X02445*
X024475Y00587771*
G37*
G36*
X02677376Y0050527D02*
Y0047027D01*
X02674876Y0046777*
X02629876*
X02627376Y0047027*
Y0050527*
X02629876Y0050777*
X02674876*
X02677376Y0050527*
G37*
G36*
X02502624D02*
Y0047027D01*
X02500124Y0046777*
X02455124*
X02452624Y0047027*
Y0050527*
X02455124Y0050777*
X02500124*
X02502624Y0050527*
G37*
G36*
X02677376Y0045027D02*
Y0041527D01*
X02674876Y0041277*
X02629876*
X02627376Y0041527*
Y0045027*
X02629876Y0045277*
X02674876*
X02677376Y0045027*
G37*
G36*
X02502624D02*
Y0041527D01*
X02500124Y0041277*
X02455124*
X02452624Y0041527*
Y0045027*
X02455124Y0045277*
X02500124*
X02502624Y0045027*
G37*
G36*
X02655545Y00400271D02*
Y00365271D01*
X02653045Y00362771*
X02608045*
X02605545Y00365271*
Y00400271*
X02608045Y00402771*
X02653045*
X02655545Y00400271*
G37*
G36*
X02524455D02*
Y00365271D01*
X02521955Y00362771*
X02476955*
X02474455Y00365271*
Y00400271*
X02476955Y00402771*
X02521955*
X02524455Y00400271*
G37*
G36*
X02655545Y00345271D02*
Y00310271D01*
X02653045Y00307771*
X02608045*
X02605545Y00310271*
Y00345271*
X02608045Y00347771*
X02653045*
X02655545Y00345271*
G37*
G36*
X02524455D02*
Y00310271D01*
X02521955Y00307771*
X02476955*
X02474455Y00310271*
Y00345271*
X02476955Y00347771*
X02521955*
X02524455Y00345271*
G37*
G36*
X02633714Y0029527D02*
Y0026027D01*
X02631214Y0025777*
X02586214*
X02583714Y0026027*
Y0029527*
X02586214Y0029777*
X02631214*
X02633714Y0029527*
G37*
G36*
X02545002D02*
Y0026027D01*
X02542502Y0025777*
X02497502*
X02495002Y0026027*
Y0029527*
X02497502Y0029777*
X02542502*
X02545002Y0029527*
G37*
G36*
X02633714Y0024027D02*
Y0020527D01*
X02631214Y0020277*
X02586214*
X02583714Y0020527*
Y0024027*
X02586214Y0024277*
X02631214*
X02633714Y0024027*
G37*
G36*
X02545002D02*
Y0020527D01*
X02542502Y0020277*
X02497502*
X02495002Y0020527*
Y0024027*
X02497502Y0024277*
X02542502*
X02545002Y0024027*
G37*
G36*
X02283936Y0164277D02*
Y0159777D01*
X02281436Y0159527*
X02246436*
X02243936Y0159777*
Y0164277*
X02246436Y0164527*
X02281436*
X02283936Y0164277*
G37*
G36*
X02228936D02*
Y0159777D01*
X02226437Y0159527*
X02191436*
X02188936Y0159777*
Y0164277*
X02191436Y0164527*
X02226437*
X02228936Y0164277*
G37*
G36*
X02306806Y0153277D02*
Y0148777D01*
X02304306Y0148527*
X02269306*
X02266806Y0148777*
Y0153277*
X02269306Y0153527*
X02304306*
X02306806Y0153277*
G37*
G36*
X02251806D02*
Y0148777D01*
X02249306Y0148527*
X02214306*
X02211806Y0148777*
Y0153277*
X02214306Y0153527*
X02249306*
X02251806Y0153277*
G37*
G36*
X0232864Y01427772D02*
Y01382772D01*
X0232614Y01380272*
X0229114*
X0228864Y01382772*
Y01427772*
X0229114Y01430272*
X0232614*
X0232864Y01427772*
G37*
G36*
X0227364D02*
Y01382772D01*
X02271141Y01380272*
X0223614*
X0223364Y01382772*
Y01427772*
X0223614Y01430272*
X02271141*
X0227364Y01427772*
G37*
G36*
X02350471Y01322771D02*
Y01277771D01*
X02347971Y01275271*
X02312971*
X02310471Y01277771*
Y01322771*
X02312971Y01325271*
X02347971*
X02350471Y01322771*
G37*
G36*
X02295471D02*
Y01277771D01*
X02292971Y01275271*
X02257971*
X02255471Y01277771*
Y01322771*
X02257971Y01325271*
X02292971*
X02295471Y01322771*
G37*
G36*
X02372303Y0121777D02*
Y0117277D01*
X02369803Y0117027*
X02334803*
X02332303Y0117277*
Y0121777*
X02334803Y0122027*
X02369803*
X02372303Y0121777*
G37*
G36*
X02317303D02*
Y0117277D01*
X02314803Y0117027*
X02279803*
X02277303Y0117277*
Y0121777*
X02279803Y0122027*
X02314803*
X02317303Y0121777*
G37*
G36*
X02394134Y01112771D02*
Y01067771D01*
X02391634Y01065271*
X02356634*
X02354134Y01067771*
Y01112771*
X02356634Y01115271*
X02391634*
X02394134Y01112771*
G37*
G36*
X02339134D02*
Y01067771D01*
X02336634Y01065271*
X02301634*
X02299134Y01067771*
Y01112771*
X02301634Y01115271*
X02336634*
X02339134Y01112771*
G37*
G36*
X02415965Y0100777D02*
Y0096277D01*
X02413465Y0096027*
X02378465*
X02375965Y0096277*
Y0100777*
X02378465Y0101027*
X02413465*
X02415965Y0100777*
G37*
G36*
X02360965D02*
Y0096277D01*
X02358465Y0096027*
X02323465*
X02320965Y0096277*
Y0100777*
X02323465Y0101027*
X02358465*
X02360965Y0100777*
G37*
G36*
X02918564Y0166527D02*
Y0163027D01*
X02916064Y0162777*
X02871064*
X02868564Y0163027*
Y0166527*
X02871064Y0166777*
X02916064*
X02918564Y0166527*
G37*
G36*
Y0161027D02*
Y0157527D01*
X02916064Y0157277*
X02871064*
X02868564Y0157527*
Y0161027*
X02871064Y0161277*
X02916064*
X02918564Y0161027*
G37*
G36*
X02895001Y0155527D02*
Y0152027D01*
X02892501Y0151777*
X02847501*
X02845001Y0152027*
Y0155527*
X02847501Y0155777*
X02892501*
X02895001Y0155527*
G37*
G36*
Y0150027D02*
Y0146527D01*
X02892501Y0146277*
X02847501*
X02845001Y0146527*
Y0150027*
X02847501Y0150277*
X02892501*
X02895001Y0150027*
G37*
G36*
X02873863Y01450272D02*
Y01415272D01*
X02871363Y01412772*
X02826363*
X02823863Y01415272*
Y01450272*
X02826363Y01452772*
X02871363*
X02873863Y01450272*
G37*
G36*
Y01395272D02*
Y01360272D01*
X02871363Y01357772*
X02826363*
X02823863Y01360272*
Y01395272*
X02826363Y01397772*
X02871363*
X02873863Y01395272*
G37*
G36*
X02874529Y01322771D02*
Y01277771D01*
X02872029Y01275271*
X02837029*
X02834529Y01277771*
Y01322771*
X02837029Y01325271*
X02872029*
X02874529Y01322771*
G37*
G36*
X02819529D02*
Y01277771D01*
X02817029Y01275271*
X02782029*
X02779529Y01277771*
Y01322771*
X02782029Y01325271*
X02817029*
X02819529Y01322771*
G37*
G36*
X028525Y0121777D02*
Y0117277D01*
X0285Y0117027*
X02815*
X028125Y0117277*
Y0121777*
X02815Y0122027*
X0285*
X028525Y0121777*
G37*
G36*
X027975D02*
Y0117277D01*
X02795Y0117027*
X0276*
X027575Y0117277*
Y0121777*
X0276Y0122027*
X02795*
X027975Y0121777*
G37*
G36*
X02830867Y01112771D02*
Y01067771D01*
X02828367Y01065271*
X02793367*
X02790867Y01067771*
Y01112771*
X02793367Y01115271*
X02828367*
X02830867Y01112771*
G37*
G36*
X02775867D02*
Y01067771D01*
X02773367Y01065271*
X02738367*
X02735867Y01067771*
Y01112771*
X02738367Y01115271*
X02773367*
X02775867Y01112771*
G37*
G36*
X02809035Y0100777D02*
Y0096277D01*
X02806535Y0096027*
X02771535*
X02769035Y0096277*
Y0100777*
X02771535Y0101027*
X02806535*
X02809035Y0100777*
G37*
G36*
X02754035D02*
Y0096277D01*
X02751535Y0096027*
X02716535*
X02714035Y0096277*
Y0100777*
X02716535Y0101027*
X02751535*
X02754035Y0100777*
G37*
G36*
X03542204Y00902772D02*
Y00857772D01*
X03539704Y00855272*
X03504704*
X03502204Y00857772*
Y00902772*
X03504704Y00905272*
X03539704*
X03542204Y00902772*
G37*
G36*
X03487204D02*
Y00857772D01*
X03484704Y00855272*
X03449704*
X03447204Y00857772*
Y00902772*
X03449704Y00905272*
X03484704*
X03487204Y00902772*
G37*
G36*
X03192796D02*
Y00857772D01*
X03190296Y00855272*
X03155296*
X03152796Y00857772*
Y00902772*
X03155296Y00905272*
X03190296*
X03192796Y00902772*
G37*
G36*
X03137796D02*
Y00857772D01*
X03135296Y00855272*
X03100296*
X03097796Y00857772*
Y00902772*
X03100296Y00905272*
X03135296*
X03137796Y00902772*
G37*
G36*
X03520373Y00797771D02*
Y00752771D01*
X03517873Y00750271*
X03482873*
X03480373Y00752771*
Y00797771*
X03482873Y00800271*
X03517873*
X03520373Y00797771*
G37*
G36*
X03465373D02*
Y00752771D01*
X03462873Y00750271*
X03427873*
X03425373Y00752771*
Y00797771*
X03427873Y00800271*
X03462873*
X03465373Y00797771*
G37*
G36*
X0321463D02*
Y00752771D01*
X0321213Y00750271*
X0317713*
X0317463Y00752771*
Y00797771*
X0317713Y00800271*
X0321213*
X0321463Y00797771*
G37*
G36*
X0315963D02*
Y00752771D01*
X0315713Y00750271*
X0312213*
X0311963Y00752771*
Y00797771*
X0312213Y00800271*
X0315713*
X0315963Y00797771*
G37*
G36*
X034975Y00692769D02*
Y00647769D01*
X03495Y00645269*
X0346*
X034575Y00647769*
Y00692769*
X0346Y00695269*
X03495*
X034975Y00692769*
G37*
G36*
X034425D02*
Y00647769D01*
X0344Y00645269*
X03405*
X034025Y00647769*
Y00692769*
X03405Y00695269*
X0344*
X034425Y00692769*
G37*
G36*
X03236461D02*
Y00647769D01*
X03233961Y00645269*
X03198961*
X03196461Y00647769*
Y00692769*
X03198961Y00695269*
X03233961*
X03236461Y00692769*
G37*
G36*
X03181461D02*
Y00647769D01*
X03178961Y00645269*
X03143961*
X03141461Y00647769*
Y00692769*
X03143961Y00695269*
X03178961*
X03181461Y00692769*
G37*
G36*
X034775Y00587771D02*
Y00542771D01*
X03475Y00540271*
X0344*
X034375Y00542771*
Y00587771*
X0344Y00590271*
X03475*
X034775Y00587771*
G37*
G36*
X034225D02*
Y00542771D01*
X0342Y00540271*
X03385*
X033825Y00542771*
Y00587771*
X03385Y00590271*
X0342*
X034225Y00587771*
G37*
G36*
X03258293D02*
Y00542771D01*
X03255793Y00540271*
X03220793*
X03218293Y00542771*
Y00587771*
X03220793Y00590271*
X03255793*
X03258293Y00587771*
G37*
G36*
X03203293D02*
Y00542771D01*
X03200793Y00540271*
X03165793*
X03163293Y00542771*
Y00587771*
X03165793Y00590271*
X03200793*
X03203293Y00587771*
G37*
G36*
X03432376Y0050527D02*
Y0047027D01*
X03429876Y0046777*
X03384876*
X03382376Y0047027*
Y0050527*
X03384876Y0050777*
X03429876*
X03432376Y0050527*
G37*
G36*
X03257624D02*
Y0047027D01*
X03255124Y0046777*
X03210124*
X03207624Y0047027*
Y0050527*
X03210124Y0050777*
X03255124*
X03257624Y0050527*
G37*
G36*
X03432376Y0045027D02*
Y0041527D01*
X03429876Y0041277*
X03384876*
X03382376Y0041527*
Y0045027*
X03384876Y0045277*
X03429876*
X03432376Y0045027*
G37*
G36*
X03257624D02*
Y0041527D01*
X03255124Y0041277*
X03210124*
X03207624Y0041527*
Y0045027*
X03210124Y0045277*
X03255124*
X03257624Y0045027*
G37*
G36*
X03410545Y00400271D02*
Y00365271D01*
X03408045Y00362771*
X03363045*
X03360545Y00365271*
Y00400271*
X03363045Y00402771*
X03408045*
X03410545Y00400271*
G37*
G36*
X03279455D02*
Y00365271D01*
X03276955Y00362771*
X03231955*
X03229455Y00365271*
Y00400271*
X03231955Y00402771*
X03276955*
X03279455Y00400271*
G37*
G36*
X03410545Y00345271D02*
Y00310271D01*
X03408045Y00307771*
X03363045*
X03360545Y00310271*
Y00345271*
X03363045Y00347771*
X03408045*
X03410545Y00345271*
G37*
G36*
X03279455D02*
Y00310271D01*
X03276955Y00307771*
X03231955*
X03229455Y00310271*
Y00345271*
X03231955Y00347771*
X03276955*
X03279455Y00345271*
G37*
G36*
X03388713Y0029527D02*
Y0026027D01*
X03386213Y0025777*
X03341213*
X03338713Y0026027*
Y0029527*
X03341213Y0029777*
X03386213*
X03388713Y0029527*
G37*
G36*
X03301287D02*
Y0026027D01*
X03298787Y0025777*
X03253787*
X03251287Y0026027*
Y0029527*
X03253787Y0029777*
X03298787*
X03301287Y0029527*
G37*
G36*
X03388713Y0024027D02*
Y0020527D01*
X03386213Y0020277*
X03341213*
X03338713Y0020527*
Y0024027*
X03341213Y0024277*
X03386213*
X03388713Y0024027*
G37*
G36*
X03301287D02*
Y0020527D01*
X03298787Y0020277*
X03253787*
X03251287Y0020527*
Y0024027*
X03253787Y0024277*
X03298787*
X03301287Y0024027*
G37*
G36*
X03016436Y0166527D02*
Y0163027D01*
X03013936Y0162777*
X02968936*
X02966436Y0163027*
Y0166527*
X02968936Y0166777*
X03013936*
X03016436Y0166527*
G37*
G36*
Y0161027D02*
Y0157527D01*
X03013936Y0157277*
X02968936*
X02966436Y0157527*
Y0161027*
X02968936Y0161277*
X03013936*
X03016436Y0161027*
G37*
G36*
X03039306Y0155527D02*
Y0152027D01*
X03036806Y0151777*
X02991806*
X02989306Y0152027*
Y0155527*
X02991806Y0155777*
X03036806*
X03039306Y0155527*
G37*
G36*
Y0150027D02*
Y0146527D01*
X03036806Y0146277*
X02991806*
X02989306Y0146527*
Y0150027*
X02991806Y0150277*
X03036806*
X03039306Y0150027*
G37*
G36*
X03059999Y01450272D02*
Y01415272D01*
X03057499Y01412772*
X03012499*
X03009999Y01415272*
Y01450272*
X03012499Y01452772*
X03057499*
X03059999Y01450272*
G37*
G36*
Y01395272D02*
Y01360272D01*
X03057499Y01357772*
X03012499*
X03009999Y01360272*
Y01395272*
X03012499Y01397772*
X03057499*
X03059999Y01395272*
G37*
G36*
X03105471Y01322771D02*
Y01277771D01*
X03102971Y01275271*
X03067971*
X03065471Y01277771*
Y01322771*
X03067971Y01325271*
X03102971*
X03105471Y01322771*
G37*
G36*
X03050471D02*
Y01277771D01*
X03047971Y01275271*
X03012971*
X03010471Y01277771*
Y01322771*
X03012971Y01325271*
X03047971*
X03050471Y01322771*
G37*
G36*
X03127302Y0121777D02*
Y0117277D01*
X03124802Y0117027*
X03089802*
X03087302Y0117277*
Y0121777*
X03089802Y0122027*
X03124802*
X03127302Y0121777*
G37*
G36*
X03072302D02*
Y0117277D01*
X03069802Y0117027*
X03034802*
X03032302Y0117277*
Y0121777*
X03034802Y0122027*
X03069802*
X03072302Y0121777*
G37*
G36*
X03149134Y01112771D02*
Y01067771D01*
X03146634Y01065271*
X03111634*
X03109134Y01067771*
Y01112771*
X03111634Y01115271*
X03146634*
X03149134Y01112771*
G37*
G36*
X03094134D02*
Y01067771D01*
X03091634Y01065271*
X03056634*
X03054134Y01067771*
Y01112771*
X03056634Y01115271*
X03091634*
X03094134Y01112771*
G37*
G36*
X03170965Y0100777D02*
Y0096277D01*
X03168465Y0096027*
X03133465*
X03130965Y0096277*
Y0100777*
X03133465Y0101027*
X03168465*
X03170965Y0100777*
G37*
G36*
X03115965D02*
Y0096277D01*
X03113465Y0096027*
X03078465*
X03075965Y0096277*
Y0100777*
X03078465Y0101027*
X03113465*
X03115965Y0100777*
G37*
G36*
X03696064Y0164277D02*
Y0159777D01*
X03693564Y0159527*
X03658564*
X03656064Y0159777*
Y0164277*
X03658564Y0164527*
X03693564*
X03696064Y0164277*
G37*
G36*
X03641064D02*
Y0159777D01*
X03638564Y0159527*
X03603564*
X03601064Y0159777*
Y0164277*
X03603564Y0164527*
X03638564*
X03641064Y0164277*
G37*
G36*
X03672501Y0153277D02*
Y0148777D01*
X03670001Y0148527*
X03635001*
X03632501Y0148777*
Y0153277*
X03635001Y0153527*
X03670001*
X03672501Y0153277*
G37*
G36*
X03617501D02*
Y0148777D01*
X03615001Y0148527*
X03580001*
X03577501Y0148777*
Y0153277*
X03580001Y0153527*
X03615001*
X03617501Y0153277*
G37*
G36*
X0365136Y01427772D02*
Y01382772D01*
X0364886Y01380272*
X0361386*
X0361136Y01382772*
Y01427772*
X0361386Y01430272*
X0364886*
X0365136Y01427772*
G37*
G36*
X0359636D02*
Y01382772D01*
X0359386Y01380272*
X0355886*
X0355636Y01382772*
Y01427772*
X0355886Y01430272*
X0359386*
X0359636Y01427772*
G37*
G36*
X03629529Y01322771D02*
Y01277771D01*
X03627029Y01275271*
X03592029*
X03589529Y01277771*
Y01322771*
X03592029Y01325271*
X03627029*
X03629529Y01322771*
G37*
G36*
X03574529D02*
Y01277771D01*
X03572029Y01275271*
X03537029*
X03534529Y01277771*
Y01322771*
X03537029Y01325271*
X03572029*
X03574529Y01322771*
G37*
G36*
X03607698Y0121777D02*
Y0117277D01*
X03605198Y0117027*
X03570198*
X03567698Y0117277*
Y0121777*
X03570198Y0122027*
X03605198*
X03607698Y0121777*
G37*
G36*
X03552698D02*
Y0117277D01*
X03550198Y0117027*
X03515198*
X03512698Y0117277*
Y0121777*
X03515198Y0122027*
X03550198*
X03552698Y0121777*
G37*
G36*
X03585866Y01112771D02*
Y01067771D01*
X03583366Y01065271*
X03548366*
X03545866Y01067771*
Y01112771*
X03548366Y01115271*
X03583366*
X03585866Y01112771*
G37*
G36*
X03530866D02*
Y01067771D01*
X03528366Y01065271*
X03493366*
X03490866Y01067771*
Y01112771*
X03493366Y01115271*
X03528366*
X03530866Y01112771*
G37*
G36*
X03564035Y0100777D02*
Y0096277D01*
X03561535Y0096027*
X03526536*
X03524035Y0096277*
Y0100777*
X03526536Y0101027*
X03561535*
X03564035Y0100777*
G37*
G36*
X03509035D02*
Y0096277D01*
X03506535Y0096027*
X03471535*
X03469035Y0096277*
Y0100777*
X03471535Y0101027*
X03506535*
X03509035Y0100777*
G37*
G54D25*
X00473389Y0112979D02*
D01*
D01*
G75*
G03X00472884Y01140911I-00000485J00005549D01*
G74*G01*
G54D26*
X0051498Y01133154D02*
D01*
D01*
G75*
G03X0051448I-00000249J0D01*
G74*G01*
D01*
G75*
G03X0051498I00000249J0D01*
G74*G01*
G54D27*
X00055749Y01724999D03*
X03814499Y00184999D03*
X00087249Y00077999D03*
G54D28*
X03633564Y0162027D03*
X03663564D03*
X03610001Y0151027D03*
X03640001D03*
X0358886Y01405272D03*
X0361886D03*
X03567029Y01300271D03*
X03597029D03*
X03545197Y0119527D03*
X03575198D03*
X03523366Y01090271D03*
X03553366D03*
X03479704Y00880272D03*
X03509704D03*
X03457872Y00775271D03*
X03487873D03*
X03435Y00670269D03*
X03465D03*
X03415Y00565271D03*
X03445D03*
X02702873Y00775271D03*
X02732873D03*
X0268Y00670269D03*
X0271D03*
X02659207Y00565271D03*
X02689207D03*
X01341232Y00910272D03*
X01311232D03*
X01378479Y00990271D03*
X01408479D03*
X01855Y00432769D03*
X01825D03*
X01689999Y0070652D03*
X01659999D03*
X01525001Y00980271D03*
X01495001D03*
X01154999Y01405272D03*
X01184999D03*
X01154999Y01090271D03*
X01184999D03*
X01155002Y00880272D03*
X01185002D03*
X01154999Y00670269D03*
X01184999D03*
X01154999Y00355271D03*
X01184999D03*
X0021D03*
X0018D03*
X0021Y00670269D03*
X0018D03*
X0021Y0098527D03*
X0018D03*
X0021Y01300271D03*
X0018D03*
X0021Y01605271D03*
X0018D03*
X01909999Y0034152D03*
X01879999D03*
X01745001Y00615271D03*
X01715001D03*
X0158Y00889022D03*
X0155D03*
X01155002Y0151027D03*
X01185002D03*
X01154999Y0119527D03*
X01184999D03*
X01154999Y0098527D03*
X01184999D03*
X01154999Y00775271D03*
X01184999D03*
X01154999Y0046027D03*
X01184999D03*
X0021Y00565271D03*
X0018D03*
X0021Y00880272D03*
X0018D03*
X0021Y0119527D03*
X0018D03*
X0021Y01505272D03*
X0018D03*
X01965Y0025027D03*
X01935D03*
X01799999Y00524021D03*
X01769999D03*
X01635001Y0079777D03*
X01605001D03*
X01154999Y01615271D03*
X01184999D03*
X01154999Y01300271D03*
X01184999D03*
X01154999Y00565271D03*
X01184999D03*
X01154999Y0025027D03*
X01184999D03*
X0021Y0046027D03*
X0018D03*
X0021Y00775271D03*
X0018D03*
X0021Y01090271D03*
X0018D03*
X0021Y01405272D03*
X0018D03*
X0315213Y00775271D03*
X0318213D03*
X03086634Y01090271D03*
X03116634D03*
X02842029Y01300271D03*
X02812029D03*
X02776535Y0098527D03*
X02746535D03*
X02418959Y00670269D03*
X02448959D03*
X02353465Y0098527D03*
X02383465D03*
X02287971Y01300271D03*
X02317971D03*
X02221436Y0162027D03*
X02251436D03*
X03531535Y0098527D03*
X03501535D03*
X03173961Y00670269D03*
X03203961D03*
X03108465Y0098527D03*
X03138465D03*
X03042971Y01300271D03*
X03072971D03*
X02798367Y01090271D03*
X02768367D03*
X0244Y00565271D03*
X0247D03*
X02375002Y00880272D03*
X02405002D03*
X02309803Y0119527D03*
X02339803D03*
X02244306Y0151027D03*
X02274306D03*
X03195793Y00565271D03*
X03225793D03*
X03130296Y00880272D03*
X03160296D03*
X03064802Y0119527D03*
X03094802D03*
X0282D03*
X0279D03*
X02724704Y00880272D03*
X02754704D03*
X02397128Y00775271D03*
X02427128D03*
X02331634Y01090271D03*
X02361634D03*
X0226614Y01405272D03*
X0229614D03*
G54D29*
X03468113Y01421959D03*
Y01391958D03*
X03391499Y01111499D03*
Y01081499D03*
X03357598Y00503249D03*
Y00473249D03*
X03373337Y00901522D03*
Y00871522D03*
X03266502Y00901522D03*
Y00871522D03*
X03225121Y01216499D03*
Y01186499D03*
X03132193Y0153152D03*
Y01501521D03*
X02753145Y01501499D03*
Y01531499D03*
X02665249Y01216499D03*
Y01186499D03*
X02596999Y00871499D03*
Y00901499D03*
X03320551Y00389249D03*
Y00419249D03*
X03284249Y00503249D03*
Y00473249D03*
X02595249D03*
Y00503249D03*
X02567499Y00389249D03*
Y00419249D03*
X02538128Y0047352D03*
Y0050352D03*
X02532948Y00767499D03*
Y00797499D03*
X02493455Y01081521D03*
Y01111521D03*
X02427499Y01396499D03*
Y01426499D03*
G54D30*
X03407376Y0047527D03*
Y0044527D03*
X01788499Y01478499D03*
Y01448499D03*
X01591014Y0124027D03*
Y0121027D03*
X0072Y0026527D03*
Y0023527D03*
X00404999Y0026527D03*
Y0023527D03*
X01855797Y0155527D03*
Y0152527D03*
X01658261Y01320269D03*
Y01290269D03*
X01460001Y01084407D03*
Y01054407D03*
X00825001Y0026527D03*
Y0023527D03*
X0051Y0026527D03*
Y0023527D03*
X00195Y0026527D03*
Y0023527D03*
X01923043Y0163527D03*
Y0160527D03*
X01724999Y01399667D03*
Y01369667D03*
X01525Y01161735D03*
Y01131735D03*
X01259999Y00815269D03*
Y00845269D03*
X00614999Y0026527D03*
Y0023527D03*
X00300001Y0026527D03*
Y0023527D03*
X03363713Y0026527D03*
Y0023527D03*
X03232624Y0047527D03*
Y0044527D03*
X03034999Y01420272D03*
Y01390272D03*
X02893564Y0160527D03*
Y0163527D03*
X02630545Y00340271D03*
Y00370271D03*
X02499455D03*
Y00340271D03*
X03385545D03*
Y00370271D03*
X03254455D03*
Y00340271D03*
X02991436Y0163527D03*
Y0160527D03*
X02848864Y01390272D03*
Y01420272D03*
X02652376Y0044527D03*
Y0047527D03*
X02520002Y0026527D03*
Y0023527D03*
X03276287Y0026527D03*
Y0023527D03*
X03014306Y0152527D03*
Y0149527D03*
X02870001D03*
Y0152527D03*
X02608714Y0023527D03*
Y0026527D03*
X02477624Y0047527D03*
Y0044527D03*
G54D31*
X03224475Y00890272D03*
X03233975Y00870272D03*
X03214975D03*
X01724999Y01501742D03*
X01734499Y01481742D03*
X01715499D03*
X01327283Y00851553D03*
X01317783Y00871553D03*
X01336783D03*
X01326233Y00789519D03*
X01316733Y00809519D03*
X01335733D03*
X00119998Y01623499D03*
X00129498Y01603499D03*
X00110498D03*
X02613748Y00680249D03*
X02623248Y00660249D03*
X02604248D03*
X01524999Y01261031D03*
X01534499Y01241031D03*
X01515499D03*
X01920847Y00422769D03*
X01939847D03*
X01930347Y00442769D03*
X01757435Y0069652D03*
X01776435D03*
X01766935Y0071652D03*
X01595485Y00971756D03*
X01614485D03*
X01604985Y00991756D03*
X00756668Y00167499D03*
X00737669D03*
X00747168Y00147499D03*
X004145Y00167499D03*
X003955D03*
X00405Y00147499D03*
X01978376Y0033152D03*
X01997376D03*
X01987876Y0035152D03*
X01813135Y00605271D03*
X01832135D03*
X01822635Y00625271D03*
X01652906Y00879022D03*
X01671906D03*
X01662406Y00899022D03*
X01778998Y01556539D03*
X01797998D03*
X01788498Y01576539D03*
X01581513Y01321292D03*
X01600514D03*
X01591014Y01341292D03*
X01515499Y01048181D03*
X01534499D03*
X01524999Y01068181D03*
X00834502Y00167499D03*
X00815502D03*
X00825002Y00147499D03*
X00519501Y00167499D03*
X00500501D03*
X00510001Y00147499D03*
X01943768Y00176811D03*
X01962768D03*
X01953268Y00196811D03*
X01867047Y00514021D03*
X01886048D03*
X01876547Y00534021D03*
X01709248Y0078777D03*
X01728248D03*
X01718748Y0080777D03*
X01846296Y01635017D03*
X01865296D03*
X01855796Y01655017D03*
X0164876Y01401307D03*
X0166776D03*
X0165826Y01421307D03*
X01450498Y01162249D03*
X01469498D03*
X01459998Y01182249D03*
X01183Y00187249D03*
X01164D03*
X011735Y00167249D03*
X006245Y00167499D03*
X006055D03*
X00615Y00147499D03*
X002385Y00167499D03*
X002195D03*
X00229Y00147499D03*
X03521246Y0150027D03*
X03540246D03*
X03530746Y0152027D03*
X03454998Y01185249D03*
X03473998D03*
X03464498Y01205249D03*
X03406998Y00871249D03*
X03425998D03*
X03416498Y00891249D03*
X03349119Y00555271D03*
X03368119D03*
X0335862Y00575271D03*
X03423174Y0024027D03*
X03442175D03*
X03432674Y0026027D03*
X03155248Y00450249D03*
X03174248D03*
X03164748Y00470249D03*
X03272089Y00765271D03*
X03291088D03*
X03281588Y00785271D03*
X0319829Y01080271D03*
X03217291D03*
X0320779Y01100271D03*
X03103196Y01395272D03*
X03122196D03*
X03112696Y01415272D03*
X02830091Y0163027D03*
X02811092D03*
X02820591Y0161027D03*
X02719954Y01290271D03*
X02738953D03*
X02729454Y01310271D03*
X02652745Y0097527D03*
X02671745D03*
X02662245Y0099527D03*
X0270013Y00365271D03*
X0268113D03*
X0269063Y00345271D03*
X02429534D03*
X02448534D03*
X02439035Y00365271D03*
X02506748Y00660249D03*
X02525748D03*
X02516248Y00680249D03*
X02459901Y0097527D03*
X02478901D03*
X02469401Y0099527D03*
X02396678Y01290271D03*
X02415678D03*
X02406178Y01310271D03*
X02333693Y0161027D03*
X02352693D03*
X02343193Y0163027D03*
X03543808Y0161027D03*
X03562807D03*
X03553306Y0163027D03*
X03474954Y01290271D03*
X03493954D03*
X03484454Y01310271D03*
X03400806Y0097527D03*
X03419806D03*
X03410305Y0099527D03*
X03353292Y00660269D03*
X03372291D03*
X03362792Y00680269D03*
X03467239Y00365271D03*
X03448239D03*
X03457739Y00345271D03*
X03178498Y00343499D03*
X03197498D03*
X03187998Y00363499D03*
X03272089Y00660269D03*
X03291088D03*
X03281588Y00680269D03*
X03226203Y0097527D03*
X03245203D03*
X03235703Y0099527D03*
X03144633Y01290271D03*
X03163633D03*
X03154133Y01310271D03*
X03053855Y0161027D03*
X03072855D03*
X03063355Y0163027D03*
X0277895Y01415272D03*
X0275995D03*
X0276945Y01395272D03*
X02676248Y01080249D03*
X02695248D03*
X02685748Y01100249D03*
X02634658Y00766249D03*
X02653657D03*
X02644158Y00786249D03*
X02721176Y0047027D03*
X02702176D03*
X02711677Y0045027D03*
X02447412Y0024027D03*
X02466412D03*
X02456912Y0026027D03*
X02517248Y00555249D03*
X02536248D03*
X02526748Y00575249D03*
X02480362Y00870272D03*
X02499362D03*
X02489862Y00890272D03*
X02417179Y0118527D03*
X02436179D03*
X02426679Y0120527D03*
X02354784Y0150027D03*
X02373784D03*
X02364284Y0152027D03*
X03501068Y01390708D03*
X03520068D03*
X03510568Y01410708D03*
X03424686Y01080271D03*
X03443686D03*
X03434186Y01100271D03*
X03353292Y00765271D03*
X03372291D03*
X03362792Y00785271D03*
X03492928Y0047027D03*
X03473928D03*
X03483428Y0045027D03*
X03193954Y0024027D03*
X03212954D03*
X03203454Y0026027D03*
X03271998Y00555249D03*
X03290998D03*
X03281498Y00575249D03*
X03171452Y0118527D03*
X03190452D03*
X03180952Y0120527D03*
X03079777Y0150027D03*
X03098777D03*
X03089277Y0152027D03*
X0280275Y01520249D03*
X0278375D03*
X0279325Y01500249D03*
X02698686Y0118527D03*
X02717686D03*
X02708186Y0120527D03*
X02649206Y00890272D03*
X02630205D03*
X02639705Y00870272D03*
X02593248Y00555249D03*
X02612248D03*
X02602748Y00575249D03*
X02682524Y0026027D03*
X02663524D03*
X02673024Y0024027D03*
X02403931Y0045027D03*
X02422931D03*
X02413431Y0047027D03*
X02480362Y00765249D03*
X02499362D03*
X02489862Y00785249D03*
X02440354Y01080271D03*
X02459355D03*
X02449854Y01100271D03*
X02375285Y01395272D03*
X02394285D03*
X02384785Y01415272D03*
G54D32*
X01071018Y0035527D03*
X01091018Y0036477D03*
Y0034577D03*
X01385249Y01075749D03*
Y01056749D03*
X01405249Y01066249D03*
X01090811Y01395771D03*
Y01414771D03*
X01070811Y01405271D03*
X01090811Y0108077D03*
Y0109977D03*
X01070811Y0109027D03*
X01090811Y00870771D03*
Y00889771D03*
X01070811Y00880271D03*
X01090811Y00663295D03*
Y00682295D03*
X01070811Y00672795D03*
X00130328Y00397561D03*
Y00416561D03*
X00110328Y00407061D03*
X00130328Y0071624D03*
Y0073524D03*
X00110328Y0072574D03*
X00130328Y01028608D03*
Y01047608D03*
X00110328Y01038109D03*
X00130328Y01340211D03*
Y01359211D03*
X00110328Y01349711D03*
X01090811Y0150077D03*
Y0151977D03*
X01070811Y0151027D03*
X01090811Y01185769D03*
Y01204769D03*
X01070811Y01195269D03*
X01090811Y00975769D03*
Y00994769D03*
X01070811Y00985269D03*
X01090811Y0076577D03*
Y0078477D03*
X01070811Y0077527D03*
X01091018Y00450769D03*
Y00469769D03*
X01071018Y00460269D03*
X00130328Y00240769D03*
Y00259769D03*
X00110328Y00250269D03*
X00130328Y00610389D03*
Y00629389D03*
X00110328Y00619889D03*
X00130328Y00922759D03*
Y00941759D03*
X00110328Y00932259D03*
X00130328Y01236996D03*
Y01255996D03*
X00110328Y01246496D03*
X00130328Y01546694D03*
Y01565694D03*
X00110328Y01556194D03*
X01090811Y0160577D03*
Y01624771D03*
X01070811Y0161527D03*
X01090811Y0129077D03*
Y0130977D03*
X01070811Y0130027D03*
X01091018Y0055577D03*
Y0057477D03*
X01071018Y0056527D03*
X00130328Y00503342D03*
Y00522342D03*
X00110328Y00512842D03*
X00130328Y00817475D03*
Y00836476D03*
X00110328Y00826975D03*
X00130328Y01133326D03*
Y01152326D03*
X00110328Y01142826D03*
X00130328Y01449157D03*
Y01468157D03*
X00110328Y01458657D03*
G54D33*
X00315001Y00156486D03*
X00285001D03*
X00695665Y00157499D03*
X00665665D03*
X01869999Y00250249D03*
X01839999D03*
X01707823Y00524021D03*
X01677823D03*
X0154472Y00799519D03*
X0151472D03*
X01800749Y01635499D03*
X01770749D03*
X01597999Y01401499D03*
X01567999D03*
X01402749Y01161999D03*
X01372749D03*
X01256665Y01615271D03*
X01286665D03*
X01254261Y01300271D03*
X01284261D03*
X01395749Y00847792D03*
X01425749D03*
X01395749Y00786999D03*
X01425749D03*
X0124642Y00565271D03*
X0127642D03*
X01246419Y0025027D03*
X01276419D03*
X00113789Y0046027D03*
X00083789D03*
X00113789Y00775271D03*
X00083789D03*
X00113789Y01094719D03*
X00083789D03*
X00113785Y01405272D03*
X00083785D03*
X03517749Y0161027D03*
X03487749D03*
X03457894D03*
X03427894D03*
G54D34*
X00594349Y01257199D03*
X00607049D03*
X00632449D03*
X00619749D03*
G54D35*
X0052224Y01119414D02*
X00525021Y01133254D01*
X0050274Y01119494D02*
X0050813Y01143644D01*
X00481711Y01143784D02*
X0048704Y01119564D01*
X0052126Y01132044D02*
X0052478D01*
X0050097Y01132184D02*
X00505581D01*
X0050085Y01131444D02*
X0050541D01*
X00522191Y01137264D02*
X00530811D01*
X0052258Y01139504D02*
X00530811D01*
X0052272Y01140254D02*
X00530811D01*
X0052285Y01141004D02*
X00530811D01*
X0052298Y01141744D02*
X00530811D01*
X0052312Y01142494D02*
X00530811D01*
X0052325Y01143244D02*
X00530811D01*
X0052332Y01143635D02*
X00530811D01*
X00522321Y01138014D02*
X00530811D01*
X00522451Y01138764D02*
X00530811D01*
X0052165Y01134284D02*
X00530811D01*
X0052179Y01135024D02*
X00530811D01*
X00521921Y01135774D02*
X00530811D01*
X00522051Y01136524D02*
X00530811D01*
X0052139Y01132784D02*
X0052493D01*
X0052152Y01133534D02*
X00525231D01*
X00501691Y01136664D02*
X0050658D01*
X0050181Y01137414D02*
X0050674D01*
X00483281Y01136664D02*
X004882D01*
X0048311Y01137414D02*
X0048808D01*
X0050205Y01138904D02*
X0050708D01*
X00502171Y01139654D02*
X00507241D01*
X0050229Y01140404D02*
X0050741D01*
X0050241Y01141144D02*
X0050758D01*
X00502531Y01141894D02*
X00507741D01*
X0050265Y01142644D02*
X0050791D01*
X0050277Y01143384D02*
X00508081D01*
X0050283Y01143704D02*
X0050813Y01143644D01*
X0050193Y01138164D02*
X00506911D01*
X0050109Y01132934D02*
X00505741D01*
X0050121Y01133684D02*
X0050591D01*
X0050133Y01134424D02*
X00506081D01*
X0050145Y01135174D02*
X0050624D01*
X00501571Y01135924D02*
X00506411D01*
X0048213Y01141894D02*
X0048738D01*
X0048196Y01142644D02*
X00487261D01*
X004818Y01143384D02*
X0048714D01*
X00481711Y01143784D02*
X0048708D01*
X0048278Y01138904D02*
X0048785D01*
X0048262Y01139654D02*
X00487731D01*
X0048246Y01140404D02*
X0048761D01*
X0048229Y01141144D02*
X004875D01*
X00482951Y01138164D02*
X0048797D01*
X004841Y01132934D02*
X00488791D01*
X0048393Y01133684D02*
X0048867D01*
X0048377Y01134424D02*
X00488561D01*
X0048361Y01135174D02*
X0048844D01*
X00483441Y01135924D02*
X0048832D01*
X0052112Y01131294D02*
X00524631D01*
X0051674Y01128304D02*
X0052403D01*
X0051659Y01129054D02*
X00524181D01*
X00516901Y01127564D02*
X0052388D01*
X0052075Y01129804D02*
X0052433D01*
X0052099Y01130544D02*
X00524481D01*
X0049638Y01126214D02*
X0050424D01*
X0049627Y01126964D02*
X00504411D01*
X0049605Y01128454D02*
X00504741D01*
X0049616Y01127704D02*
X0050458D01*
X00496481Y01125464D02*
X0050408D01*
X0049659Y01124714D02*
X0050391D01*
X0049681Y01123224D02*
X0050358D01*
X004967Y01123974D02*
X0050374D01*
X00500391Y01129204D02*
X0050491D01*
X0050061Y01129944D02*
X0050508D01*
X00500731Y01130694D02*
X00505241D01*
X00530811Y01119344D02*
Y01143635D01*
X0052602Y01119414D02*
Y01133154D01*
X0050994Y01119414D02*
Y01143635D01*
X0051572Y01133254D02*
X00518571Y01119414D01*
X00514731Y01133154D02*
X0051479Y01119414D01*
X004925Y01119494D02*
X0049443Y01132844D01*
X0049542D02*
X0049735Y01119494D01*
X0052602Y01132044D02*
X00530811D01*
X0051744Y01143635D02*
X0051991Y01130034D01*
X005209D02*
X0052332Y01143635D01*
X0051597Y01132044D02*
X00519551D01*
X0050994D02*
X0051474D01*
X0049736Y01143714D02*
X0049954Y01129444D01*
X00495511Y01132184D02*
X00499121D01*
X0049562Y01131444D02*
X0049923D01*
X00500531Y01129444D02*
X0050283Y01143704D01*
X0048708Y01143784D02*
X0048932Y01129594D01*
X0049031D02*
X0049255Y01143714D01*
X0049072Y01132184D02*
X0049433D01*
X00490601Y01131444D02*
X0049422D01*
X0048426Y01132184D02*
X0048891D01*
X0048443Y01131444D02*
X0048903D01*
X0052602Y01132784D02*
X00530811D01*
X00525801Y01133534D02*
X00530811D01*
X00525921Y01133454D02*
X0052602Y01133154D01*
X00525661Y01133634D02*
X00525921Y01133454D01*
X0052534Y01133624D02*
X00525661Y01133634D01*
X005251Y01133424D02*
X0052534Y01133624D01*
X00525021Y01133254D02*
X005251Y01133424D01*
X0052602Y01131294D02*
X00530811D01*
X0052602Y01126064D02*
X00530811D01*
X0052602Y01126814D02*
X00530811D01*
X0052602Y01128304D02*
X00530811D01*
X0052602Y01129054D02*
X00530811D01*
X0052602Y01129804D02*
X00530811D01*
X0052602Y01130544D02*
X00530811D01*
X0052602Y01127564D02*
X00530811D01*
X0052602Y01119414D02*
X00530811Y01119344D01*
X0052602Y01125324D02*
X00530811D01*
X0052602Y01120094D02*
X00530811D01*
X0052602Y01120844D02*
X00530811D01*
X0052602Y01121584D02*
X00530811D01*
X0052602Y01122334D02*
X00530811D01*
X0052602Y01123084D02*
X00530811D01*
X0052602Y01123824D02*
X00530811D01*
X0052602Y01124574D02*
X00530811D01*
X0050994Y01137264D02*
X005186D01*
X0050994Y01139504D02*
X0051819D01*
X0050994Y01140254D02*
X0051805D01*
X0050994Y01141004D02*
X0051792D01*
X0050994Y01141744D02*
X0051778D01*
X0050994Y01142494D02*
X0051764D01*
X0050994Y01143244D02*
X0051751D01*
X0050994Y01143635D02*
X0051744D01*
X0050994Y01138014D02*
X0051846D01*
X0050994Y01138764D02*
X0051832D01*
X0051582Y01132784D02*
X00519411D01*
X0051555Y01133534D02*
X00519281D01*
X0050994Y01134284D02*
X00519141D01*
X0050994Y01135024D02*
X00519001D01*
X0050994Y01135774D02*
X0051887D01*
X0050994Y01136524D02*
X0051873D01*
X0050994Y01132784D02*
X0051474D01*
X0050994Y01133534D02*
X0051494D01*
X00515571Y01133524D02*
X0051572Y01133254D01*
X0051528Y01133654D02*
X00515571Y01133524D01*
X00514971Y01133574D02*
X0051528Y01133654D01*
X0051477Y01133334D02*
X00514971Y01133574D01*
X00514731Y01133154D02*
X0051477Y01133334D01*
X0051705Y01126814D02*
X0052373D01*
X00516131Y01131294D02*
X00519681D01*
X0050994D02*
X0051474D01*
X005172Y01126064D02*
X00523581D01*
X0050994D02*
X0051477D01*
X0050994Y01126814D02*
X00514761D01*
X00516431Y01129804D02*
X00520041D01*
X0051628Y01130544D02*
X0051982D01*
X0051991Y01130034D02*
X0052006Y01129764D01*
X0052035Y01129624*
X0052066Y01129694*
X0052087Y01129934*
X005209Y01130034*
X0050994Y01128304D02*
X00514761D01*
X0050994Y01129054D02*
X0051475D01*
X0050994Y01129804D02*
X0051475D01*
X0050994Y01130544D02*
X0051475D01*
X0050994Y01127564D02*
X00514761D01*
X0051736Y01125324D02*
X0052343D01*
X00518571Y01119414D02*
X0052224D01*
X0050994D02*
X0051479D01*
X0051843Y01120094D02*
X00522381D01*
X00518281Y01120844D02*
X0052253D01*
X0051812Y01121584D02*
X00522681D01*
X0051797Y01122334D02*
X0052283D01*
X0051782Y01123084D02*
X0052298D01*
X0051766Y01123824D02*
X0052313D01*
X0051751Y01124574D02*
X00523281D01*
X0050994Y01125324D02*
X0051477D01*
X0050994Y01120094D02*
X0051479D01*
X0050994Y01120844D02*
X0051479D01*
X0050994Y01121584D02*
X0051479D01*
X0050994Y01122334D02*
X0051478D01*
X0050994Y01123084D02*
X0051478D01*
X0050994Y01123824D02*
X0051478D01*
X0050994Y01124574D02*
X0051477D01*
X0049095Y01133684D02*
X0049889D01*
X00491071Y01134424D02*
X00498781D01*
X0049119Y01135174D02*
X0049866D01*
X00495371Y01132934D02*
X00499D01*
X00491431Y01136664D02*
X0049843D01*
X0049155Y01137414D02*
X0049832D01*
X0049178Y01138904D02*
X00498091D01*
X00491901Y01139654D02*
X0049798D01*
X0049202Y01140404D02*
X00497861D01*
X0049166Y01138164D02*
X0049821D01*
X0049214Y01141144D02*
X00497751D01*
X0049226Y01141894D02*
X0049763D01*
X0049238Y01142644D02*
X00497521D01*
X0049249Y01143384D02*
X0049741D01*
X0049255Y01143714D02*
X0049736D01*
X0049084Y01132934D02*
X0049445D01*
X0049131Y01135924D02*
X0049855D01*
X0049462Y01133174D02*
X0049492Y01133274D01*
X0049444Y01132914D02*
X0049462Y01133174D01*
X0049443Y01132844D02*
X0049444Y01132914D01*
X0049528Y01133124D02*
X0049542Y01132844D01*
X0049499Y01133274D02*
X0049528Y01133124D01*
X0049492Y01133274D02*
X0049499D01*
X00495941Y01129204D02*
X0049966D01*
X0049584Y01129944D02*
X00499461D01*
X0049573Y01130694D02*
X00499351D01*
X0049954Y01129444D02*
X0049968Y01129164D01*
X0049735Y01119494D02*
X0050274D01*
X0049713Y01120984D02*
X0050308D01*
X0049702Y01121734D02*
X00503241D01*
X00496921Y01122474D02*
X0050341D01*
X0049724Y01120234D02*
X0050291D01*
X0049968Y01129164D02*
X00499961Y01129024D01*
X00500031*
X0050033Y01129124*
X0050051Y01129374*
X00500531Y01129444*
X0048508Y01128454D02*
X0049379D01*
X00485251Y01127704D02*
X0049368D01*
X00489901Y01129204D02*
X004939D01*
X00490361Y01129944D02*
X0049401D01*
X0049048Y01130694D02*
X00494111D01*
X00485581Y01126214D02*
X0049347D01*
X0048541Y01126964D02*
X00493571D01*
X0048492Y01129204D02*
X00489691D01*
X00484751Y01129944D02*
X00489261D01*
X0048459Y01130694D02*
X0048914D01*
X0048574Y01125464D02*
X0049336D01*
X00486891Y01120234D02*
X00492601D01*
X0048672Y01120984D02*
X0049271D01*
X00486561Y01121734D02*
X0049282D01*
X004864Y01122474D02*
X0049293D01*
X0048623Y01123224D02*
X0049303D01*
X0048607Y01123974D02*
X00493141D01*
X004859Y01124714D02*
X0049325D01*
X0048704Y01119564D02*
X004925Y01119494D01*
X0048932Y01129594D02*
X00489461Y01129314D01*
X0048974Y01129174*
X0048981*
X0049011Y01129274*
X0049029Y01129524*
X0049031Y01129594*
G54D36*
X00553499Y01321749D02*
Y01344499D01*
X00578249Y01296999D02*
X00596799D01*
X00553499Y01321749D02*
X00578249Y01296999D01*
X00239749Y01658249D02*
X00553499Y01344499D01*
X00658705Y01225799D02*
X00669249Y01236343D01*
X00608354Y01225799D02*
X00658705D01*
X00669249Y01290499D02*
X01100999Y01722249D01*
X00669249Y01236343D02*
Y01290499D01*
X00644424Y01299924D02*
X01091749Y01747249D01*
X00644424Y01286024D02*
Y01299924D01*
X01091749Y01747249D02*
X01963999D01*
X01100999Y01722249D02*
X01952499D01*
X01029499Y01406999D02*
Y01615499D01*
X01111499Y01697499D02*
X01941499D01*
X01029499Y01615499D02*
X01111499Y01697499D01*
X00941999Y00467749D02*
X01029499Y00555249D01*
X00812749Y00338499D02*
X00941999Y00467749D01*
X00466374Y00365125D02*
X00492999Y00338499D01*
X00454499Y00376999D02*
X00466374Y00365125D01*
X00262749Y00568749D02*
X00363374Y00468124D01*
X00454499Y00376999*
X01310124Y00227374D02*
X01448374Y00365624D01*
X01457749Y00374999*
X00596799Y01296999D02*
X00607774Y01286024D01*
X02024499Y01686749D02*
X02568249D01*
X01963999Y01747249D02*
X02024499Y01686749D01*
X03187999Y01559499D02*
X03276999Y01470499D01*
X03320249Y01427249*
X03060749Y01686749D02*
X03187999Y01559499D01*
X02568249Y01686749D02*
X03060749D01*
X02696249Y0015875D02*
X02939749D01*
X03328499*
X03703749Y01173499D02*
Y01495749D01*
Y00860749D02*
Y01173499D01*
Y00539499D02*
Y00860749D01*
Y00436749D02*
Y00539499D01*
X03328499Y0015875D02*
X03425749D01*
X02463999D02*
X02696249D01*
X02341874Y00280874D02*
X02463999Y0015875D01*
X02187999Y00434749D02*
X02341874Y00280874D01*
X02187999Y00665749D02*
Y00975249D01*
Y00434749D02*
Y00665749D01*
Y00975249D02*
Y01286499D01*
Y01486749*
X02117374Y01557374D02*
X02187999Y01486749D01*
X01952499Y01722249D02*
X02117374Y01557374D01*
X03425749Y0015875D02*
X03703749Y00436749D01*
X03689228Y0151027D02*
X03703749Y01495749D01*
X03643499Y0151027D02*
X03689228D01*
X01308749Y01163249D02*
Y01172999D01*
Y00973499D02*
Y01163249D01*
X01457749Y00787749D02*
Y00804249D01*
Y00566749D02*
Y00787749D01*
X00051749Y01596499D02*
X00113499Y01658249D01*
X00051749Y01405499D02*
Y01596499D01*
X00113499Y01658249D02*
X00239749D01*
X01308749Y00973499D02*
X01332499Y00949749D01*
X01424749*
X01457749Y00916749*
X01451749Y01461499D02*
X01625749Y01635499D01*
X01308749Y01318499D02*
X01451749Y01461499D01*
X01029499Y01090124D02*
Y01406999D01*
X01308749Y01172999D02*
Y01300749D01*
Y01318499*
X01457749Y00520999D02*
Y00566749D01*
Y00374999D02*
Y00520999D01*
Y00842249D02*
Y00916749D01*
Y00804249D02*
Y00842249D01*
X01203499Y00120749D02*
X01310124Y00227374D01*
X00697499Y00120749D02*
X01203499D01*
X00315999D02*
X00697499D01*
X00195749D02*
X00315999D01*
X00051749Y00460749D02*
Y00774999D01*
Y00264749D02*
Y00460749D01*
Y00774999D02*
Y01094499D01*
Y01405499*
Y00264749D02*
X00195749Y00120749D01*
X01798749Y00736999D02*
X01908999Y00626749D01*
X01758749Y00776999D02*
X01798749Y00736999D01*
X01758749Y00988749D02*
Y01236499D01*
Y00776999D02*
Y00988749D01*
Y01236499D02*
Y01296249D01*
X01878374Y01415874D02*
X01977249Y01514749D01*
X01758749Y01296249D02*
X01878374Y01415874D01*
X01977249Y01514749D02*
Y01661749D01*
X01941499Y01697499D02*
X01977249Y01661749D01*
X01908999Y00503249D02*
Y00626749D01*
X01873499Y00446749D02*
Y00467749D01*
X01908999Y00503249*
X00553749Y01199749D02*
X00585249Y01231249D01*
X01029499Y00882999D02*
Y01090124D01*
Y00673499D02*
Y00882999D01*
Y00555249D02*
Y00673499D01*
X00721999Y00338499D02*
X00812749D01*
X00492999D02*
X00721999D01*
X00262749Y00667249D02*
Y00986499D01*
Y00568749D02*
Y00667249D01*
Y00986499D02*
Y01199749D01*
Y01301249D02*
Y01593962D01*
Y01199749D02*
Y01301249D01*
Y01199749D02*
X00553749D01*
X00227499Y01602749D02*
X00253962D01*
X00262749Y01593962*
X00221499Y01604499D02*
X00222499Y01603499D01*
G54D37*
X00941999Y00467749D02*
X01054478Y0035527D01*
X01071018*
X00404999Y0026527D02*
Y00303749D01*
X00466374Y00365125*
X00250521Y00355271D02*
X00363374Y00468124D01*
X0021Y00355271D02*
X00250521D01*
X01523749Y00985385D02*
Y01010771D01*
X03282999Y00472999D02*
X03320249D01*
X03320999Y00503249D02*
X03357598D01*
X03320249Y00503999D02*
X03320999Y00503249D01*
X03320249Y00901522D02*
X03373337D01*
X03266502D02*
X03320249D01*
X03321249Y01111499D02*
X03391499D01*
X03320249Y01112499D02*
X03321249Y01111499D01*
X03225121Y01216499D02*
X03318499D01*
X03320249Y01218249*
X03325539Y01421959D02*
X03468113D01*
X03320249Y01427249D02*
X03325539Y01421959D01*
X03276999Y01470499D02*
X0341677Y0161027D01*
X03427894*
X03132193Y0153152D02*
X0316002D01*
X03187999Y01559499*
X02572999Y01501499D02*
X02753145D01*
X02567499Y01495999D02*
X02572999Y01501499D01*
X02427499Y01426499D02*
X02567249D01*
X02567499Y01426249*
X02567999Y01216499D02*
X02665249D01*
X02567499Y01216999D02*
X02567999Y01216499D01*
X02493455Y01111521D02*
X02567021D01*
X02567499Y01111999*
X02440354Y01069894D02*
X02444499Y01065749D01*
X02440354Y01069894D02*
Y01080271D01*
X02488999Y01065749D02*
X02493455Y01070205D01*
X02444499Y01065749D02*
X02488999D01*
X02493455Y01070205D02*
Y01081521D01*
X02568249Y00871499D02*
X02596999D01*
X02567499Y00872249D02*
X02568249Y00871499D01*
X02532948Y00797499D02*
X02566499D01*
X02567499Y00798499*
Y00503249D02*
X02595249D01*
X02538128Y0050352D02*
X0256577D01*
X03603249Y01173999D02*
X03703249D01*
X03703749Y01173499*
X03537499Y00858499D02*
X03701499D01*
X03703749Y00860749*
X03472999Y00543249D02*
X03699999D01*
X03703749Y00539499*
X03330749Y00160999D02*
Y00268285D01*
X03333213Y00270749*
X03341749*
X03328499Y0015875D02*
X03330749Y00160999D01*
X02940249Y01448249D02*
X03013249D01*
X02939749Y01448749D02*
X02940249Y01448249D01*
X02939999Y01108999D02*
X03056249D01*
X02939749Y01109249D02*
X02939999Y01108999D01*
X02939749Y00796999D02*
X03122999D01*
X02940749Y00502999D02*
X03209999D01*
X02939749Y00503999D02*
X02940749Y00502999D01*
X02648445Y00900999D02*
X02649206Y00900238D01*
X02596999Y00901499D02*
X02597499Y00900999D01*
X02648445*
X02649206Y00900238D02*
Y00910205D01*
Y00890272D02*
Y00900238D01*
X02653999Y00914999D02*
X02748249D01*
X02649206Y00910205D02*
X02653999Y00914999D01*
X02598999Y00680249D02*
X02613748D01*
X02589999Y00648999D02*
Y00671249D01*
X02598999Y00680249*
X02620749Y00618249D02*
X02939749D01*
X02589999Y00648999D02*
X02620749Y00618249D01*
X02776535Y0098527D02*
X02939728D01*
X02939749Y00985249*
X02842029Y01300271D02*
X02938771D01*
X02939749Y01301249*
X02516248Y00680249D02*
Y0070032D01*
Y00678249D02*
Y00680249D01*
X02684499Y00312499D02*
X02696249Y00300749D01*
Y0015875D02*
Y00300749D01*
X02651999Y00312499D02*
X02684499D01*
X02426271Y00365271D02*
X02439035D01*
X02341874Y00280874D02*
X02426271Y00365271D01*
X02190999Y00668749D02*
X02393999D01*
X02187999Y00665749D02*
X02190999Y00668749D01*
X0219075Y00977999D02*
X02330999D01*
X02187999Y00975249D02*
X0219075Y00977999D01*
X02189499Y01284999D02*
X02258249D01*
X02187999Y01286499D02*
X02189499Y01284999D01*
X02427499Y01385499D02*
Y01396499D01*
X02380749Y01380499D02*
X02422499D01*
X02427499Y01385499*
X02375285Y01385963D02*
X02380749Y01380499D01*
X02375285Y01385963D02*
Y01395272D01*
X02168749Y01608749D02*
X02195499D01*
X02117374Y01557374D02*
X02168749Y01608749D01*
X03457894Y0161027D02*
X03487749D01*
X03517749D02*
X03543806D01*
X03543808*
X03502499Y01622749D02*
X0351002Y0163027D01*
X03505428Y0150027D02*
X03521246D01*
X03502499Y01503199D02*
X03505428Y0150027D01*
X03502499Y01503199D02*
Y01622749D01*
X0351002Y0163027D02*
X03553306D01*
X03468113Y01391958D02*
X03469363Y01390708D01*
X03501068*
X03452398Y01310248D02*
X03484454D01*
X03443628Y01188257D02*
Y01301477D01*
Y01188257D02*
X03446557Y01185328D01*
X03454919*
X03443628Y01301477D02*
X03452398Y01310248D01*
X03392727Y01080271D02*
X03424686D01*
X03391499Y01081499D02*
X03392727Y01080271D01*
X03389178Y00994749D02*
X03409784D01*
X03386249Y00962999D02*
X03396249Y00952999D01*
X03386249Y0099182D02*
X03389178Y00994749D01*
X03386249Y00962999D02*
Y0099182D01*
X03409784Y00994749D02*
X03410305Y0099527D01*
X03396249Y00874999D02*
Y00952999D01*
X03399238Y0087201D02*
X03406237D01*
X03396249Y00874999D02*
X03399238Y0087201D01*
X03406237D02*
X03406998Y00871249D01*
X03342999Y00769357D02*
X03345928Y00766428D01*
X03342999Y00800249D02*
X03373337Y00830587D01*
X03352134Y00766428D02*
X03353292Y00765271D01*
X03345928Y00766428D02*
X03352134D01*
X03342999Y00769357D02*
Y00800249D01*
X03353292Y0075645D02*
Y00765271D01*
X03373337Y00830587D02*
Y00871522D01*
X03337749Y00671499D02*
X03346519Y00680269D01*
X0334904Y0055535D02*
X03349119Y00555271D01*
X03340678Y0055535D02*
X0334904D01*
X03337749Y00558279D02*
X03340678Y0055535D01*
X03337749Y00558279D02*
Y00671499D01*
X03362999Y00680269D02*
Y00699496D01*
X03346519Y00680269D02*
X03362792D01*
X03485749Y00717999D02*
X03506249Y00697499D01*
X03485749Y00717999D02*
Y00754999D01*
X03495499Y00633249D02*
X03506249Y00643999D01*
Y00697499*
X03441999Y00633249D02*
X03495499D01*
X03437749Y00637499D02*
X03441999Y00633249D01*
X03437749Y00649249D02*
X03438249Y00649749D01*
X03437749Y00637499D02*
Y00649249D01*
X03552284Y01033D02*
X03572784Y010125D01*
X03552284Y01033D02*
Y0107D01*
X03562034Y0094825D02*
X03572784Y00959D01*
Y010125*
X03508534Y0094825D02*
X03562034D01*
X03504284Y009525D02*
X03508534Y0094825D01*
X03504284Y0096425D02*
X03504784Y0096475D01*
X03504284Y009525D02*
Y0096425D01*
X03617778Y01348D02*
X03638278Y013275D01*
X03617778Y01348D02*
Y01385D01*
X03627528Y0126325D02*
X03638278Y01274D01*
Y013275*
X03574028Y0126325D02*
X03627528D01*
X03569778Y012675D02*
X03574028Y0126325D01*
X03569778Y0127925D02*
X03570278Y0127975D01*
X03569778Y012675D02*
Y0127925D01*
X03543808Y01601449D02*
X03546735Y0159852D01*
X03543808Y01601449D02*
Y0161027D01*
X03546735Y0159852D02*
X03615499D01*
X03521246Y01491449D02*
X03524175Y0148852D01*
X03521246Y01491449D02*
Y0150027D01*
X03524175Y0148852D02*
X03596249D01*
X03549749Y01384499D02*
X03559999D01*
X03560249Y01384749*
X03544208Y01378958D02*
X03549749Y01384499D01*
X03501068Y01381887D02*
X03503997Y01378958D01*
X03501068Y01381887D02*
Y01390708D01*
X03503997Y01378958D02*
X03544208D01*
X03474954Y0128145D02*
X03477883Y01278521D01*
X03474954Y0128145D02*
Y01290271D01*
X03477883Y01278521D02*
X03541999D01*
X03454998Y01176428D02*
X03457927Y01173499D01*
X03454998Y01176428D02*
Y01185249D01*
X03457927Y01173499D02*
X03528749D01*
X03424686Y0107145D02*
X03427615Y01068521D01*
X03424686Y0107145D02*
Y01080271D01*
X03427615Y01068521D02*
X03505999D01*
X03400806Y00966449D02*
X03403734Y0096352D01*
X03400806Y00966449D02*
Y0097527D01*
X03403734Y0096352D02*
X03477749D01*
X03406998Y00862428D02*
X03409927Y00859499D01*
X03406998Y00862428D02*
Y00871249D01*
X03409927Y00859499D02*
X03447249D01*
X03353292Y0075645D02*
X03356221Y0075352D01*
X03438749*
X03353292Y00651448D02*
X03356221Y00648519D01*
X03353292Y00651448D02*
Y00660269D01*
X03356221Y00648519D02*
X03413749D01*
X03349119Y0054645D02*
X03352048Y00543521D01*
X03349119Y0054645D02*
Y00555271D01*
X03352048Y00543521D02*
X0338937D01*
X03357598Y00473249D02*
X03405355D01*
X03407376Y0047527*
X03430438Y00480747D02*
X03430938Y00481248D01*
X03489999*
X03492928Y00478319*
Y0047027D02*
Y00478319D01*
X03412376Y0045027D02*
X03483428D01*
X03407376Y0044527D02*
X03412376Y0045027D01*
X03406249Y00418499D02*
Y00424499D01*
X03407249Y00400749D02*
Y00417499D01*
X03406249Y00418499D02*
X03407249Y00417499D01*
X03467239Y00365271D02*
Y0037332D01*
X0346431Y00376249D02*
X03467239Y0037332D01*
X03405249Y00376249D02*
X0346431D01*
X03404749Y00375749D02*
X03405249Y00376249D01*
X03423174Y00230928D02*
Y0024027D01*
Y00230928D02*
X03426103Y00227999D01*
X03450499*
X03457739Y00235239D02*
Y00345271D01*
X03450499Y00227999D02*
X03457739Y00235239D01*
X03403521Y00345271D02*
X03457739D01*
X03402749Y00344499D02*
X03403521Y00345271D01*
X03298249Y00236499D02*
X03307499D01*
X03320551Y00249551D02*
Y00389249D01*
X03307499Y00236499D02*
X03320551Y00249551D01*
X03384999Y00262749D02*
X03385749Y00263499D01*
X03396499*
X03399728Y0026027*
X03432674*
X03385749Y00236999D02*
X03394249D01*
X0339752Y0024027D02*
X03423174D01*
X03394249Y00236999D02*
X0339752Y0024027D01*
X03254749Y00293749D02*
Y00319999D01*
X03254249Y00320499D02*
X03254749Y00319999D01*
X03233749Y00400249D02*
Y00419749D01*
X03234499Y00420499*
X03197169Y00228248D02*
X03264249D01*
X03193954Y00231463D02*
Y0024027D01*
Y00231463D02*
X03197169Y00228248D01*
X03181713Y00331477D02*
X03231963D01*
X03233713Y00329727*
X03178498Y00334691D02*
Y00343499D01*
Y00334691D02*
X03181713Y00331477D01*
X03158463Y00438227D02*
X03208713D01*
X03210463Y00436477*
X03155248Y00441441D02*
Y00450249D01*
Y00441441D02*
X03158463Y00438227D01*
X03203454Y0026027D02*
X03203884Y002607D01*
Y00268361*
X03207022Y00271499*
X03254272*
X03187998Y00363499D02*
X03188428Y00363929D01*
Y0037159*
X03191566Y00374728*
X03238816*
X03164748Y00470249D02*
X03165178Y00470679D01*
Y0047834*
X03168316Y00481478*
X03215566*
X03284249Y00503249D02*
Y00522499D01*
X03271998Y0053475D02*
X03284249Y00522499D01*
X03271998Y0053475D02*
Y00555249D01*
X03237499D02*
X03271998D01*
X03236499Y00554249D02*
X03237499Y00555249D01*
X03209499Y00598228D02*
X03271304D01*
X03201456D02*
X03209499D01*
X03203961Y00670269D02*
X03208961Y00665269D01*
Y00657378D02*
Y00665269D01*
Y00657378D02*
X03209499Y0065684D01*
Y00598228D02*
Y0065684D01*
X03216749Y00661999D02*
X03270588D01*
X03272089Y00660269D02*
Y00660499D01*
X03270588Y00661999D02*
X03272089Y00660499D01*
X03201728Y00765271D02*
X03272089D01*
X03200499Y00766499D02*
X03201728Y00765271D01*
X03188499Y00703228D02*
X03276305D01*
X03178458D02*
X03188499D01*
X03190249Y00704978D02*
Y00769499D01*
X03188499Y00703228D02*
X03190249Y00704978D01*
X03276305Y00703228D02*
X03281749Y00697784D01*
Y00679715D02*
Y00697784D01*
X03362999Y00699496D02*
X03366752Y00703249D01*
X03214975Y00861023D02*
Y00870272D01*
Y00861023D02*
X03218249Y00857749D01*
X03263249*
X03266502Y00861002*
Y00871522*
X03176022Y00870272D02*
X03214975D01*
X03175249Y00869499D02*
X03176022Y00870272D01*
X03155749Y00975999D02*
X03156478Y0097527D01*
X03226203*
X03144499Y00913251D02*
X03214281D01*
X03133478D02*
X03144499D01*
X03138465Y0098527D02*
X03143465Y0098027D01*
Y00972875D02*
Y0098027D01*
Y00972875D02*
X03144499Y00971841D01*
Y00913251D02*
Y00971841D01*
X03116634Y01085271D02*
Y01090271D01*
Y01084771D02*
Y01085271D01*
X03123499Y01018249D02*
X03225509D01*
X03113228D02*
X03123499D01*
X03116634Y01084771D02*
X03123499Y01077906D01*
Y01018249D02*
Y01077906D01*
X03121634Y01080271D02*
X0319829D01*
X03116634Y01085271D02*
X03121634Y01080271D01*
X03175Y01172749D02*
X03222192D01*
X03225121Y01175678D02*
Y01186499D01*
X03222192Y01172749D02*
X03225121Y01175678D01*
X03171452Y01176296D02*
X03175Y01172749D01*
X03171452Y01176296D02*
Y0118527D01*
X03106228D02*
X03171452D01*
X03105749Y01185749D02*
X03106228Y0118527D01*
X03079249Y01228249D02*
X03170758D01*
X03062237D02*
X03079249D01*
Y01287999*
X03081999Y01290749*
X03082477Y01290271*
X03144633*
X03057499Y0133325D02*
X03143939D01*
X03035418D02*
X03057499D01*
Y01365499*
X03056499Y01366499D02*
X03057499Y01365499D01*
X03039999Y01395272D02*
X03103196D01*
X03034999Y01390272D02*
X03039999Y01395272D01*
Y01415272D02*
X03112696D01*
X03034999Y01420272D02*
X03039999Y01415272D01*
X03079777Y01491721D02*
Y0150027D01*
Y01491721D02*
X03082749Y01488749D01*
X03132193Y01491678D02*
Y01501521D01*
X03129264Y01488749D02*
X03132193Y01491678D01*
X03082749Y01488749D02*
X03129264D01*
X03024806Y0150027D02*
X03079777D01*
X03019806Y0149527D02*
X03024806Y0150027D01*
X03014306Y0149527D02*
X03019806D01*
X03030749Y01522499D02*
X03032978Y0152027D01*
X03089277*
X03011249Y01573749D02*
X03012999Y01575499D01*
X03011249Y01549749D02*
Y01573749D01*
X03013249Y01608249D02*
X03030249D01*
X03012999Y01607999D02*
X03013249Y01608249D01*
X0303227Y0161027D02*
X03053855D01*
X03030249Y01608249D02*
X0303227Y0161027D01*
X03012499Y01632249D02*
X03028499D01*
X03011749Y01632999D02*
X03012499Y01632249D01*
X03030478Y0163027D02*
X03063355D01*
X03028499Y01632249D02*
X03030478Y0163027D01*
X02893564Y0163527D02*
X02991436D01*
X02861999Y01632749D02*
X02871249D01*
X02871499Y01632499*
X02830091Y0163027D02*
X0285952D01*
X02861999Y01632749*
X02820591Y0161027D02*
X02888565D01*
X02893564Y0160527*
X0280275Y01520249D02*
X02839999D01*
X02841749Y01521999*
X02846749*
X0280255Y01520449D02*
Y0152857D01*
Y01520449D02*
X02802761Y01520238D01*
X02753145Y01531499D02*
X02799621D01*
X0280255Y0152857*
X02841499Y01497499D02*
X02846999D01*
X02847249Y01497749*
X0279325Y01500249D02*
X02838749D01*
X02841499Y01497499*
X02870499Y01448999D02*
Y01480999D01*
X02871499Y01481999*
X02824749Y01418999D02*
X02826999Y01421249D01*
X02813772Y01415272D02*
X02817499Y01418999D01*
X02824749*
X02707249Y01293928D02*
Y01344249D01*
X02758272Y01395272*
X02830976*
X02710178Y01290999D02*
X02719225D01*
X02707249Y01293928D02*
X02710178Y01290999D01*
X02719225D02*
X02719954Y01290271D01*
X02830976Y01395272D02*
X02832749Y01393499D01*
X0277895Y01415272D02*
X02813772D01*
X02817876Y01137998D02*
X02838376Y01117498D01*
X02817876Y01137998D02*
Y01174998D01*
X02827626Y01053248D02*
X02838376Y01063998D01*
Y01117498*
X02774126Y01053248D02*
X02827626D01*
X02769876Y01057498D02*
X02774126Y01053248D01*
X02769876Y01069248D02*
X02770376Y01069748D01*
X02769876Y01057498D02*
Y01069248D01*
X02640249Y01070499D02*
X02669999Y01100249D01*
X02640249Y00978826D02*
Y01070499D01*
X02643178Y00975897D02*
X02652119D01*
X02640249Y00978826D02*
X02643178Y00975897D01*
X02652119D02*
X02652745Y0097527D01*
Y00967929D02*
Y0097527D01*
X02669999Y01100249D02*
X02685748D01*
X02666478Y0118527D02*
X02698686D01*
X02665249Y01186499D02*
X02666478Y0118527D01*
X02752749Y00902249D02*
Y00910499D01*
Y00902249D02*
X02753499Y00901499D01*
X02748249Y00914999D02*
X02752749Y00910499D01*
X02639705Y00870272D02*
X02719705D01*
X02724704Y00875272*
Y00880272*
X02622499Y00769859D02*
X02625428Y0076693D01*
X02622499Y00830499D02*
X02639705Y00847705D01*
X02625428Y0076693D02*
X02633976D01*
X02634658Y00766249*
X02622499Y00769859D02*
Y00830499D01*
X02634658Y00758907D02*
Y00766158D01*
X02639705Y00847705D02*
Y00870272D01*
X02682749Y00637499D02*
Y00649249D01*
X02683249Y00649749*
X02682749Y00637499D02*
X02686999Y00633249D01*
X02740499*
X02751249Y00643999D02*
Y00697499D01*
X02740499Y00633249D02*
X02751249Y00643999D01*
X02730749Y00717999D02*
Y00754999D01*
Y00717999D02*
X02751249Y00697499D01*
X02532948Y00754928D02*
Y00767499D01*
X02530019Y00751999D02*
X02532948Y00754928D01*
X02485249Y00751999D02*
X02530019D01*
X02480362Y00765249D02*
X02480441Y0076517D01*
Y00756807D02*
Y0076517D01*
Y00756807D02*
X02485249Y00751999D01*
X02604248Y00652928D02*
Y00660249D01*
Y00652928D02*
X02607177Y00649999D01*
X02658749*
X02717394Y00703249D02*
X02719873Y00700769D01*
X02613999Y00681365D02*
Y0070032D01*
X02616928Y00703249D02*
X02717394D01*
X02613999Y0070032D02*
X02616928Y00703249D01*
X02719873Y00690249D02*
Y00700769D01*
X0241411Y00690249D02*
Y0070032D01*
X02513319Y00703249D02*
X02516248Y0070032D01*
X02415349Y00702009D02*
X02416589Y00703249D01*
X02513319*
X02415349Y00701559D02*
Y00702009D01*
X0241411Y0070032D02*
X02415349Y00701559D01*
X02466479Y00660269D02*
X02473499D01*
X0247352Y00660249D02*
X02506748D01*
X02473499Y00660269D02*
X0247352Y00660249D01*
X02722883Y0128D02*
X02789524D01*
X02719954Y01282929D02*
X02722883Y0128D01*
X02719954Y01282929D02*
Y01290271D01*
X02789524Y0128D02*
X02790774Y0127875D01*
X02701615Y01174999D02*
X02768256D01*
X02698686Y01177928D02*
X02701615Y01174999D01*
X02698686Y01177928D02*
Y0118527D01*
X02768256Y01174999D02*
X02769506Y01173749D01*
X02679177Y01069978D02*
X02745818D01*
X02676248Y01072907D02*
X02679177Y01069978D01*
X02676248Y01072907D02*
Y01080249D01*
X02745818Y01069978D02*
X02747068Y01068729D01*
X02655674Y00965D02*
X02722315D01*
X02652745Y00967929D02*
X02655674Y00965D01*
X02722315D02*
X02723565Y0096375D01*
X02637586Y00755979D02*
X02704228D01*
X02634658Y00758907D02*
X02637586Y00755979D01*
X02704228D02*
X02705478Y00754729D01*
X02658749Y00649999D02*
X02659999Y00648749D01*
X02614838Y00543499D02*
X02633499D01*
X02596177D02*
X02614838D01*
X02614999Y00477999D02*
Y00543338D01*
X02614838Y00543499D02*
X02614999Y00543338D01*
X02595249Y00473249D02*
X02610249D01*
X02614999Y00477999*
X02593248Y00546428D02*
Y00555249D01*
Y00546428D02*
X02596177Y00543499D01*
X02633499D02*
X02633999Y00543999D01*
X02696499Y00481248D02*
X02718247D01*
X02671045D02*
X02696499D01*
X02696249Y00481497D02*
Y00548749D01*
Y00481497D02*
X02696499Y00481248D01*
X02670795Y00480997D02*
X02671045Y00481248D01*
X02718247D02*
X02721176Y00478319D01*
Y0047027D02*
Y00478319D01*
X02711644Y00450237D02*
X02711709Y00450302D01*
X02708715Y0043928D02*
X02711644Y00442209D01*
Y00450237*
X02669578Y0043928D02*
X02708715D01*
X02632499Y00394249D02*
X02632749Y00393999D01*
X02632499Y00394249D02*
Y00416499D01*
X0270013Y00365271D02*
Y0037332D01*
X02697201Y00376249D02*
X0270013Y0037332D01*
X02649999Y00376249D02*
X02697201D01*
X02649749Y00375999D02*
X02649999Y00376249D01*
X02648499Y00334249D02*
X02687636D01*
X02690565Y00337178D02*
Y00345206D01*
X02687636Y00334249D02*
X02690565Y00337178D01*
Y00345206D02*
X0269063Y00345271D01*
X02567499Y00303499D02*
X02579499Y00291499D01*
X02587499*
X02567499Y00303499D02*
Y00389249D01*
X02623999Y00273249D02*
X02678249D01*
X02623749Y00273499D02*
X02623999Y00273249D01*
X02682524Y0026027D02*
Y00268974D01*
X02678249Y00273249D02*
X02682524Y00268974D01*
X02673024Y00231678D02*
Y0024027D01*
X02608714Y0023527D02*
X02614213D01*
X02620735Y00228749*
X02670095*
X02673024Y00231678*
X02520002Y0023527D02*
X02608714D01*
X02447412Y00231463D02*
X02450627Y00228248D01*
X02447412Y00231463D02*
Y0024027D01*
X02500877Y00228248D02*
X02502627Y00226498D01*
X02450627Y00228248D02*
X02500877D01*
X02456912Y0026027D02*
Y00269033D01*
X02461127Y00273248*
X02502627*
X02519249Y00332999D02*
X02520002Y00332246D01*
Y0026527D02*
Y00332246D01*
X02432749Y00333249D02*
X02482999D01*
X02484749Y00331499*
X02429534Y00336464D02*
Y00345271D01*
Y00336464D02*
X02432749Y00333249D01*
X02443249Y00378249D02*
X02484749D01*
X02439035Y00374034D02*
X02443249Y00378249D01*
X02439035Y00365271D02*
Y00374034D01*
X02538128Y00458628D02*
Y0047352D01*
X0252477Y0044527D02*
X02538128Y00458628D01*
X02477624Y0044527D02*
X0252477D01*
X02477624Y00556124D02*
X02479249Y00557749D01*
X02477624Y0047527D02*
Y00556124D01*
X02416999Y00481499D02*
X02464249D01*
X02413861Y00478361D02*
X02416999Y00481499D01*
X02413861Y004707D02*
Y00478361D01*
X02413431Y0047027D02*
X02413861Y004707D01*
X02409499Y00434749D02*
X02465999D01*
X02466249Y00434499*
X02403931Y00440317D02*
X02409499Y00434749D01*
X02403931Y00440317D02*
Y0045027D01*
X02453999Y00598228D02*
X02516554D01*
X02444456D02*
X02453999D01*
X02448959Y00670269D02*
X02453959Y00665269D01*
Y0065688D02*
Y00665269D01*
Y0065688D02*
X02453999Y0065684D01*
Y00598228D02*
Y0065684D01*
X02482749Y00555249D02*
X02517248D01*
X02466249Y00660499D02*
X02466479Y00660269D01*
X02442749Y00765249D02*
X02480362D01*
X02441999Y00764499D02*
X02442749Y00765249D01*
X02411749Y00808228D02*
X02479667D01*
X02402207D02*
X02411749D01*
X02405002Y00874771D02*
Y00880272D01*
Y00874771D02*
X02411749Y00868024D01*
Y00808228D02*
Y00868024D01*
X02419726Y00870272D02*
X02480362D01*
X02416999Y00872999D02*
X02419726Y00870272D01*
X02389749Y00913251D02*
X02479667D01*
X02371147D02*
X02389749D01*
X02388465Y0097527D02*
X02459901D01*
X02389749Y00913251D02*
Y00971249D01*
X02390499Y00971999*
X02383465Y0098027D02*
X02388465Y0097527D01*
X02383465Y0098027D02*
Y0098527D01*
X02373249Y01082749D02*
X02375727Y01080271D01*
X02440354*
X02356478Y0118527D02*
X02417179D01*
X02354999Y01186749D02*
X02356478Y0118527D01*
X02345999Y0112325D02*
X0243966D01*
X02331139D02*
X02345999D01*
X02339803Y0119527D02*
X02344803Y0119027D01*
Y01183037D02*
Y0119027D01*
Y01183037D02*
X02345999Y01181841D01*
Y0112325D02*
Y01181841D01*
X02324999Y01228249D02*
X02416485D01*
X02307964D02*
X02324999D01*
X02325749Y01296999D02*
X02327749Y01294999D01*
Y01281999D02*
Y01294999D01*
X02324999Y01228249D02*
Y01279249D01*
X02327749Y01281999*
X02333999Y01290499D02*
X02334227Y01290271D01*
X02285249Y0150027D02*
X02354784D01*
X02279306D02*
X02285249D01*
X02285749Y01438251D02*
X02374591D01*
X0226607D02*
X02285749D01*
Y0149977*
X02285249Y0150027D02*
X02285749Y0149977D01*
X02262249Y01543249D02*
X0235409D01*
X02245569D02*
X02262249D01*
X02260249Y01611749D02*
X02262249Y01609749D01*
Y01543249D02*
Y01609749D01*
X02334227Y01290271D02*
X02396678D01*
X0230114Y01395272D02*
X02375285D01*
X0229614Y01400272D02*
X0230114Y01395272D01*
X0229614Y01400272D02*
Y01405272D01*
X02274306Y0150527D02*
X02279306Y0150027D01*
X02274306Y0150527D02*
Y0151027D01*
X02263249Y01610999D02*
X02263978Y0161027D01*
X02333693*
X03368814Y0059825D02*
X0343952D01*
X03441999Y00595771*
Y0058309D02*
Y00595771D01*
X0335862Y00575271D02*
Y00588056D01*
X03368814Y0059825*
X03366752Y00703249D02*
X03475272D01*
X03477751Y00700769*
Y00690249D02*
Y00700769D01*
X03362792Y00785271D02*
Y00798055D01*
X03372986Y0080825D02*
X03481507D01*
X03483986Y00805771*
Y0079525D02*
Y00805771D01*
X03362792Y00798055D02*
X03372986Y0080825D01*
X03426692Y00914228D02*
X0350582D01*
X03508749Y00911299*
Y00898832D02*
Y00911299D01*
X03416498Y00891249D02*
Y00904034D01*
X03426692Y00914228*
X03410305Y0099527D02*
Y01008055D01*
X03420499Y01018249D02*
X03529021D01*
X035315Y0101577*
Y01005249D02*
Y0101577D01*
X03410305Y01008055D02*
X03420499Y01018249D01*
X03434186Y01100271D02*
Y01113056D01*
X0344438Y0112325D02*
X03552901D01*
X0355538Y01120771*
Y0111025D02*
Y01120771D01*
X03434186Y01113056D02*
X0344438Y0112325D01*
X03464498Y01205249D02*
Y01218034D01*
X03474692Y01228228D02*
X03583213D01*
X03585692Y01225749*
Y01215228D02*
Y01225749D01*
X03464498Y01218034D02*
X03474692Y01228228D01*
X03484454Y01310271D02*
Y01323056D01*
X03494648Y0133325D02*
X03603169D01*
X03605648Y01330771*
Y0132025D02*
Y01330771D01*
X03484454Y01323056D02*
X03494648Y0133325D01*
X03510568Y01423493D02*
X03526074Y01438999D01*
X03631763Y01420687D02*
Y0143607D01*
X03628834Y01438999D02*
X03631763Y0143607D01*
X03526074Y01438999D02*
X03628834D01*
X03510568Y01410708D02*
Y01423493D01*
X03530746Y0152027D02*
Y01533055D01*
X0354094Y01543249D02*
X03649461D01*
X0365194Y0154077*
Y0153025D02*
Y0154077D01*
X03530746Y01533055D02*
X0354094Y01543249D01*
X03553306Y0163027D02*
Y01643055D01*
X03563501Y01653249D02*
X03672022D01*
X03674501Y0165077*
Y01640249D02*
Y0165077D01*
X03553306Y01643055D02*
X03563501Y01653249D01*
X02729454Y01310271D02*
Y01323056D01*
X02739648Y0133325D02*
X02848169D01*
X02850647Y01330771*
Y0132025D02*
Y01330771D01*
X02729454Y01323056D02*
X02739648Y0133325D01*
X02708186Y0120527D02*
Y01218055D01*
X0271838Y01228249D02*
X02826901D01*
X0282938Y0122577*
Y01215249D02*
Y0122577D01*
X02708186Y01218055D02*
X0271838Y01228249D01*
X02685748Y01100249D02*
Y01113034D01*
X02695942Y01123228D02*
X02804463D01*
X02806942Y01120749*
Y01110228D02*
Y01120749D01*
X02685748Y01113034D02*
X02695942Y01123228D01*
X02662245Y0099527D02*
Y01008055D01*
X02672439Y01018249D02*
X0278096D01*
X0278344Y0101577*
Y01005249D02*
Y0101577D01*
X02662245Y01008055D02*
X02672439Y01018249D01*
X02654352Y00809228D02*
X0272657D01*
X02729499Y00806299*
Y00790563D02*
Y00806299D01*
X02644158Y00786249D02*
Y00799034D01*
X02654352Y00809228*
X02683792Y00598228D02*
X02686249Y00595771D01*
X02612942Y00598228D02*
X02683792D01*
X02686249Y00582263D02*
Y00595771D01*
X02602748Y00575249D02*
Y00588034D01*
X02612942Y00598228*
X02441999Y005819D02*
Y00595771D01*
X02444456Y00598228*
X02526748Y00575249D02*
Y00588034D01*
X02516554Y00598228D02*
X02526748Y00588034D01*
X02399749Y00793315D02*
Y0080577D01*
X02402207Y00808228*
X02489862Y00785249D02*
Y00798034D01*
X02479667Y00808228D02*
X02489862Y00798034D01*
Y00890272D02*
Y00903057D01*
X02368668Y00910772D02*
X02371147Y00913251D01*
X02368668Y00900251D02*
Y00910772D01*
X02479667Y00913251D02*
X02489862Y00903057D01*
X02449854Y01100271D02*
Y01113056D01*
X0232866Y01120771D02*
X02331139Y0112325D01*
X0232866Y0111025D02*
Y01120771D01*
X0243966Y0112325D02*
X02449854Y01113056D01*
X02426679Y0120527D02*
Y01218055D01*
X02305485Y0122577D02*
X02307964Y01228249D01*
X02305485Y01215249D02*
Y0122577D01*
X02416485Y01228249D02*
X02426679Y01218055D01*
X02384785Y01415272D02*
Y01428057D01*
X02263591Y01435772D02*
X0226607Y01438251D01*
X02263591Y01425251D02*
Y01435772D01*
X02374591Y01438251D02*
X02384785Y01428057D01*
X02364284Y0152027D02*
Y01533055D01*
X0224309Y0154077D02*
X02245569Y01543249D01*
X0224309Y0153025D02*
Y0154077D01*
X0235409Y01543249D02*
X02364284Y01533055D01*
X03198999Y00583015D02*
Y00595771D01*
X03201456Y00598228*
X03281498Y00575249D02*
Y00588034D01*
X03271304Y00598228D02*
X03281498Y00588034D01*
X03175999Y00689394D02*
Y00700769D01*
X03178458Y00703228*
X03155249Y007938D02*
Y0080577D01*
X03157728Y0080825*
X03271394*
X03281588Y00785271D02*
Y00798055D01*
X03271394Y0080825D02*
X03281588Y00798055D01*
X03130999Y00897268D02*
Y00910771D01*
X03133478Y00913251*
X03224475Y00890272D02*
Y00903057D01*
X03214281Y00913251D02*
X03224475Y00903057D01*
X03110749Y01002931D02*
Y0101577D01*
X03113228Y01018249*
X03235703Y0099527D02*
Y01008055D01*
X03225509Y01018249D02*
X03235703Y01008055D01*
X0320779Y01100271D02*
Y01113056D01*
X03089075Y0112325D02*
X03197596D01*
X03086596Y01120771D02*
X03089075Y0112325D01*
X03086596Y0111025D02*
Y01120771D01*
X03197596Y0112325D02*
X0320779Y01113056D01*
X03180952Y0120527D02*
Y01218055D01*
X03059758Y0122577D02*
X03062237Y01228249D01*
X03059758Y01215249D02*
Y0122577D01*
X03170758Y01228249D02*
X03180952Y01218055D01*
X03154133Y01310271D02*
Y01323056D01*
X03032939Y01330771D02*
X03035418Y0133325D01*
X03032939Y0132025D02*
Y01330771D01*
X03143939Y0133325D02*
X03154133Y01323056D01*
X02469401Y0099527D02*
Y01008055D01*
X02350686Y01018249D02*
X02459207D01*
X02348207Y0101577D02*
X02350686Y01018249D01*
X02348207Y01005249D02*
Y0101577D01*
X02459207Y01018249D02*
X02469401Y01008055D01*
X02406178Y01310271D02*
Y01323056D01*
X02287463Y0133325D02*
X02395983D01*
X02284984Y01330771D02*
X02287463Y0133325D01*
X02284984Y0132025D02*
Y01330771D01*
X02395983Y0133325D02*
X02406178Y01323056D01*
X02332999Y01653249D02*
X02343193Y01643055D01*
X02221999Y01640249D02*
Y0165077D01*
X02224478Y01653249*
X02332999*
X02343193Y0163027D02*
Y01643055D01*
X01183249Y00187249D02*
Y00233499D01*
X01800749Y01635017D02*
X01846296D01*
X01309999Y01161999D02*
X01372749D01*
X01308749Y01163249D02*
X01309999Y01161999D01*
X01402749Y01162249D02*
X01450498D01*
X01511749Y01401499D02*
X01567999D01*
X01597999Y01401307D02*
X0164876D01*
X01425749Y00847792D02*
X01452206D01*
X01457749Y00842249*
X01375706Y00847792D02*
X01395749D01*
X01336783Y00871553D02*
X01351945D01*
X01375706Y00847792*
X01425749Y00786999D02*
X01456999D01*
X01457749Y00787749*
X01335721Y00809531D02*
X01356966D01*
X01379499Y00786999*
X01395749*
X01869999Y00249749D02*
X01922999D01*
X00126249Y01637999D02*
X0020282D01*
X00119998Y01623499D02*
X00120134Y01623635D01*
Y01631884*
X00126249Y01637999*
X0020282D02*
X00207499Y0163332D01*
Y01627999D02*
Y0163332D01*
X00110498Y01556364D02*
Y01603499D01*
X00110328Y01556194D02*
X00110498Y01556364D01*
X01336499Y00892499D02*
X01338749Y00894749D01*
X01336783Y00871553D02*
Y00873269D01*
X01336499Y00873553D02*
X01336783Y00873269D01*
X01336499Y00873553D02*
Y00892499D01*
X01213999Y00954249D02*
X01242999Y00925249D01*
X0128682*
X01451749Y01461499D02*
X01511749Y01401499D01*
X01286665Y01615271D02*
X01297977D01*
X01451749Y01461499*
X01031227Y01405271D02*
X01070811D01*
X01029499Y01406999D02*
X01031227Y01405271D01*
X01308749Y01172999D02*
X01310749Y01170999D01*
X01284261Y01300271D02*
X01308271D01*
X01308749Y01300749*
X01460771Y00524021D02*
X01677823D01*
X01457749Y00520999D02*
X01460771Y00524021D01*
X01462479Y00799519D02*
X0151472D01*
X01457749Y00804249D02*
X01462479Y00799519D01*
X01455249Y00806749D02*
X01457749Y00804249D01*
X0127642Y00565271D02*
X01456271D01*
X01457749Y00566749*
X01276419Y0025027D02*
X01287228D01*
X01310124Y00227374*
X00695665Y00122583D02*
Y00157499D01*
Y00122583D02*
X00697499Y00120749D01*
X00315001Y00121747D02*
Y00156486D01*
Y00121747D02*
X00315999Y00120749D01*
X00052228Y0046027D02*
X00083789D01*
X00051749Y00460749D02*
X00052228Y0046027D01*
X00083517Y00774999D02*
X00083789Y00775271D01*
X00051749Y00774999D02*
X00083517D01*
X00051969Y01094719D02*
X00083789D01*
X00051749Y01094499D02*
X00051969Y01094719D01*
X00051976Y01405272D02*
X00083785D01*
X00051749Y01405499D02*
X00051976Y01405272D01*
X01766935Y0071652D02*
X0177827D01*
X01798749Y00736999*
X01604985Y00991756D02*
X01755742D01*
X01758749Y00988749*
X01608249Y01236499D02*
X01758749D01*
X01790499Y01476999D02*
X01817249D01*
X01878374Y01415874*
X01865979Y00442769D02*
X01930347D01*
X01536486Y00991756D02*
X01604985D01*
X01535115Y00990385D02*
X01536486Y00991756D01*
X01530001Y00990385D02*
X01535115D01*
X01525001Y00985385D02*
X01530001Y00990385D01*
X01525001Y00980271D02*
Y00985385D01*
X01694999Y0071652D02*
X01766935D01*
X01689999Y0071152D02*
X01694999Y0071652D01*
X01689999Y0070652D02*
Y0071152D01*
X01865749Y00442999D02*
X01865979Y00442769D01*
X01213999Y00954249D02*
Y00967749D01*
X01299499Y00870249D02*
X01318195Y00851553D01*
X01327283*
X01299499Y00870249D02*
Y00906999D01*
X01300249Y00907749*
X01277999Y00841999D02*
X01311749D01*
X01335721Y00809531D02*
Y00818027D01*
X01311749Y00841999D02*
X01335721Y00818027D01*
X01370749Y01071999D02*
X01373864Y01075114D01*
X01370749Y0099851D02*
Y01071999D01*
X01373864Y01075114D02*
X01384614D01*
X01385509Y01076009*
X01389249Y01087749D02*
X01441499D01*
X01385509Y01084009D02*
X01389249Y01087749D01*
X01385509Y01076009D02*
Y01084009D01*
X01405249Y00993501D02*
Y01066249D01*
Y00993501D02*
X01408479Y00990271D01*
X01446499Y01005249D02*
X01454749Y01013499D01*
X01521021D02*
X01523749Y01010771D01*
X01454749Y01013499D02*
X01521021D01*
X00718249Y00264499D02*
Y00334749D01*
X01703249Y01485185D02*
X01706178Y01482256D01*
X01703249Y01507499D02*
X01772289Y01576539D01*
X01706178Y01482256D02*
X01714985D01*
X01703249Y01485185D02*
Y01507499D01*
X01503749Y01273999D02*
X01571042Y01341292D01*
X01506678Y01241031D02*
X01515499D01*
X01503749Y0124396D02*
X01506678Y01241031D01*
X01503749Y0124396D02*
Y01273999D01*
X01571042Y01341292D02*
X01591014D01*
X01772289Y01576539D02*
X01788498D01*
X01032227Y00880271D02*
X01070811D01*
X01029499Y00882999D02*
X01032227Y00880271D01*
X01030203Y00672795D02*
X01070811D01*
X01029499Y00673499D02*
X01030203Y00672795D01*
X00718249Y00334749D02*
X00721999Y00338499D01*
X0071902Y0026527D02*
X0072D01*
X00718249Y00264499D02*
X0071902Y0026527D01*
X0021Y00670269D02*
X00259729D01*
X00262749Y00667249*
X0021Y0098527D02*
X00211229Y00986499D01*
X00262749*
X0021Y01300271D02*
X00210978Y01301249D01*
X00262749*
X01029645Y0109027D02*
X01070811D01*
X01029499Y01090124D02*
X01029645Y0109027D01*
X01758249Y01324999D02*
Y01394749D01*
X01724999Y01399667D02*
X01753331D01*
X01758249Y01394749*
X01679499Y01293749D02*
X01726999D01*
X01758249Y01324999*
X01714985Y01482256D02*
X01715499Y01481742D01*
X01875749Y01528999D02*
X01920249D01*
X01957999Y01566749*
X01952499Y01631499D02*
X01957999Y01625999D01*
Y01566749D02*
Y01625999D01*
X01938749Y01631499D02*
X01952499D01*
X01846296Y01625697D02*
X01865285Y01606709D01*
X01846296Y01625697D02*
Y01635017D01*
X01865285Y01606709D02*
X01905785D01*
X01778998Y0154722D02*
X01797987Y01528231D01*
X01778998Y0154722D02*
Y01556539D01*
X01797987Y01528231D02*
X01838487D01*
X01715499Y01472423D02*
X01735923Y01451999D01*
X01775274*
X01715499Y01472423D02*
Y01481742D01*
X01855796Y01655017D02*
X01919732D01*
X01923999Y01650749*
X01845459Y01576539D02*
X01846999Y01574999D01*
X01788498Y01576539D02*
X01845459D01*
X01786256Y01501742D02*
X01790249Y01497749D01*
X01724999Y01501742D02*
X01786256D01*
X01703249Y01422749D02*
X01722749D01*
X01722999Y01422499*
X0165826Y01421307D02*
X01701807D01*
X01703249Y01422749*
X01667749Y01372999D02*
X01708249D01*
X0164876Y01391988D02*
Y01401307D01*
Y01391988D02*
X01667749Y01372999D01*
X01591014Y01341292D02*
X01648542D01*
X01648999Y01341749*
X01597749Y01293749D02*
X01639249D01*
X01581513Y01309984D02*
Y01321292D01*
Y01309984D02*
X01597749Y01293749D01*
X01530999Y01212249D02*
X01572749D01*
X01515499Y01227749D02*
Y01241031D01*
Y01227749D02*
X01530999Y01212249D01*
X01580281Y01261031D02*
X01580499Y01261249D01*
X01524999Y01261031D02*
X01580281D01*
X01545749Y01162499D02*
X01553249D01*
X01559249Y01046999D02*
Y01156499D01*
X01553249Y01162499D02*
X01559249Y01156499D01*
X01547999Y01035749D02*
X01559249Y01046999D01*
X01518749Y01035749D02*
X01547999D01*
X01515499Y01038999D02*
Y01048181D01*
Y01038999D02*
X01518749Y01035749D01*
X01459998Y01182249D02*
X01514999D01*
X01515749Y01181499*
X01450498Y01148D02*
Y01162249D01*
X01466763Y01131735D02*
X01525D01*
X01450498Y01148D02*
X01466763Y01131735D01*
X01494999Y01082999D02*
X01509817Y01068181D01*
X01479999Y01082999D02*
X01494999D01*
X01509817Y01068181D02*
X01524999D01*
X01471728Y01048181D02*
X01515499D01*
X01465501Y01054407D02*
X01471728Y01048181D01*
X01460001Y01054407D02*
X01465501D01*
X01204977Y01615271D02*
X01256665D01*
X01203749Y01616499D02*
X01204977Y01615271D01*
X01207771Y01300271D02*
X01254261D01*
X012065Y01298999D02*
X01207771Y01300271D01*
X01200727Y00565271D02*
X0124642D01*
X01198499Y00567499D02*
X01200727Y00565271D01*
X0120227Y0025027D02*
X01246419D01*
X01202249Y00250249D02*
X0120227Y0025027D01*
X01590749Y00900999D02*
X01592726Y00899022D01*
X01662406*
X0154472Y00799519D02*
X01595519D01*
X01595749Y00799749*
X01607749Y00768426D02*
Y00778221D01*
Y00768426D02*
X01610678Y00765497D01*
X01698699*
X01709248Y00776046*
Y0078777*
X01501763Y00945735D02*
X01595485D01*
X01497107Y00950391D02*
Y00981756D01*
Y00950391D02*
X01501763Y00945735D01*
X01595485Y00903862D02*
Y00945735D01*
Y00971756*
X01554529Y00861001D02*
X01562529Y00853001D01*
X01554529Y00861001D02*
Y00889022D01*
X01562529Y00853001D02*
X01652906D01*
Y00811128D02*
Y00853001D01*
Y00879022*
X01640001Y0080777D02*
X01718748D01*
X01635001Y0080277D02*
X01640001Y0080777D01*
X01635001Y0079777D02*
Y0080277D01*
X01659057Y006785D02*
X01667057Y006705D01*
X01659057Y006785D02*
Y0070652D01*
X01667057Y006705D02*
X01757435D01*
Y00628627D02*
Y006705D01*
Y0069652*
X01707823Y00524021D02*
X01769999D01*
X01771249Y00495749D02*
Y00502249D01*
Y00495749D02*
X01775249Y00491749D01*
X01856499*
X01867047Y00502298D02*
Y00514021D01*
X01856499Y00491749D02*
X01867047Y00502298D01*
X01750001Y00625271D02*
X01822635D01*
X01745001Y00620271D02*
X01750001Y00625271D01*
X01745001Y00615271D02*
Y00620271D01*
X01813135Y00537377D02*
Y0057925D01*
X01808999Y00537499D02*
X01812477Y00534021D01*
X01876547*
X01714757Y0058725D02*
X01722758Y0057925D01*
X01714757Y0058725D02*
Y00615271D01*
X01722758Y0057925D02*
X01813135D01*
Y00605271*
X0182247Y00404749D02*
X0183047Y00396748D01*
X0182247Y00404749D02*
Y00432769D01*
X0183047Y00396748D02*
X01920847D01*
Y00354876D02*
Y00396748D01*
Y00422769*
X01978376Y00305499D02*
Y0033152D01*
Y00263626D02*
Y00305499D01*
X01887999D02*
X01978376D01*
X01879999Y00313499D02*
Y0034152D01*
Y00313499D02*
X01887999Y00305499D01*
X01914999Y0035152D02*
X01987876D01*
X01909999Y0034652D02*
X01914999Y0035152D01*
X01909999Y0034152D02*
Y0034652D01*
X01973999Y00259249D02*
X01978376Y00263626D01*
X01965Y0025027D02*
X01966749Y00248521D01*
Y00200499D02*
Y00248521D01*
X01953268Y00196811D02*
X01963061D01*
X01966749Y00200499*
X0193Y0024527D02*
X01935Y0025027D01*
X0193Y00236842D02*
Y0024527D01*
X01929999Y00236841D02*
X0193Y00236842D01*
X01929999Y00181499D02*
Y00236841D01*
X01934687Y00176811D02*
X01943768D01*
X01929999Y00181499D02*
X01934687Y00176811D01*
X01267229Y00789519D02*
X01326233D01*
X01264999Y00791749D02*
X01267229Y00789519D01*
X01213444Y00791033D02*
X01245283D01*
X01245749Y00791499*
X01184042Y01529751D02*
Y01541001D01*
X01070811Y01591981D02*
Y0161527D01*
X01100292Y01562501D02*
X01162542D01*
X01070811Y01591981D02*
X01100292Y01562501D01*
X01162542D02*
X01184042Y01541001D01*
Y0142475D02*
Y01436D01*
X01070811Y0148698D02*
Y0151027D01*
X01100292Y014575D02*
X01162542D01*
X01070811Y0148698D02*
X01100292Y014575D01*
X01162542D02*
X01184042Y01436D01*
Y0121475D02*
Y01226D01*
X01070811Y01276981D02*
Y0130027D01*
X01100292Y012475D02*
X01162542D01*
X01070811Y01276981D02*
X01100292Y012475D01*
X01162542D02*
X01184042Y01226D01*
Y01109749D02*
Y01120999D01*
X01070811Y0117198D02*
Y01195269D01*
X01100292Y01142499D02*
X01162542D01*
X01070811Y0117198D02*
X01100292Y01142499D01*
X01162542D02*
X01184042Y01120999D01*
Y00899749D02*
Y00910999D01*
X01070811Y0096198D02*
Y00985269D01*
X01100292Y00932499D02*
X01162542D01*
X01070811Y0096198D02*
X01100292Y00932499D01*
X01162542D02*
X01184042Y00910999D01*
Y0068975D02*
Y00701D01*
X01070811Y00751981D02*
Y0077527D01*
X01100292Y007225D02*
X01162542D01*
X01070811Y00751981D02*
X01100292Y007225D01*
X01162542D02*
X01184042Y00701D01*
X01184249Y0047975D02*
Y00491D01*
X01071018Y00541981D02*
Y0056527D01*
X01100499Y005125D02*
X01162749D01*
X01071018Y00541981D02*
X01100499Y005125D01*
X01162749D02*
X01184249Y00491D01*
X01162749Y00407499D02*
X01184249Y00385999D01*
X01071018Y0043698D02*
X01100499Y00407499D01*
X01162749*
X01090811Y0158748D02*
X01095542Y01582749D01*
X0118677*
X01188792Y01584771*
Y01596999*
X01090811Y0158748D02*
Y0160577D01*
Y01482479D02*
X01095542Y01477748D01*
X0118677*
X01188792Y0147977*
Y01491998*
X01090811Y01482479D02*
Y0150077D01*
Y0137748D02*
X01095542Y01372749D01*
X0118677*
X01188792Y01374772*
Y01386999*
X01090811Y0137748D02*
Y01395771D01*
Y01272479D02*
X01095542Y01267748D01*
X0118677*
X01188792Y01269771*
Y01281998*
X01090811Y01272479D02*
Y0129077D01*
Y01167478D02*
X01095542Y01162747D01*
X0118677*
X01188792Y0116477*
Y01176997*
X01090811Y01167478D02*
Y01185769D01*
Y0106248D02*
X01095542Y01057749D01*
X0118677*
X01188792Y01059771*
Y01071999*
X01090811Y0106248D02*
Y0108077D01*
Y00957478D02*
X01095542Y00952748D01*
X0118677*
X01188792Y0095477*
Y00966998*
X01090811Y00957478D02*
Y00975769D01*
Y0085248D02*
X01095542Y00847749D01*
X0118677*
X01188792Y00849772*
Y00861999*
X01090811Y0085248D02*
Y00870771D01*
Y00747479D02*
X01095542Y00742748D01*
X0118677*
X01188792Y0074477*
Y00756998*
X01090811Y00747479D02*
Y0076577D01*
X01093947Y00531749D02*
X0118607D01*
X01091018Y00534678D02*
Y0055577D01*
X01188999Y00534678D02*
Y00546999D01*
X01091018Y00534678D02*
X01093947Y00531749D01*
X0118607D02*
X01188999Y00534678D01*
X01090811Y00641178D02*
Y00663295D01*
Y00641178D02*
X0109374Y00638249D01*
X01187272*
X01188792Y00639769*
Y00654524*
X01071018Y0043698D02*
Y00460269D01*
X01091018Y00432478D02*
X01095749Y00427747D01*
X01186977*
X01188999Y0042977*
Y00441997*
X01091018Y00432478D02*
Y00450769D01*
X01184249Y00374749D02*
Y00385999D01*
X01183249Y00373749D02*
X01184249Y00374749D01*
X01070811Y0161527D02*
Y01631018D01*
X01126792Y01634499D02*
Y0164282D01*
X01123863Y01645749D02*
X01126792Y0164282D01*
X01085542Y01645749D02*
X01123863D01*
X01070811Y01631018D02*
X01085542Y01645749D01*
X01070811Y0151027D02*
Y01526017D01*
X01126792Y01529498D02*
Y01537819D01*
X01123863Y01540748D02*
X01126792Y01537819D01*
X01085542Y01540748D02*
X01123863D01*
X01070811Y01526017D02*
X01085542Y01540748D01*
X01070811Y01405271D02*
Y01421019D01*
X01126792Y01424499D02*
Y0143282D01*
X01123863Y01435749D02*
X01126792Y0143282D01*
X01085542Y01435749D02*
X01123863D01*
X01070811Y01421019D02*
X01085542Y01435749D01*
X01070811Y0130027D02*
Y01316018D01*
X01126792Y01319498D02*
Y01327819D01*
X01123863Y01330748D02*
X01126792Y01327819D01*
X01085542Y01330748D02*
X01123863D01*
X01070811Y01316018D02*
X01085542Y01330748D01*
X01070811Y01195269D02*
Y01211017D01*
X01126792Y01214497D02*
Y01222818D01*
X01123863Y01225747D02*
X01126792Y01222818D01*
X01085542Y01225747D02*
X01123863D01*
X01070811Y01211017D02*
X01085542Y01225747D01*
X01070811Y0109027D02*
Y01106018D01*
X01126792Y01109499D02*
Y0111782D01*
X01123863Y01120749D02*
X01126792Y0111782D01*
X01085542Y01120749D02*
X01123863D01*
X01070811Y01106018D02*
X01085542Y01120749D01*
X01070811Y00985269D02*
Y01001017D01*
X01126792Y01004498D02*
Y01012819D01*
X01123863Y01015748D02*
X01126792Y01012819D01*
X01085542Y01015748D02*
X01123863D01*
X01070811Y01001017D02*
X01085542Y01015748D01*
X01070811Y00880271D02*
Y00896019D01*
X01126792Y00899499D02*
Y0090782D01*
X01123863Y00910749D02*
X01126792Y0090782D01*
X01085542Y00910749D02*
X01123863D01*
X01070811Y00896019D02*
X01085542Y00910749D01*
X01070811Y0077527D02*
Y00791017D01*
X01126792Y00794498D02*
Y00802819D01*
X01123863Y00805748D02*
X01126792Y00802819D01*
X01085542Y00805748D02*
X01123863D01*
X01070811Y00791017D02*
X01085542Y00805748D01*
X01070811Y00672795D02*
Y00688543D01*
X01126792Y00692024D02*
Y00700345D01*
X01123863Y00703274D02*
X01126792Y00700345D01*
X01085542Y00703274D02*
X01123863D01*
X01070811Y00688543D02*
X01085542Y00703274D01*
X01071018Y0056527D02*
Y00581018D01*
X01126999Y00584499D02*
Y0059282D01*
X0112407Y00595749D02*
X01126999Y0059282D01*
X01085749Y00595749D02*
X0112407D01*
X01071018Y00581018D02*
X01085749Y00595749D01*
X01071018Y00460269D02*
Y00476017D01*
X01126999Y00479497D02*
Y00487819D01*
X0112407Y00490747D02*
X01126999Y00487819D01*
X01085749Y00490747D02*
X0112407D01*
X01071018Y00476017D02*
X01085749Y00490747D01*
X01091018Y0032748D02*
Y0034577D01*
X01188999Y00324771D02*
Y00336999D01*
X01186977Y00322749D02*
X01188999Y00324771D01*
X01095749Y00322749D02*
X01186977D01*
X01091018Y0032748D02*
X01095749Y00322749D01*
X01071018Y00371018D02*
X01085749Y00385749D01*
X0112407*
X01126999Y0038282*
Y00374499D02*
Y0038282D01*
X01071018Y0035527D02*
Y00371018D01*
X01181499Y00235249D02*
X01183249Y00233499D01*
X01143499Y00247999D02*
X01146515Y00244983D01*
Y00167999D02*
Y00244983D01*
X00834502Y00167499D02*
Y00218496D01*
X00831999Y00220999D02*
X00834502Y00218496D01*
X00756668Y00167499D02*
X00784249D01*
X00804249Y00147499*
X00825002*
X00690499Y00263249D02*
X006985D01*
X00698749Y00262999*
X00685749Y00258499D02*
X00690499Y00263249D01*
X00685749Y00197749D02*
X00735999Y00147499D01*
X00685749Y00197749D02*
Y00258499D01*
X00735999Y00147499D02*
X00747168D01*
X00749999Y00208999D02*
X00756668Y00202329D01*
X00742999Y00208999D02*
X00749999D01*
X00756668Y00167499D02*
Y00202329D01*
X00650499Y00156749D02*
X00667249D01*
X006245Y00167499D02*
X00639749D01*
X00650499Y00156749*
X00666499Y00157499D02*
X00667249Y00156749D01*
X00665665Y00157499D02*
X00666499D01*
X006245Y00167499D02*
Y00221498D01*
X00622999Y00222999D02*
X006245Y00221498D01*
X00519501Y00167499D02*
Y00221497D01*
X00517749Y00223249D02*
X00519501Y00221497D01*
X005565Y00167499D02*
X005765Y00147499D01*
X00519501Y00167499D02*
X005565D01*
X005765Y00147499D02*
X00615002D01*
X00471499D02*
X00510001D01*
X004145Y00167499D02*
X00451499D01*
X00471499Y00147499*
X00413749Y00223249D02*
X004145Y00222498D01*
Y00167499D02*
Y00222498D01*
X00386499Y00262499D02*
X00386749Y00262249D01*
X00371499Y00165749D02*
Y0025957D01*
X00374428Y00262499*
X00386499*
X00389749Y00147499D02*
X00405D01*
X00371499Y00165749D02*
X00389749Y00147499D01*
X00285001Y00156486D02*
Y00224497D01*
X00283499Y00225999D02*
X00285001Y00224497D01*
X00252999Y00167499D02*
X00264012Y00156486D01*
X00285001*
X002385Y00167499D02*
X00252999D01*
X00180249Y00280074D02*
X00189499D01*
X00115749D02*
X0018D01*
Y00355271*
Y00277498D02*
Y00280074D01*
Y00277498D02*
X00180249Y00277249D01*
X00110328Y00419178D02*
X00118649Y00427499D01*
X00172849*
X00207749Y00392599*
Y00374849D02*
Y00392599D01*
X00110328Y00407061D02*
Y00419178D01*
X00113789Y0046027D02*
X00170228D01*
X00171999Y00458499*
X00110328Y00740328D02*
X00116499Y00746499D01*
X00139249*
X00110328Y0072574D02*
Y00740328D01*
X00139249Y00746499D02*
X00148749Y00736999D01*
X00171249D02*
X00207749Y00700499D01*
X00148749Y00736999D02*
X00171249D01*
X00207749Y00693527D02*
Y00700499D01*
X00113789Y00775271D02*
X00164227D01*
X00164999Y00774499*
X00110328Y01050225D02*
X00118102Y01057999D01*
X00173396D02*
X00207749Y01023646D01*
X00118102Y01057999D02*
X00173396D01*
X00207749Y01005896D02*
Y01023646D01*
X00110328Y01038109D02*
Y01050225D01*
X00154499Y01094749D02*
X00165249Y01083999D01*
X00130499Y01094749D02*
X00154499D01*
X00113789Y01094719D02*
X00130469D01*
X00130499Y01094749*
X00110328Y01349711D02*
Y01361828D01*
X00119499Y01370999D02*
X00171999D01*
X00110328Y01361828D02*
X00119499Y01370999D01*
X00207749Y01317499D02*
X00208249Y01316999D01*
X00207749Y01317499D02*
Y01335249D01*
X00171999Y01370999D02*
X00207749Y01335249D01*
X00113785Y01405272D02*
X00165522D01*
X00166499Y01406249*
X00156749Y00237749D02*
X00175749D01*
X00130328Y00240769D02*
X00153729D01*
X00156749Y00237749*
X00169304Y00397561D02*
X0018Y00386865D01*
Y00355271D02*
Y00386865D01*
X00130328Y00397561D02*
X00169304D01*
Y00503342D02*
X0018Y00492646D01*
Y0046192D02*
Y00492646D01*
X00130328Y00503342D02*
X00169304D01*
Y00610389D02*
X0018Y00599694D01*
Y00568966D02*
Y00599694D01*
X00130328Y00610389D02*
X00169304D01*
Y0071624D02*
X0018Y00705544D01*
Y00674817D02*
Y00705544D01*
X00130328Y0071624D02*
X00169304D01*
Y00817475D02*
X0018Y0080678D01*
Y00776053D02*
Y0080678D01*
X00130328Y00817475D02*
X00169304D01*
Y00922759D02*
X0018Y00912063D01*
Y00881336D02*
Y00912063D01*
X00130328Y00922759D02*
X00169304D01*
Y01028608D02*
X0018Y01017913D01*
Y00987186D02*
Y01017913D01*
X00130328Y01028608D02*
X00169304D01*
Y01133326D02*
X0018Y0112263D01*
Y01091903D02*
Y0112263D01*
X00130328Y01133326D02*
X00169304D01*
Y01236996D02*
X0018Y012263D01*
Y01195573D02*
Y012263D01*
X00130328Y01236996D02*
X00169304D01*
Y01340211D02*
X0018Y01329516D01*
Y01298789D02*
Y01329516D01*
X00130328Y01340211D02*
X00169304D01*
Y01449157D02*
X0018Y01438461D01*
Y01407734D02*
Y01438461D01*
X00130328Y01449157D02*
X00169304D01*
X00130328Y01546694D02*
X00169304D01*
X0018Y01505272D02*
Y01535998D01*
X00169304Y01546694D02*
X0018Y01535998D01*
X00204616Y00147499D02*
X00229D01*
X00199195Y0015292D02*
X00204616Y00147499D01*
X00199195Y0015292D02*
Y00210499D01*
X00110328Y00250269D02*
Y00274653D01*
X00115749Y00280074*
X00110328Y00512842D02*
Y0054207D01*
X00113257Y00544999*
X00155026*
X00110328Y00619889D02*
Y00644273D01*
X00115749Y00649694*
X00152499*
X00110328Y00826975D02*
Y00854828D01*
X00116249Y00860749D02*
X00155822D01*
X00110328Y00854828D02*
X00116249Y00860749D01*
X00110328Y00959828D02*
X00116249Y00965749D01*
X00110328Y00932259D02*
Y00959828D01*
X00116249Y00965749D02*
X00160788D01*
X00110328Y01142826D02*
Y01171321D01*
X00113257Y01174249D02*
X00155488D01*
X00110328Y01171321D02*
X00113257Y01174249D01*
X00110328Y01246496D02*
Y0127707D01*
X00113257Y01279999*
X0015682*
X00110328Y01458657D02*
Y0148304D01*
X00115749Y01488462*
X00152499*
X00755023Y0023527D02*
X00785023Y0026527D01*
X0072Y0023527D02*
X00755023D01*
X00785023Y0026527D02*
X0082D01*
X00545024Y0023527D02*
X00575024Y0026527D01*
X0051Y0023527D02*
X00545024D01*
X00575024Y0026527D02*
X0061D01*
X00440023Y0023527D02*
X00470023Y0026527D01*
X00404999Y0023527D02*
X00440023D01*
X00470023Y0026527D02*
X00504999D01*
X00230023Y0023527D02*
X00260023Y0026527D01*
X00195Y0023527D02*
X00230023D01*
X00260023Y0026527D02*
X00295D01*
X0018Y00530248D02*
X0021Y00500248D01*
X0018Y00530248D02*
Y00565271D01*
X0021Y00465271D02*
Y00500248D01*
X0018Y00635246D02*
X0021Y00605246D01*
X0018Y00635246D02*
Y00670269D01*
X0021Y0057027D02*
Y00605246D01*
X0018Y00845248D02*
X0021Y00815248D01*
X0018Y00845248D02*
Y00880272D01*
X0021Y00780272D02*
Y00815248D01*
X0018Y00950247D02*
X0021Y00920247D01*
X0018Y00950247D02*
Y0098527D01*
X0021Y0088527D02*
Y00920247D01*
X0018Y01160246D02*
X0021Y01130246D01*
X0018Y01160246D02*
Y0119527D01*
X0021Y0109527D02*
Y01130246D01*
X0018Y01265247D02*
X0021Y01235247D01*
X0018Y01265247D02*
Y01300271D01*
X0021Y01200271D02*
Y01235247D01*
X0018Y01470248D02*
X0021Y01440248D01*
X0018Y01470248D02*
Y01505272D01*
X0021Y01405272D02*
Y01440248D01*
Y01505272D02*
Y01540248D01*
X0018Y01570248D02*
Y01605271D01*
Y01570248D02*
X0021Y01540248D01*
X00111249Y01585999D02*
X00152499D01*
X00181999Y01623749D02*
X00182249Y01623499D01*
G54D38*
X01563728Y0025027D02*
X01839999D01*
X01448374Y00365624D02*
X01563728Y0025027D01*
G54D39*
X03320249Y00424249D02*
Y00472999D01*
Y00503999*
Y00900499*
Y00901522D02*
Y01112499D01*
Y00900499D02*
Y00901522D01*
Y01112499D02*
Y01218249D01*
Y01427249*
X02567499Y01495999D02*
Y01685999D01*
Y01426249D02*
Y01495999D01*
Y01216999D02*
Y01426249D01*
Y01111999D02*
Y01216999D01*
Y00872249D02*
Y01111999D01*
Y00798499D02*
Y00872249D01*
Y00503249D02*
Y00798499D01*
Y00422249D02*
Y00503249D01*
Y01685999D02*
X02568249Y01686749D01*
X01625749Y01635499D02*
X01767249D01*
G54D40*
X00632449Y01274049D02*
X00644424Y01286024D01*
X00632449Y01257199D02*
Y01274049D01*
X00606899Y01227254D02*
X00608354Y01225799D01*
X00606899Y01227254D02*
Y01256899D01*
X00619749Y01257199D02*
Y01274049D01*
X00607774Y01286024D02*
X00619749Y01274049D01*
X00585249Y01231249D02*
X00594349Y01240349D01*
Y01257199*
G54D41*
X02939749Y00618249D02*
Y00796999D01*
Y00503999D02*
Y00618249D01*
Y01448749D02*
Y01568249D01*
Y01301249D02*
Y01448749D01*
Y01109249D02*
Y01301249D01*
Y00985249D02*
Y01109249D01*
Y00796999D02*
Y00985249D01*
Y00162999D02*
Y00503999D01*
X02912249Y01582999D02*
X02924999D01*
X02939749Y01568249*
G54D42*
X00834502Y00167499D02*
X011735D01*
G54D43*
X01009521Y00035699D02*
X0100357Y00051321D01*
X00997619Y00035699*
X00999851Y00040906D02*
X0100729D01*
X01013166Y00051321D02*
Y00035699D01*
Y00051321D02*
X01018373D01*
X01020605Y00050577*
X01022093Y00049089*
X01022837Y00047601*
X01023581Y00045369*
Y0004165*
X01022837Y00039418*
X01022093Y00037931*
X01020605Y00036443*
X01018373Y00035699*
X01013166*
X01027077Y00051321D02*
X01033028Y00035699D01*
X01038979Y00051321D02*
X01033028Y00035699D01*
X00889863Y00047601D02*
Y00048345D01*
X00890607Y00049833*
X00891351Y00050577*
X00892839Y00051321*
X00895814*
X00897302Y00050577*
X00898046Y00049833*
X0089879Y00048345*
Y00046857*
X00898046Y0004537*
X00896558Y00043138*
X00889119Y00035699*
X00899533*
X00903774Y00047601D02*
Y00048345D01*
X00904518Y00049833*
X00905261Y00050577*
X00906749Y00051321*
X00909725*
X00911213Y00050577*
X00911956Y00049833*
X009127Y00048345*
Y00046857*
X00911956Y0004537*
X00910469Y00043138*
X0090303Y00035699*
X00913444*
X00917684Y00047601D02*
Y00048345D01*
X00918428Y00049833*
X00919172Y00050577*
X0092066Y00051321*
X00923635*
X00925123Y00050577*
X00925867Y00049833*
X00926611Y00048345*
Y00046857*
X00925867Y0004537*
X00924379Y00043138*
X0091694Y00035699*
X00927355*
X00930851Y00048345D02*
X00932339Y00049089D01*
X00934571Y00051321*
Y00035699*
X00759533Y00051321D02*
X00752095Y00035699D01*
X00749119Y00051321D02*
X00759533D01*
X0076303Y00043138D02*
X00769725D01*
X00771956Y00043882*
X007727Y00044626*
X00773444Y00046113*
Y00048345*
X007727Y00049833*
X00771956Y00050577*
X00769725Y00051321*
X0076303*
Y00035699*
X00781404Y00051321D02*
X00779172Y00050577D01*
X00777684Y00048345*
X0077694Y00044626*
Y00042394*
X00777684Y00038675*
X00779172Y00036443*
X00781404Y00035699*
X00782892*
X00785123Y00036443*
X00786611Y00038675*
X00787355Y00042394*
Y00044626*
X00786611Y00048345*
X00785123Y00050577*
X00782892Y00051321*
X00781404*
X00795314D02*
X00793083Y00050577D01*
X00791595Y00048345*
X00790851Y00044626*
Y00042394*
X00791595Y00038675*
X00793083Y00036443*
X00795314Y00035699*
X00796802*
X00799034Y00036443*
X00800522Y00038675*
X00801266Y00042394*
Y00044626*
X00800522Y00048345*
X00799034Y00050577*
X00796802Y00051321*
X00795314*
X00812201D02*
X00804762Y00040906D01*
X0081592*
X00812201Y00051321D02*
Y00035699D01*
X00828343Y00046113D02*
X00827599Y00043882D01*
X00826112Y00042394*
X0082388Y0004165*
X00823136*
X00820904Y00042394*
X00819416Y00043882*
X00818673Y00046113*
Y00046857*
X00819416Y00049089*
X00820904Y00050577*
X00823136Y00051321*
X0082388*
X00826112Y00050577*
X00827599Y00049089*
X00828343Y00046113*
Y00042394*
X00827599Y00038675*
X00826112Y00036443*
X0082388Y00035699*
X00822392*
X0082016Y00036443*
X00819416Y00037931*
X00832583Y00048345D02*
X00834071Y00049089D01*
X00836303Y00051321*
Y00035699*
X00855941D02*
X0084999Y00051321D01*
X00844039Y00035699*
X00846271Y00040906D02*
X0085371D01*
X00619737Y00051371D02*
X00627919D01*
X00623456Y00045419*
X00625688*
X00627176Y00044676*
X00627919Y00043932*
X00628663Y000417*
Y00040212*
X00627919Y00037981*
X00626432Y00036493*
X006242Y00035749*
X00621968*
X00619737Y00036493*
X00618993Y00037237*
X00618249Y00038725*
X00636623Y00051371D02*
X00634391Y00050627D01*
X00632904Y00048395*
X0063216Y00044676*
Y00042444*
X00632904Y00038725*
X00634391Y00036493*
X00636623Y00035749*
X00638111*
X00640342Y00036493*
X0064183Y00038725*
X00642574Y00042444*
Y00044676*
X0064183Y00048395*
X00640342Y00050627*
X00638111Y00051371*
X00636623*
X00650534D02*
X00648302Y00050627D01*
X00646814Y00048395*
X0064607Y00044676*
Y00042444*
X00646814Y00038725*
X00648302Y00036493*
X00650534Y00035749*
X00652021*
X00654253Y00036493*
X00655741Y00038725*
X00656485Y00042444*
Y00044676*
X00655741Y00048395*
X00654253Y00050627*
X00652021Y00051371*
X00650534*
X00664444D02*
X00662213Y00050627D01*
X00660725Y00048395*
X00659981Y00044676*
Y00042444*
X00660725Y00038725*
X00662213Y00036493*
X00664444Y00035749*
X00665932*
X00668164Y00036493*
X00669652Y00038725*
X00670396Y00042444*
Y00044676*
X00669652Y00048395*
X00668164Y00050627*
X00665932Y00051371*
X00664444*
X00678355D02*
X00676123Y00050627D01*
X00674636Y00048395*
X00673892Y00044676*
Y00042444*
X00674636Y00038725*
X00676123Y00036493*
X00678355Y00035749*
X00679843*
X00682075Y00036493*
X00683562Y00038725*
X00684306Y00042444*
Y00044676*
X00683562Y00048395*
X00682075Y00050627*
X00679843Y00051371*
X00678355*
X0068929D02*
X00697473D01*
X0069301Y00045419*
X00695241*
X00696729Y00044676*
X00697473Y00043932*
X00698217Y000417*
Y00040212*
X00697473Y00037981*
X00695985Y00036493*
X00693754Y00035749*
X00691522*
X0068929Y00036493*
X00688546Y00037237*
X00687803Y00038725*
X00706177Y00051371D02*
X00703945Y00050627D01*
X00702457Y00048395*
X00701713Y00044676*
Y00042444*
X00702457Y00038725*
X00703945Y00036493*
X00706177Y00035749*
X00707664*
X00709896Y00036493*
X00711384Y00038725*
X00712128Y00042444*
Y00044676*
X00711384Y00048395*
X00709896Y00050627*
X00707664Y00051371*
X00706177*
X00473151Y01085269D02*
X004672Y01100891D01*
X00461249Y01085269*
X00463481Y01090476D02*
X00470919D01*
X00476796Y01095683D02*
Y01085269D01*
Y0109122D02*
X0047754Y01093452D01*
X00479028Y0109494*
X00480516Y01095683*
X00482747*
X00486392Y01100891D02*
Y01088245D01*
X00487136Y01086013*
X00488624Y01085269*
X00490112*
X00484161Y01095683D02*
X00489368D01*
X00493087Y01086757D02*
X00492344Y01086013D01*
X00493087Y01085269*
X00493831Y01086013*
X00493087Y01086757*
X00509527Y01100891D02*
Y01085269D01*
Y01100891D02*
X00519942Y01085269D01*
Y01100891D02*
Y01085269D01*
X00524256Y01095683D02*
Y01085269D01*
Y0109122D02*
X00525Y01093452D01*
X00526488Y0109494*
X00527976Y01095683*
X00530208*
X00532365Y01086757D02*
X00531622Y01086013D01*
X00532365Y01085269*
X00533109Y01086013*
X00532365Y01086757*
X00555237Y01100891D02*
X00563419D01*
X00558956Y0109494*
X00561188*
X00562676Y01094196*
X00563419Y01093452*
X00564163Y0109122*
Y01089732*
X00563419Y01087501*
X00561932Y01086013*
X005597Y01085269*
X00557468*
X00555237Y01086013*
X00554493Y01086757*
X00553749Y01088245*
X00575099Y01100891D02*
X0056766Y01090476D01*
X00578818*
X00575099Y01100891D02*
Y01085269D01*
X00586034Y01100891D02*
X00583802Y01100147D01*
X00582314Y01097915*
X0058157Y01094196*
Y01091964*
X00582314Y01088245*
X00583802Y01086013*
X00586034Y01085269*
X00587522*
X00589753Y01086013*
X00591241Y01088245*
X00591985Y01091964*
Y01094196*
X00591241Y01097915*
X00589753Y01100147*
X00587522Y01100891*
X00586034*
X00599944D02*
X00597713Y01100147D01*
X00596225Y01097915*
X00595481Y01094196*
Y01091964*
X00596225Y01088245*
X00597713Y01086013*
X00599944Y01085269*
X00601432*
X00603664Y01086013*
X00605152Y01088245*
X00605896Y01091964*
Y01094196*
X00605152Y01097915*
X00603664Y01100147*
X00601432Y01100891*
X00599944*
X00609392Y01097915D02*
X0061088Y01098659D01*
X00613111Y01100891*
Y01085269*
X00629774Y01098659D02*
X00629031Y01100147D01*
X00626799Y01100891*
X00625311*
X00623079Y01100147*
X00621592Y01097915*
X00620848Y01094196*
Y01090476*
X00621592Y01087501*
X00623079Y01086013*
X00625311Y01085269*
X00626055*
X00628287Y01086013*
X00629774Y01087501*
X00630518Y01089732*
Y01090476*
X00629774Y01092708*
X00628287Y01094196*
X00626055Y0109494*
X00625311*
X00623079Y01094196*
X00621592Y01092708*
X00620848Y01090476*
X00641379Y01100891D02*
X0063394Y01090476D01*
X00645098*
X00641379Y01100891D02*
Y01085269D01*
X00658265Y01100891D02*
X00650826Y01085269D01*
X00647851Y01100891D02*
X00658265D01*
X00723749D02*
Y01085269D01*
Y01100891D02*
X00730444D01*
X00732676Y01100147*
X0073342Y01099403*
X00734163Y01097915*
Y01096427*
X0073342Y0109494*
X00732676Y01094196*
X00730444Y01093452*
X00723749*
X00728956D02*
X00734163Y01085269D01*
X0073766Y0109122D02*
X00746586D01*
Y01092708*
X00745843Y01094196*
X00745099Y0109494*
X00743611Y01095683*
X00741379*
X00739891Y0109494*
X00738404Y01093452*
X0073766Y0109122*
Y01089732*
X00738404Y01087501*
X00739891Y01086013*
X00741379Y01085269*
X00743611*
X00745099Y01086013*
X00746586Y01087501*
X00749935Y01095683D02*
X00754397Y01085269D01*
X00758861Y01095683D02*
X00754397Y01085269D01*
X00762134Y01086757D02*
X0076139Y01086013D01*
X00762134Y01085269*
X00762877Y01086013*
X00762134Y01086757*
X00790476Y01085269D02*
X00784525Y01100891D01*
X00778574Y01085269*
X00780805Y01090476D02*
X00788244D01*
G54D44*
X0058064Y01341282D02*
Y01326999D01*
X00573499Y0133414D02*
X00587782D01*
X00590499Y01351988D02*
X00592086Y01352782D01*
X00594466Y01355162*
Y01338499*
G54D45*
X00594349Y01325499D03*
X00632449D03*
X00619749D03*
X00607049D03*
G54D46*
X03299999Y00049999D03*
X02299999D03*
X01299999D03*
X00299999D03*
X03799999Y01849999D03*
X02799999D03*
X01799999D03*
X00799999D03*
X00049999D03*
M02*